<?xml version="1.0" encoding="UTF-8" standalone="no"?>
<!-- Created with Inkscape (http://www.inkscape.org/) -->

<svg
   xmlns:dc="http://purl.org/dc/elements/1.1/"
   xmlns:cc="http://creativecommons.org/ns#"
   xmlns:rdf="http://www.w3.org/1999/02/22-rdf-syntax-ns#"
   xmlns:svg="http://www.w3.org/2000/svg"
   xmlns="http://www.w3.org/2000/svg"
   xmlns:sodipodi="http://sodipodi.sourceforge.net/DTD/sodipodi-0.dtd"
   xmlns:inkscape="http://www.inkscape.org/namespaces/inkscape"
   width="579.78125"
   height="796.375"
   id="svg2"
   version="1.1"
   inkscape:version="0.47 r22583"
   sodipodi:docname="add_tree.pdf">
  <defs
     id="defs4">
    <inkscape:path-effect
       nr_y="3"
       nr_x="3"
       is_visible="true"
       id="path-effect4509"
       effect="construct_grid" />
    <inkscape:path-effect
       effect="construct_grid"
       id="path-effect4463"
       is_visible="true"
       nr_x="1"
       nr_y="9" />
    <marker
       inkscape:stockid="Arrow1Lend"
       orient="auto"
       refY="0"
       refX="0"
       id="Arrow1Lend"
       style="overflow:visible">
      <path
         id="path3648"
         d="M 0,0 5,-5 -12.5,0 5,5 0,0 z"
         style="fill-rule:evenodd;stroke:#000000;stroke-width:1pt;marker-start:none"
         transform="matrix(-0.8,0,0,-0.8,-10,0)" />
    </marker>
    <inkscape:path-effect
       nr_y="3"
       nr_x="3"
       is_visible="true"
       id="path-effect3632"
       effect="construct_grid" />
    <inkscape:path-effect
       effect="construct_grid"
       id="path-effect3593"
       is_visible="true"
       nr_x="3"
       nr_y="3" />
    <inkscape:perspective
       sodipodi:type="inkscape:persp3d"
       inkscape:vp_x="0 : 526.18109 : 1"
       inkscape:vp_y="0 : 1000 : 0"
       inkscape:vp_z="744.09448 : 526.18109 : 1"
       inkscape:persp3d-origin="372.04724 : 350.78739 : 1"
       id="perspective10" />
  </defs>
  <sodipodi:namedview
     id="base"
     pagecolor="#ffffff"
     bordercolor="#666666"
     borderopacity="1.0"
     inkscape:pageopacity="0.0"
     inkscape:pageshadow="2"
     inkscape:zoom="1"
     inkscape:cx="246.49299"
     inkscape:cy="693.11857"
     inkscape:document-units="px"
     inkscape:current-layer="layer1"
     showgrid="false"
     inkscape:window-width="1920"
     inkscape:window-height="1003"
     inkscape:window-x="0"
     inkscape:window-y="25"
     inkscape:window-maximized="1">
    <inkscape:grid
       type="xygrid"
       id="grid2816"
       empspacing="5"
       visible="true"
       enabled="true"
       snapvisiblegridlinesonly="true" />
  </sodipodi:namedview>
  <metadata
     id="metadata7">
    <rdf:RDF>
      <cc:Work
         rdf:about="">
        <dc:format>image/svg+xml</dc:format>
        <dc:type
           rdf:resource="http://purl.org/dc/dcmitype/StillImage" />
        <dc:title></dc:title>
      </cc:Work>
    </rdf:RDF>
  </metadata>
  <g
     inkscape:label="レイヤー 1"
     inkscape:groupmode="layer"
     id="layer1"
     transform="translate(1060.625,193.38782)">
    <path
       style="fill:#ffffff;fill-opacity:1;stroke:#000000;stroke-width:1.5;stroke-linecap:butt;stroke-linejoin:round;stroke-miterlimit:4;stroke-opacity:1;stroke-dasharray:none;stroke-dashoffset:0"
       d="m -830,-162.63782 -120,0 m 120,40 -120,0 m 120,40 -120,0 m 120,40 -120,0 m 120,-120 0,120 m -40,-120 0,120 m -40,-120 0,120 m -40,-120 0,120"
       id="rect2818"
       inkscape:path-effect="#path-effect3593"
       inkscape:original-d="m -870,-162.63782 40,0 0,40 -40,0 0,-40 z" />
    <path
       style="fill:none;stroke:#000000;stroke-width:1.5;stroke-linecap:butt;stroke-linejoin:miter;stroke-miterlimit:4;stroke-opacity:1;stroke-dasharray:none"
       d="m -935,-162.63782 0,-15 120,0 0,120.000006 -15,0"
       id="path3622" />
    <path
       style="fill:none;stroke:#000000;stroke-width:1.5;stroke-linecap:butt;stroke-linejoin:miter;stroke-miterlimit:4;stroke-opacity:1;stroke-dasharray:none"
       d="M -919.64286,-177.28068 -920,-192.63782 l 120,0 0,120.000006 -15,0"
       id="path3624" />
    <path
       sodipodi:type="arc"
       style="fill:#ffffff;fill-opacity:1;stroke:#000000;stroke-width:3;stroke-linecap:butt;stroke-linejoin:round;stroke-miterlimit:4;stroke-opacity:1;stroke-dasharray:none;stroke-dashoffset:0"
       id="path3634"
       sodipodi:cx="-945"
       sodipodi:cy="77.362183"
       sodipodi:rx="25"
       sodipodi:ry="25"
       d="m -920,77.362183 c 0,13.807118 -11.19288,24.999997 -25,24.999997 -13.80712,0 -25,-11.192879 -25,-24.999997 0,-13.807119 11.19288,-25 25,-25 13.78859,0 24.97378,11.163981 24.99995,24.952547"
       sodipodi:start="0"
       sodipodi:end="6.2812872"
       sodipodi:open="true"
       transform="matrix(0.75049196,0,0,0.75049196,-180.55398,4.9091786)" />
    <path
       style="fill:none;stroke:#000000;stroke-width:2.81434488;stroke-linecap:butt;stroke-linejoin:miter;stroke-miterlimit:4;stroke-opacity:1;stroke-dasharray:none"
       d="M -897.27383,55.428345 -882,70.362183"
       id="path3636" />
    <path
       style="fill:none;stroke:#000000;stroke-width:2.81434488;stroke-linecap:butt;stroke-linejoin:miter;stroke-miterlimit:4;stroke-opacity:1;stroke-dasharray:none"
       d="m -882.3756,55.125289 -14.89823,15.312896"
       id="path3638" />
    <path
       style="fill:none;stroke:#000000;stroke-width:1;stroke-linecap:butt;stroke-linejoin:miter;stroke-miterlimit:4;stroke-opacity:1;stroke-dasharray:none;marker-end:url(#Arrow1Lend)"
       d="m -890,-42.637817 0,80"
       id="path3640"
       sodipodi:nodetypes="cc" />
    <path
       style="fill:none;stroke:#000000;stroke-width:1;stroke-linecap:butt;stroke-linejoin:miter;stroke-miterlimit:4;stroke-opacity:1;stroke-dasharray:none;marker-end:url(#Arrow1Lend)"
       d="m -660,12.362183 0,50 -205,0"
       id="path4274"
       sodipodi:nodetypes="ccc" />
    <path
       style="fill:#ffffff;fill-opacity:1;stroke:#000000;stroke-width:1.25;stroke-linecap:butt;stroke-linejoin:round;stroke-miterlimit:4;stroke-opacity:1;stroke-dasharray:none;stroke-dashoffset:0"
       d="m -700,172.36218 -360,0 m 360,40 -360,0 m 360,-40 0,40 m -40,-40 0,40 m -40,-40 0,40 m -40,-40 0,40 m -40,-40 0,40 m -40,-40 0,40 m -40,-40 0,40 m -40,-40 0,40 m -40,-40 0,40 m -40,-40 0,40"
       id="rect4460"
       inkscape:path-effect="#path-effect4463"
       inkscape:original-d="m -740,172.36218 40,0 0,40 -40,0 0,-40 z" />
    <path
       style="fill:none;stroke:#000000;stroke-width:1.25;stroke-linecap:butt;stroke-linejoin:miter;stroke-miterlimit:4;stroke-opacity:1;stroke-dasharray:none"
       d="m -1050,172.36218 0,-10 360,0 0,40 -10,0"
       id="path4465" />
    <path
       style="fill:none;stroke:#000000;stroke-width:1.25;stroke-linecap:butt;stroke-linejoin:miter;stroke-miterlimit:4;stroke-opacity:1;stroke-dasharray:none"
       d="m -1040,162.36218 0,-10 360,0 0,40 -10,0"
       id="path4467" />
    <path
       style="fill:none;stroke:#000000;stroke-width:1.5;stroke-linecap:butt;stroke-linejoin:miter;stroke-miterlimit:4;stroke-opacity:1;stroke-dasharray:none"
       d="m -895,-177.63782 0,15"
       id="path4469" />
    <path
       style="fill:none;stroke:#000000;stroke-width:1.5;stroke-linecap:butt;stroke-linejoin:miter;stroke-miterlimit:4;stroke-opacity:1;stroke-dasharray:none"
       d="m -855,-177.63782 0,15"
       id="path4471" />
    <path
       style="fill:none;stroke:#000000;stroke-width:1.5;stroke-linecap:butt;stroke-linejoin:miter;stroke-miterlimit:4;stroke-opacity:1;stroke-dasharray:none"
       d="m -830,-137.63782 15,0"
       id="path4473" />
    <path
       style="fill:none;stroke:#000000;stroke-width:1.5;stroke-linecap:butt;stroke-linejoin:miter;stroke-miterlimit:4;stroke-opacity:1;stroke-dasharray:none"
       d="m -830,-97.637817 15,0"
       id="path4475" />
    <path
       style="fill:none;stroke:#000000;stroke-width:1.5;stroke-linecap:butt;stroke-linejoin:miter;stroke-miterlimit:4;stroke-opacity:1;stroke-dasharray:none"
       d="m -880,-192.63782 0,15"
       id="path4479" />
    <path
       style="fill:none;stroke:#000000;stroke-width:1.5;stroke-linecap:butt;stroke-linejoin:miter;stroke-miterlimit:4;stroke-opacity:1;stroke-dasharray:none"
       d="m -840,-192.63782 0,15"
       id="path4481" />
    <path
       style="fill:none;stroke:#000000;stroke-width:1.5;stroke-linecap:butt;stroke-linejoin:miter;stroke-miterlimit:4;stroke-opacity:1;stroke-dasharray:none"
       d="m -815,-152.63782 15,0"
       id="path4483" />
    <path
       style="fill:none;stroke:#000000;stroke-width:1.5;stroke-linecap:butt;stroke-linejoin:miter;stroke-miterlimit:4;stroke-opacity:1;stroke-dasharray:none"
       d="m -815,-112.63782 15,0"
       id="path4485" />
    <path
       inkscape:original-d="m -640,-107.63783 40,0 0,40.000007 -40,0 0,-40.000007 z"
       inkscape:path-effect="#path-effect4509"
       id="path4487"
       d="m -600,-107.63783 -120,0 m 120,40.000007 -120,0 m 120,40.000007 -120,0 m 120,40.000007 -120,0 m 120,-120.000021 0,120.000021 m -40,-120.000021 0,120.000021 m -40,-120.000021 0,120.000021 m -40,-120.000021 0,120.000021"
       style="fill:#ffffff;fill-opacity:1;stroke:#000000;stroke-width:1.5;stroke-linecap:butt;stroke-linejoin:round;stroke-miterlimit:4;stroke-opacity:1;stroke-dasharray:none;stroke-dashoffset:0" />
    <path
       id="path4489"
       d="m -705,-107.63783 0,-15 120,0 0,120.0000092 -15,0"
       style="fill:none;stroke:#000000;stroke-width:1.5;stroke-linecap:butt;stroke-linejoin:miter;stroke-miterlimit:4;stroke-opacity:1;stroke-dasharray:none" />
    <path
       id="path4491"
       d="M -689.64286,-122.28069 -690,-137.63783 l 120,0 0,120.00001 -15,0"
       style="fill:none;stroke:#000000;stroke-width:1.5;stroke-linecap:butt;stroke-linejoin:miter;stroke-miterlimit:4;stroke-opacity:1;stroke-dasharray:none" />
    <path
       id="path4493"
       d="m -665,-122.63783 0,15"
       style="fill:none;stroke:#000000;stroke-width:1.5;stroke-linecap:butt;stroke-linejoin:miter;stroke-miterlimit:4;stroke-opacity:1;stroke-dasharray:none" />
    <path
       id="path4495"
       d="m -625,-122.63783 0,15"
       style="fill:none;stroke:#000000;stroke-width:1.5;stroke-linecap:butt;stroke-linejoin:miter;stroke-miterlimit:4;stroke-opacity:1;stroke-dasharray:none" />
    <path
       id="path4497"
       d="m -600,-82.637823 15,0"
       style="fill:none;stroke:#000000;stroke-width:1.5;stroke-linecap:butt;stroke-linejoin:miter;stroke-miterlimit:4;stroke-opacity:1;stroke-dasharray:none" />
    <path
       id="path4499"
       d="m -600,-42.637823 15,0"
       style="fill:none;stroke:#000000;stroke-width:1.5;stroke-linecap:butt;stroke-linejoin:miter;stroke-miterlimit:4;stroke-opacity:1;stroke-dasharray:none" />
    <path
       id="path4501"
       d="m -650,-137.63783 0,15"
       style="fill:none;stroke:#000000;stroke-width:1.5;stroke-linecap:butt;stroke-linejoin:miter;stroke-miterlimit:4;stroke-opacity:1;stroke-dasharray:none" />
    <path
       id="path4503"
       d="m -610,-137.63783 0,15"
       style="fill:none;stroke:#000000;stroke-width:1.5;stroke-linecap:butt;stroke-linejoin:miter;stroke-miterlimit:4;stroke-opacity:1;stroke-dasharray:none" />
    <path
       id="path4505"
       d="m -585,-97.637826 15,0"
       style="fill:none;stroke:#000000;stroke-width:1.5;stroke-linecap:butt;stroke-linejoin:miter;stroke-miterlimit:4;stroke-opacity:1;stroke-dasharray:none" />
    <path
       id="path4507"
       d="m -585,-57.637823 15,0"
       style="fill:none;stroke:#000000;stroke-width:1.5;stroke-linecap:butt;stroke-linejoin:miter;stroke-miterlimit:4;stroke-opacity:1;stroke-dasharray:none" />
    <path
       style="fill:none;stroke:#000000;stroke-width:1.25;stroke-linecap:butt;stroke-linejoin:miter;stroke-miterlimit:4;stroke-opacity:1;stroke-dasharray:none"
       d="m -1010,162.36218 0,10"
       id="path4511" />
    <path
       style="fill:none;stroke:#000000;stroke-width:1.25;stroke-linecap:butt;stroke-linejoin:miter;stroke-miterlimit:4;stroke-opacity:1;stroke-dasharray:none"
       d="m -970,162.36218 0,10"
       id="path4515" />
    <path
       style="fill:none;stroke:#000000;stroke-width:1.25;stroke-linecap:butt;stroke-linejoin:miter;stroke-miterlimit:4;stroke-opacity:1;stroke-dasharray:none"
       d="m -930,162.36218 0,10"
       id="path4517" />
    <path
       style="fill:none;stroke:#000000;stroke-width:1.25;stroke-linecap:butt;stroke-linejoin:miter;stroke-miterlimit:4;stroke-opacity:1;stroke-dasharray:none"
       d="m -890,162.36218 0,10"
       id="path4519" />
    <path
       style="fill:none;stroke:#000000;stroke-width:1.25;stroke-linecap:butt;stroke-linejoin:miter;stroke-miterlimit:4;stroke-opacity:1;stroke-dasharray:none"
       d="m -850,162.36218 0,10"
       id="path4521" />
    <path
       style="fill:none;stroke:#000000;stroke-width:1.25;stroke-linecap:butt;stroke-linejoin:miter;stroke-miterlimit:4;stroke-opacity:1;stroke-dasharray:none"
       d="m -810,162.36218 0,10"
       id="path4523" />
    <path
       style="fill:none;stroke:#000000;stroke-width:1.25;stroke-linecap:butt;stroke-linejoin:miter;stroke-miterlimit:4;stroke-opacity:1;stroke-dasharray:none"
       d="m -770,162.36218 0,10"
       id="path4525" />
    <path
       style="fill:none;stroke:#000000;stroke-width:1.25;stroke-linecap:butt;stroke-linejoin:miter;stroke-miterlimit:4;stroke-opacity:1;stroke-dasharray:none"
       d="M -729.83521,162.92287 -730,172.36218"
       id="path4527" />
    <path
       style="fill:none;stroke:#000000;stroke-width:1.25;stroke-linecap:butt;stroke-linejoin:miter;stroke-miterlimit:4;stroke-opacity:1;stroke-dasharray:none"
       d="m -720,152.36218 0,10"
       id="path4529" />
    <path
       style="fill:none;stroke:#000000;stroke-width:1.25;stroke-linecap:butt;stroke-linejoin:miter;stroke-miterlimit:4;stroke-opacity:1;stroke-dasharray:none"
       d="m -760,152.36218 0,10"
       id="path4531" />
    <path
       style="fill:none;stroke:#000000;stroke-width:1.25;stroke-linecap:butt;stroke-linejoin:miter;stroke-miterlimit:4;stroke-opacity:1;stroke-dasharray:none"
       d="m -800,152.36218 0,10"
       id="path4533" />
    <path
       style="fill:none;stroke:#000000;stroke-width:1.25;stroke-linecap:butt;stroke-linejoin:miter;stroke-miterlimit:4;stroke-opacity:1;stroke-dasharray:none"
       d="m -840,152.36218 0,10"
       id="path4535" />
    <path
       style="fill:none;stroke:#000000;stroke-width:1.25;stroke-linecap:butt;stroke-linejoin:miter;stroke-miterlimit:4;stroke-opacity:1;stroke-dasharray:none"
       d="m -880,152.36218 0,10"
       id="path4539" />
    <path
       style="fill:none;stroke:#000000;stroke-width:1.25;stroke-linecap:butt;stroke-linejoin:miter;stroke-miterlimit:4;stroke-opacity:1;stroke-dasharray:none"
       d="m -920,152.36218 0,10"
       id="path4541" />
    <path
       style="fill:none;stroke:#000000;stroke-width:1.25;stroke-linecap:butt;stroke-linejoin:miter;stroke-miterlimit:4;stroke-opacity:1;stroke-dasharray:none"
       d="m -960,152.36218 0,10"
       id="path4543" />
    <path
       style="fill:none;stroke:#000000;stroke-width:1.25;stroke-linecap:butt;stroke-linejoin:miter;stroke-miterlimit:4;stroke-opacity:1;stroke-dasharray:none"
       d="m -1000,152.36218 0,10"
       id="path4545" />
    <path
       style="fill:none;stroke:#000000;stroke-width:1;stroke-linecap:butt;stroke-linejoin:miter;stroke-miterlimit:4;stroke-opacity:1;stroke-dasharray:none;marker-end:url(#Arrow1Lend)"
       d="m -890,87.362183 0,59.999997"
       id="path4547"
       sodipodi:nodetypes="cc" />
    <path
       transform="matrix(0.75049196,0,0,0.75049196,-313.55398,206.90918)"
       sodipodi:open="true"
       sodipodi:end="6.2812872"
       sodipodi:start="0"
       d="m -920,77.362183 c 0,13.807118 -11.19288,24.999997 -25,24.999997 -13.80712,0 -25,-11.192879 -25,-24.999997 0,-13.807119 11.19288,-25 25,-25 13.78859,0 24.97378,11.163981 24.99995,24.952547"
       sodipodi:ry="25"
       sodipodi:rx="25"
       sodipodi:cy="77.362183"
       sodipodi:cx="-945"
       id="path4739"
       style="fill:#ffffff;fill-opacity:1;stroke:#000000;stroke-width:3;stroke-linecap:butt;stroke-linejoin:round;stroke-miterlimit:4;stroke-opacity:1;stroke-dasharray:none;stroke-dashoffset:0"
       sodipodi:type="arc" />
    <path
       id="path4741"
       d="m -1022.7175,254.21487 0.1612,21.36078"
       style="fill:none;stroke:#000000;stroke-width:2.81434488;stroke-linecap:butt;stroke-linejoin:miter;stroke-miterlimit:4;stroke-opacity:1;stroke-dasharray:none" />
    <path
       id="path4743"
       d="m -1012.1425,264.79769 -21.3644,-0.0319"
       style="fill:none;stroke:#000000;stroke-width:2.81434488;stroke-linecap:butt;stroke-linejoin:miter;stroke-miterlimit:4;stroke-opacity:1;stroke-dasharray:none" />
    <path
       style="fill:none;stroke:#000000;stroke-width:1px;stroke-linecap:butt;stroke-linejoin:miter;stroke-opacity:1;marker-end:url(#Arrow1Lend)"
       d="m -1050,212.36218 15,35"
       id="path4745" />
    <path
       style="fill:none;stroke:#000000;stroke-width:1px;stroke-linecap:butt;stroke-linejoin:miter;stroke-opacity:1;marker-end:url(#Arrow1Lend)"
       d="m -990,212.36218 -20,35"
       id="path4747" />
    <path
       sodipodi:type="arc"
       style="fill:#ffffff;fill-opacity:1;stroke:#000000;stroke-width:3;stroke-linecap:butt;stroke-linejoin:round;stroke-miterlimit:4;stroke-opacity:1;stroke-dasharray:none;stroke-dashoffset:0"
       id="path4933"
       sodipodi:cx="-945"
       sodipodi:cy="77.362183"
       sodipodi:rx="25"
       sodipodi:ry="25"
       d="m -920,77.362183 c 0,13.807118 -11.19288,24.999997 -25,24.999997 -13.80712,0 -25,-11.192879 -25,-24.999997 0,-13.807119 11.19288,-25 25,-25 13.78859,0 24.97378,11.163981 24.99995,24.952547"
       sodipodi:start="0"
       sodipodi:end="6.2812872"
       sodipodi:open="true"
       transform="matrix(0.75049196,0,0,0.75049196,-233.55398,206.90918)" />
    <path
       style="fill:none;stroke:#000000;stroke-width:2.81434488;stroke-linecap:butt;stroke-linejoin:miter;stroke-miterlimit:4;stroke-opacity:1;stroke-dasharray:none"
       d="m -942.7175,254.21487 0.1612,21.36078"
       id="path4935" />
    <path
       style="fill:none;stroke:#000000;stroke-width:2.81434488;stroke-linecap:butt;stroke-linejoin:miter;stroke-miterlimit:4;stroke-opacity:1;stroke-dasharray:none"
       d="m -932.1425,264.79769 -21.3644,-0.0319"
       id="path4937" />
    <path
       id="path4939"
       d="m -970,212.36218 15,35"
       style="fill:none;stroke:#000000;stroke-width:1px;stroke-linecap:butt;stroke-linejoin:miter;stroke-opacity:1;marker-end:url(#Arrow1Lend)" />
    <path
       id="path4941"
       d="m -910,212.36218 -20,35"
       style="fill:none;stroke:#000000;stroke-width:1px;stroke-linecap:butt;stroke-linejoin:miter;stroke-opacity:1;marker-end:url(#Arrow1Lend)" />
    <path
       transform="matrix(0.75049196,0,0,0.75049196,-153.55398,206.90918)"
       sodipodi:open="true"
       sodipodi:end="6.2812872"
       sodipodi:start="0"
       d="m -920,77.362183 c 0,13.807118 -11.19288,24.999997 -25,24.999997 -13.80712,0 -25,-11.192879 -25,-24.999997 0,-13.807119 11.19288,-25 25,-25 13.78859,0 24.97378,11.163981 24.99995,24.952547"
       sodipodi:ry="25"
       sodipodi:rx="25"
       sodipodi:cy="77.362183"
       sodipodi:cx="-945"
       id="path4943"
       style="fill:#ffffff;fill-opacity:1;stroke:#000000;stroke-width:3;stroke-linecap:butt;stroke-linejoin:round;stroke-miterlimit:4;stroke-opacity:1;stroke-dasharray:none;stroke-dashoffset:0"
       sodipodi:type="arc" />
    <path
       id="path4945"
       d="m -862.7175,254.21487 0.1612,21.36078"
       style="fill:none;stroke:#000000;stroke-width:2.81434488;stroke-linecap:butt;stroke-linejoin:miter;stroke-miterlimit:4;stroke-opacity:1;stroke-dasharray:none" />
    <path
       id="path4947"
       d="m -852.1425,264.79769 -21.3644,-0.0319"
       style="fill:none;stroke:#000000;stroke-width:2.81434488;stroke-linecap:butt;stroke-linejoin:miter;stroke-miterlimit:4;stroke-opacity:1;stroke-dasharray:none" />
    <path
       style="fill:none;stroke:#000000;stroke-width:1px;stroke-linecap:butt;stroke-linejoin:miter;stroke-opacity:1;marker-end:url(#Arrow1Lend)"
       d="m -890,212.36218 15,35"
       id="path4949" />
    <path
       style="fill:none;stroke:#000000;stroke-width:1px;stroke-linecap:butt;stroke-linejoin:miter;stroke-opacity:1;marker-end:url(#Arrow1Lend)"
       d="m -830,212.36218 -20,35"
       id="path4951" />
    <path
       sodipodi:type="arc"
       style="fill:#ffffff;fill-opacity:1;stroke:#000000;stroke-width:3;stroke-linecap:butt;stroke-linejoin:round;stroke-miterlimit:4;stroke-opacity:1;stroke-dasharray:none;stroke-dashoffset:0"
       id="path4953"
       sodipodi:cx="-945"
       sodipodi:cy="77.362183"
       sodipodi:rx="25"
       sodipodi:ry="25"
       d="m -920,77.362183 c 0,13.807118 -11.19288,24.999997 -25,24.999997 -13.80712,0 -25,-11.192879 -25,-24.999997 0,-13.807119 11.19288,-25 25,-25 13.78859,0 24.97378,11.163981 24.99995,24.952547"
       sodipodi:start="0"
       sodipodi:end="6.2812872"
       sodipodi:open="true"
       transform="matrix(0.75049196,0,0,0.75049196,-73.55398,206.90918)" />
    <path
       style="fill:none;stroke:#000000;stroke-width:2.81434488;stroke-linecap:butt;stroke-linejoin:miter;stroke-miterlimit:4;stroke-opacity:1;stroke-dasharray:none"
       d="m -782.7175,254.21487 0.1612,21.36078"
       id="path4955" />
    <path
       style="fill:none;stroke:#000000;stroke-width:2.81434488;stroke-linecap:butt;stroke-linejoin:miter;stroke-miterlimit:4;stroke-opacity:1;stroke-dasharray:none"
       d="m -772.1425,264.79769 -21.3644,-0.0319"
       id="path4957" />
    <path
       id="path4959"
       d="m -810,212.36218 15,35"
       style="fill:none;stroke:#000000;stroke-width:1px;stroke-linecap:butt;stroke-linejoin:miter;stroke-opacity:1;marker-end:url(#Arrow1Lend)" />
    <path
       id="path4961"
       d="m -750,212.36218 -20,35"
       style="fill:none;stroke:#000000;stroke-width:1px;stroke-linecap:butt;stroke-linejoin:miter;stroke-opacity:1;marker-end:url(#Arrow1Lend)" />
    <path
       transform="matrix(0.75049196,0,0,0.75049196,-255.7851,283.06479)"
       sodipodi:open="true"
       sodipodi:end="6.2812872"
       sodipodi:start="0"
       d="m -920,77.362183 c 0,13.807118 -11.19288,24.999997 -25,24.999997 -13.80712,0 -25,-11.192879 -25,-24.999997 0,-13.807119 11.19288,-25 25,-25 13.78859,0 24.97378,11.163981 24.99995,24.952547"
       sodipodi:ry="25"
       sodipodi:rx="25"
       sodipodi:cy="77.362183"
       sodipodi:cx="-945"
       id="path4963"
       style="fill:#ffffff;fill-opacity:1;stroke:#000000;stroke-width:3;stroke-linecap:butt;stroke-linejoin:round;stroke-miterlimit:4;stroke-opacity:1;stroke-dasharray:none;stroke-dashoffset:0"
       sodipodi:type="arc" />
    <path
       id="path4965"
       d="m -964.94862,330.37048 0.1612,21.36078"
       style="fill:none;stroke:#000000;stroke-width:2.81434488;stroke-linecap:butt;stroke-linejoin:miter;stroke-miterlimit:4;stroke-opacity:1;stroke-dasharray:none" />
    <path
       id="path4967"
       d="m -954.37362,340.9533 -21.3644,-0.0319"
       style="fill:none;stroke:#000000;stroke-width:2.81434488;stroke-linecap:butt;stroke-linejoin:miter;stroke-miterlimit:4;stroke-opacity:1;stroke-dasharray:none" />
    <path
       style="fill:none;stroke:#000000;stroke-width:1px;stroke-linecap:butt;stroke-linejoin:miter;stroke-opacity:1;marker-end:url(#Arrow1Lend)"
       d="m -1015,282.36218 37.76888,41.15561"
       id="path4969"
       sodipodi:nodetypes="cc" />
    <path
       style="fill:none;stroke:#000000;stroke-width:1px;stroke-linecap:butt;stroke-linejoin:miter;stroke-opacity:1;marker-end:url(#Arrow1Lend)"
       d="m -950,283.36218 -10,37"
       id="path4971"
       sodipodi:nodetypes="cc" />
    <path
       sodipodi:type="arc"
       style="fill:#ffffff;fill-opacity:1;stroke:#000000;stroke-width:3;stroke-linecap:butt;stroke-linejoin:round;stroke-miterlimit:4;stroke-opacity:1;stroke-dasharray:none;stroke-dashoffset:0"
       id="path4973"
       sodipodi:cx="-945"
       sodipodi:cy="77.362183"
       sodipodi:rx="25"
       sodipodi:ry="25"
       d="m -920,77.362183 c 0,13.807118 -11.19288,24.999997 -25,24.999997 -13.80712,0 -25,-11.192879 -25,-24.999997 0,-13.807119 11.19288,-25 25,-25 13.78859,0 24.97378,11.163981 24.99995,24.952547"
       sodipodi:start="0"
       sodipodi:end="6.2812872"
       sodipodi:open="true"
       transform="matrix(0.75049196,0,0,0.75049196,-119.54736,279.3381)" />
    <path
       style="fill:none;stroke:#000000;stroke-width:2.81434488;stroke-linecap:butt;stroke-linejoin:miter;stroke-miterlimit:4;stroke-opacity:1;stroke-dasharray:none"
       d="m -828.71088,326.64379 0.1612,21.36078"
       id="path4975" />
    <path
       style="fill:none;stroke:#000000;stroke-width:2.81434488;stroke-linecap:butt;stroke-linejoin:miter;stroke-miterlimit:4;stroke-opacity:1;stroke-dasharray:none"
       d="m -818.13588,337.22661 -21.3644,-0.0319"
       id="path4977" />
    <path
       id="path4979"
       d="m -856,283.36218 15.00662,36.42892"
       style="fill:none;stroke:#000000;stroke-width:1px;stroke-linecap:butt;stroke-linejoin:miter;stroke-opacity:1;marker-end:url(#Arrow1Lend)"
       sodipodi:nodetypes="cc" />
    <path
       id="path4981"
       d="m -795.99338,284.7911 -20,35"
       style="fill:none;stroke:#000000;stroke-width:1px;stroke-linecap:butt;stroke-linejoin:miter;stroke-opacity:1;marker-end:url(#Arrow1Lend)" />
    <path
       sodipodi:type="arc"
       style="fill:#ffffff;fill-opacity:1;stroke:#000000;stroke-width:3;stroke-linecap:butt;stroke-linejoin:round;stroke-miterlimit:4;stroke-opacity:1;stroke-dasharray:none;stroke-dashoffset:0"
       id="path5017"
       sodipodi:cx="-945"
       sodipodi:cy="77.362183"
       sodipodi:rx="25"
       sodipodi:ry="25"
       d="m -920,77.362183 c 0,13.807118 -11.19288,24.999997 -25,24.999997 -13.80712,0 -25,-11.192879 -25,-24.999997 0,-13.807119 11.19288,-25 25,-25 13.78859,0 24.97378,11.163981 24.99995,24.952547"
       sodipodi:start="0"
       sodipodi:end="6.2812872"
       sodipodi:open="true"
       transform="matrix(0.75049196,0,0,0.75049196,-160.83648,355.05649)" />
    <path
       style="fill:none;stroke:#000000;stroke-width:2.81434488;stroke-linecap:butt;stroke-linejoin:miter;stroke-miterlimit:4;stroke-opacity:1;stroke-dasharray:none"
       d="m -870,402.36218 0.1612,21.36078"
       id="path5019" />
    <path
       style="fill:none;stroke:#000000;stroke-width:2.81434488;stroke-linecap:butt;stroke-linejoin:miter;stroke-miterlimit:4;stroke-opacity:1;stroke-dasharray:none"
       d="m -859.425,412.945 -21.3644,-0.0319"
       id="path5021" />
    <path
       sodipodi:nodetypes="cc"
       id="path5023"
       d="m -952,356.36218 69.7175,39.14731"
       style="fill:none;stroke:#000000;stroke-width:1px;stroke-linecap:butt;stroke-linejoin:miter;stroke-opacity:1;marker-end:url(#Arrow1Lend)" />
    <path
       sodipodi:nodetypes="cc"
       id="path5025"
       d="m -837,355.36218 -20.2825,40.14731"
       style="fill:none;stroke:#000000;stroke-width:1px;stroke-linecap:butt;stroke-linejoin:miter;stroke-opacity:1;marker-end:url(#Arrow1Lend)" />
    <path
       transform="matrix(0.75049196,0,0,0.75049196,-86.41148,409.47367)"
       sodipodi:open="true"
       sodipodi:end="6.2812872"
       sodipodi:start="0"
       d="m -920,77.362183 c 0,13.807118 -11.19288,24.999997 -25,24.999997 -13.80712,0 -25,-11.192879 -25,-24.999997 0,-13.807119 11.19288,-25 25,-25 13.78859,0 24.97378,11.163981 24.99995,24.952547"
       sodipodi:ry="25"
       sodipodi:rx="25"
       sodipodi:cy="77.362183"
       sodipodi:cx="-945"
       id="path5029"
       style="fill:#ffffff;fill-opacity:1;stroke:#000000;stroke-width:3;stroke-linecap:butt;stroke-linejoin:round;stroke-miterlimit:4;stroke-opacity:1;stroke-dasharray:none;stroke-dashoffset:0"
       sodipodi:type="arc" />
    <path
       id="path5031"
       d="m -795.575,456.77936 0.1612,21.36078"
       style="fill:none;stroke:#000000;stroke-width:2.81434488;stroke-linecap:butt;stroke-linejoin:miter;stroke-miterlimit:4;stroke-opacity:1;stroke-dasharray:none" />
    <path
       id="path5033"
       d="m -785,467.36218 -21.3644,-0.0319"
       style="fill:none;stroke:#000000;stroke-width:2.81434488;stroke-linecap:butt;stroke-linejoin:miter;stroke-miterlimit:4;stroke-opacity:1;stroke-dasharray:none" />
    <path
       style="fill:none;stroke:#000000;stroke-width:1px;stroke-linecap:butt;stroke-linejoin:miter;stroke-opacity:1;marker-end:url(#Arrow1Lend)"
       d="m -854,425.36218 46.1425,24.56449"
       id="path5035"
       sodipodi:nodetypes="cc" />
    <path
       style="fill:none;stroke:#000000;stroke-width:1px;stroke-linecap:butt;stroke-linejoin:miter;stroke-opacity:1;marker-end:url(#Arrow1Lend)"
       d="m -720,212.36218 -62.8575,237.56449"
       id="path5037"
       sodipodi:nodetypes="cc" />
    <path
       style="fill:none;stroke:#000000;stroke-width:1.25;stroke-linecap:butt;stroke-linejoin:miter;stroke-miterlimit:4;stroke-opacity:1;stroke-dasharray:none;marker-end:url(#Arrow1Lend)"
       d="m -795,487.36218 0,60"
       id="path5041"
       sodipodi:nodetypes="cc" />
    <rect
       style="fill:#ffffff;fill-opacity:1;stroke:#000000;stroke-width:1.25;stroke-linecap:butt;stroke-linejoin:round;stroke-miterlimit:4;stroke-opacity:1;stroke-dasharray:none;stroke-dashoffset:0"
       id="rect5227"
       width="40"
       height="40"
       x="-820"
       y="562.36218" />
    <path
       style="fill:none;stroke:#000000;stroke-width:1px;stroke-linecap:butt;stroke-linejoin:miter;stroke-opacity:1"
       d="m -815,562.36218 0,-5 40,0 0,40 -5,0"
       id="path5231" />
    <path
       style="fill:none;stroke:#000000;stroke-width:1px;stroke-linecap:butt;stroke-linejoin:miter;stroke-opacity:1"
       d="m -810,557.36218 0,-5 40,0 0,40 -4,0"
       id="path5233" />
    <text
       xml:space="preserve"
       style="font-size:32px;font-style:normal;font-weight:normal;fill:#000000;fill-opacity:1;stroke:none;font-family:Bitstream Vera Sans"
       x="-1048"
       y="-96.637817"
       id="text5235"><tspan
         sodipodi:role="line"
         id="tspan5237"
         x="-1048"
         y="-96.637817">pacth</tspan></text>
    <text
       xml:space="preserve"
       style="font-size:32px;font-style:normal;font-weight:normal;fill:#000000;fill-opacity:1;stroke:none;font-family:Bitstream Vera Sans"
       x="-560"
       y="-68.637817"
       id="text5239"><tspan
         sodipodi:role="line"
         id="tspan5241"
         x="-560"
         y="-68.637817">Filter</tspan></text>
    <text
       xml:space="preserve"
       style="font-size:26.94261932px;font-style:normal;font-weight:normal;fill:#000000;fill-opacity:1;stroke:none;font-family:Bitstream Vera Sans"
       x="-747.39038"
       y="580.9679"
       id="text5243"><tspan
         sodipodi:role="line"
         id="tspan5245"
         x="-747.39038"
         y="580.9679">out_pixel</tspan></text>
  </g>
</svg>
