<?xml version="1.0" encoding="UTF-8" standalone="no"?>
<!-- Created with Inkscape (http://www.inkscape.org/) -->

<svg
   xmlns:dc="http://purl.org/dc/elements/1.1/"
   xmlns:cc="http://creativecommons.org/ns#"
   xmlns:rdf="http://www.w3.org/1999/02/22-rdf-syntax-ns#"
   xmlns:svg="http://www.w3.org/2000/svg"
   xmlns="http://www.w3.org/2000/svg"
   xmlns:sodipodi="http://sodipodi.sourceforge.net/DTD/sodipodi-0.dtd"
   xmlns:inkscape="http://www.inkscape.org/namespaces/inkscape"
   width="1338.8586"
   height="1006.1505"
   id="svg2"
   version="1.1"
   inkscape:version="0.47 r22583"
   sodipodi:docname="juyoya_LATENCY.pdf">
  <defs
     id="defs4">
    <inkscape:path-effect
       effect="construct_grid"
       id="path-effect3623"
       is_visible="true"
       nr_x="1"
       nr_y="13" />
    <inkscape:path-effect
       nr_y="30"
       nr_x="1"
       is_visible="true"
       id="path-effect3619"
       effect="construct_grid" />
    <inkscape:path-effect
       effect="construct_grid"
       id="path-effect3615"
       is_visible="true"
       nr_x="1"
       nr_y="29" />
    <inkscape:path-effect
       nr_y="30"
       nr_x="1"
       is_visible="true"
       id="path-effect3611"
       effect="construct_grid" />
    <inkscape:path-effect
       effect="construct_grid"
       id="path-effect3607"
       is_visible="true"
       nr_x="1"
       nr_y="30" />
    <inkscape:path-effect
       nr_y="30"
       nr_x="1"
       is_visible="true"
       id="path-effect3603"
       effect="construct_grid" />
    <inkscape:path-effect
       effect="construct_grid"
       id="path-effect3599"
       is_visible="true"
       nr_x="1"
       nr_y="24" />
    <inkscape:perspective
       sodipodi:type="inkscape:persp3d"
       inkscape:vp_x="0 : 526.18109 : 1"
       inkscape:vp_y="0 : 1000 : 0"
       inkscape:vp_z="744.09448 : 526.18109 : 1"
       inkscape:persp3d-origin="372.04724 : 350.78739 : 1"
       id="perspective10" />
  </defs>
  <sodipodi:namedview
     id="base"
     pagecolor="#ffffff"
     bordercolor="#666666"
     borderopacity="1.0"
     inkscape:pageopacity="0.0"
     inkscape:pageshadow="2"
     inkscape:zoom="0.35"
     inkscape:cx="43.757894"
     inkscape:cy="578.9042"
     inkscape:document-units="px"
     inkscape:current-layer="layer1"
     showgrid="true"
     inkscape:window-width="1920"
     inkscape:window-height="1003"
     inkscape:window-x="0"
     inkscape:window-y="25"
     inkscape:window-maximized="1">
    <inkscape:grid
       type="xygrid"
       id="grid2816"
       empspacing="5"
       visible="true"
       enabled="true"
       snapvisiblegridlinesonly="true" />
  </sodipodi:namedview>
  <metadata
     id="metadata7">
    <rdf:RDF>
      <cc:Work
         rdf:about="">
        <dc:format>image/svg+xml</dc:format>
        <dc:type
           rdf:resource="http://purl.org/dc/dcmitype/StillImage" />
        <dc:title></dc:title>
      </cc:Work>
    </rdf:RDF>
  </metadata>
  <g
     inkscape:label="レイヤー 1"
     inkscape:groupmode="layer"
     id="layer1"
     transform="translate(1216.8587,317.00577)">
    <rect
       style="fill:none;stroke:#000000;stroke-width:2.81087041;stroke-linecap:butt;stroke-linejoin:round;stroke-miterlimit:4;stroke-opacity:1;stroke-dasharray:none;stroke-dashoffset:0"
       id="rect2818"
       width="1200"
       height="865.28253"
       x="-1080"
       y="-177.63782" />
    <rect
       style="fill:none;stroke:#000000;stroke-width:2.72580647;stroke-linecap:butt;stroke-linejoin:round;stroke-miterlimit:4;stroke-opacity:1;stroke-dasharray:none;stroke-dashoffset:0"
       id="rect3594"
       width="520"
       height="520"
       x="-1080"
       y="-177.63782" />
    <path
       style="fill:#ff0000;fill-opacity:0.47686833;stroke:#000000;stroke-width:3;stroke-linecap:butt;stroke-linejoin:round;stroke-miterlimit:4;stroke-opacity:1;stroke-dasharray:none;stroke-dashoffset:0"
       d="m 120,62.362195 -960,0 m 960,39.999995 -960,0 m 960,-39.999995 0,39.999995 M 80,62.362195 80,102.36219 M 40,62.362195 40,102.36219 M 0,62.362195 0,102.36219 m -40,-39.999995 0,39.999995 m -40,-39.999995 0,39.999995 m -40,-39.999995 0,39.999995 m -40,-39.999995 0,39.999995 m -40,-39.999995 0,39.999995 m -40,-39.999995 0,39.999995 m -40,-39.999995 0,39.999995 m -40,-39.999995 0,39.999995 m -40,-39.999995 0,39.999995 m -40,-39.999995 0,39.999995 m -40,-39.999995 0,39.999995 m -40,-39.999995 0,39.999995 m -40,-39.999995 0,39.999995 m -40,-39.999995 0,39.999995 m -40,-39.999995 0,39.999995 m -40,-39.999995 0,39.999995 m -40,-39.999995 0,39.999995 m -40,-39.999995 0,39.999995 m -40,-39.999995 0,39.999995 m -40,-39.999995 0,39.999995 m -40,-39.999995 0,39.999995"
       id="rect3596"
       inkscape:path-effect="#path-effect3599"
       inkscape:original-d="m 80,62.362195 40,0 0,39.999995 -40,0 0,-39.999995 z" />
    <path
       inkscape:original-d="m 80,102.36219 40,0 0,39.99999 -40,0 0,-39.99999 z"
       inkscape:path-effect="#path-effect3603"
       id="path3601"
       d="m 120,102.36219 -1200,0 m 1200,39.99999 -1200,0 m 1200,-39.99999 0,39.99999 m -40,-39.99999 0,39.99999 m -40,-39.99999 0,39.99999 M 0,102.36219 0,142.36218 m -40,-39.99999 0,39.99999 m -40,-39.99999 0,39.99999 m -40,-39.99999 0,39.99999 m -40,-39.99999 0,39.99999 m -40,-39.99999 0,39.99999 m -40,-39.99999 0,39.99999 m -40,-39.99999 0,39.99999 m -40,-39.99999 0,39.99999 m -40,-39.99999 0,39.99999 m -40,-39.99999 0,39.99999 m -40,-39.99999 0,39.99999 m -40,-39.99999 0,39.99999 m -40,-39.99999 0,39.99999 m -40,-39.99999 0,39.99999 m -40,-39.99999 0,39.99999 m -40,-39.99999 0,39.99999 m -40,-39.99999 0,39.99999 m -40,-39.99999 0,39.99999 m -40,-39.99999 0,39.99999 m -40,-39.99999 0,39.99999 m -40,-39.99999 0,39.99999 m -40,-39.99999 0,39.99999 m -40,-39.99999 0,39.99999 m -40,-39.99999 0,39.99999 m -40,-39.99999 0,39.99999 m -40,-39.99999 0,39.99999 m -40,-39.99999 0,39.99999"
       style="fill:#ff0000;fill-opacity:0.47686833;stroke:#000000;stroke-width:3;stroke-linecap:butt;stroke-linejoin:round;stroke-miterlimit:4;stroke-opacity:1;stroke-dasharray:none;stroke-dashoffset:0" />
    <path
       style="fill:#ff0000;fill-opacity:0.47686833;stroke:#000000;stroke-width:3;stroke-linecap:butt;stroke-linejoin:round;stroke-miterlimit:4;stroke-opacity:1;stroke-dasharray:none;stroke-dashoffset:0"
       d="m 120,142.36219 -1200,0 m 1200,39.99999 -1200,0 m 1200,-39.99999 0,39.99999 m -40,-39.99999 0,39.99999 m -40,-39.99999 0,39.99999 M 0,142.36219 0,182.36218 m -40,-39.99999 0,39.99999 m -40,-39.99999 0,39.99999 m -40,-39.99999 0,39.99999 m -40,-39.99999 0,39.99999 m -40,-39.99999 0,39.99999 m -40,-39.99999 0,39.99999 m -40,-39.99999 0,39.99999 m -40,-39.99999 0,39.99999 m -40,-39.99999 0,39.99999 m -40,-39.99999 0,39.99999 m -40,-39.99999 0,39.99999 m -40,-39.99999 0,39.99999 m -40,-39.99999 0,39.99999 m -40,-39.99999 0,39.99999 m -40,-39.99999 0,39.99999 m -40,-39.99999 0,39.99999 m -40,-39.99999 0,39.99999 m -40,-39.99999 0,39.99999 m -40,-39.99999 0,39.99999 m -40,-39.99999 0,39.99999 m -40,-39.99999 0,39.99999 m -40,-39.99999 0,39.99999 m -40,-39.99999 0,39.99999 m -40,-39.99999 0,39.99999 m -40,-39.99999 0,39.99999 m -40,-39.99999 0,39.99999 m -40,-39.99999 0,39.99999"
       id="path3605"
       inkscape:path-effect="#path-effect3607"
       inkscape:original-d="m 80,142.36219 40,0 0,39.99999 -40,0 0,-39.99999 z" />
    <path
       inkscape:original-d="m 80,182.36219 40,0 0,39.99999 -40,0 0,-39.99999 z"
       inkscape:path-effect="#path-effect3611"
       id="path3609"
       d="m 120,182.36219 -1200,0 m 1200,39.99999 -1200,0 m 1200,-39.99999 0,39.99999 m -40,-39.99999 0,39.99999 m -40,-39.99999 0,39.99999 M 0,182.36219 0,222.36218 m -40,-39.99999 0,39.99999 m -40,-39.99999 0,39.99999 m -40,-39.99999 0,39.99999 m -40,-39.99999 0,39.99999 m -40,-39.99999 0,39.99999 m -40,-39.99999 0,39.99999 m -40,-39.99999 0,39.99999 m -40,-39.99999 0,39.99999 m -40,-39.99999 0,39.99999 m -40,-39.99999 0,39.99999 m -40,-39.99999 0,39.99999 m -40,-39.99999 0,39.99999 m -40,-39.99999 0,39.99999 m -40,-39.99999 0,39.99999 m -40,-39.99999 0,39.99999 m -40,-39.99999 0,39.99999 m -40,-39.99999 0,39.99999 m -40,-39.99999 0,39.99999 m -40,-39.99999 0,39.99999 m -40,-39.99999 0,39.99999 m -40,-39.99999 0,39.99999 m -40,-39.99999 0,39.99999 m -40,-39.99999 0,39.99999 m -40,-39.99999 0,39.99999 m -40,-39.99999 0,39.99999 m -40,-39.99999 0,39.99999 m -40,-39.99999 0,39.99999"
       style="fill:#ff0000;fill-opacity:0.47686833;stroke:#000000;stroke-width:3;stroke-linecap:butt;stroke-linejoin:round;stroke-miterlimit:4;stroke-opacity:1;stroke-dasharray:none;stroke-dashoffset:0" />
    <path
       style="fill:#ff0000;fill-opacity:0.47686833;stroke:#000000;stroke-width:3;stroke-linecap:butt;stroke-linejoin:round;stroke-miterlimit:4;stroke-opacity:1;stroke-dasharray:none;stroke-dashoffset:0"
       d="m 120,222.36219 -1160,0 m 1160,39.99999 -1160,0 m 1160,-39.99999 0,39.99999 m -40,-39.99999 0,39.99999 m -40,-39.99999 0,39.99999 M 0,222.36219 0,262.36218 m -40,-39.99999 0,39.99999 m -40,-39.99999 0,39.99999 m -40,-39.99999 0,39.99999 m -40,-39.99999 0,39.99999 m -40,-39.99999 0,39.99999 m -40,-39.99999 0,39.99999 m -40,-39.99999 0,39.99999 m -40,-39.99999 0,39.99999 m -40,-39.99999 0,39.99999 m -40,-39.99999 0,39.99999 m -40,-39.99999 0,39.99999 m -40,-39.99999 0,39.99999 m -40,-39.99999 0,39.99999 m -40,-39.99999 0,39.99999 m -40,-39.99999 0,39.99999 m -40,-39.99999 0,39.99999 m -40,-39.99999 0,39.99999 m -40,-39.99999 0,39.99999 m -40,-39.99999 0,39.99999 m -40,-39.99999 0,39.99999 m -40,-39.99999 0,39.99999 m -40,-39.99999 0,39.99999 m -40,-39.99999 0,39.99999 m -40,-39.99999 0,39.99999 m -40,-39.99999 0,39.99999 m -40,-39.99999 0,39.99999"
       id="path3613"
       inkscape:path-effect="#path-effect3615"
       inkscape:original-d="m 80,222.36219 40,0 0,39.99999 -40,0 0,-39.99999 z" />
    <path
       inkscape:original-d="m 80,262.36219 40,0 0,39.99999 -40,0 0,-39.99999 z"
       inkscape:path-effect="#path-effect3619"
       id="path3617"
       d="m 120,262.36219 -1200,0 m 1200,39.99999 -1200,0 m 1200,-39.99999 0,39.99999 m -40,-39.99999 0,39.99999 m -40,-39.99999 0,39.99999 M 0,262.36219 0,302.36218 m -40,-39.99999 0,39.99999 m -40,-39.99999 0,39.99999 m -40,-39.99999 0,39.99999 m -40,-39.99999 0,39.99999 m -40,-39.99999 0,39.99999 m -40,-39.99999 0,39.99999 m -40,-39.99999 0,39.99999 m -40,-39.99999 0,39.99999 m -40,-39.99999 0,39.99999 m -40,-39.99999 0,39.99999 m -40,-39.99999 0,39.99999 m -40,-39.99999 0,39.99999 m -40,-39.99999 0,39.99999 m -40,-39.99999 0,39.99999 m -40,-39.99999 0,39.99999 m -40,-39.99999 0,39.99999 m -40,-39.99999 0,39.99999 m -40,-39.99999 0,39.99999 m -40,-39.99999 0,39.99999 m -40,-39.99999 0,39.99999 m -40,-39.99999 0,39.99999 m -40,-39.99999 0,39.99999 m -40,-39.99999 0,39.99999 m -40,-39.99999 0,39.99999 m -40,-39.99999 0,39.99999 m -40,-39.99999 0,39.99999 m -40,-39.99999 0,39.99999"
       style="fill:#ff0000;fill-opacity:0.47686833;stroke:#000000;stroke-width:3;stroke-linecap:butt;stroke-linejoin:round;stroke-miterlimit:4;stroke-opacity:1;stroke-dasharray:none;stroke-dashoffset:0" />
    <path
       style="fill:#ff0000;fill-opacity:0.47686833;stroke:#000000;stroke-width:3;stroke-linecap:butt;stroke-linejoin:round;stroke-miterlimit:4;stroke-opacity:1;stroke-dasharray:none;stroke-dashoffset:0"
       d="m -560,302.36219 -520,0 m 520,39.99999 -520,0 m 520,-39.99999 0,39.99999 m -40,-39.99999 0,39.99999 m -40,-39.99999 0,39.99999 m -40,-39.99999 0,39.99999 m -40,-39.99999 0,39.99999 m -40,-39.99999 0,39.99999 m -40,-39.99999 0,39.99999 m -40,-39.99999 0,39.99999 m -40,-39.99999 0,39.99999 m -40,-39.99999 0,39.99999 m -40,-39.99999 0,39.99999 m -40,-39.99999 0,39.99999 m -40,-39.99999 0,39.99999 m -40,-39.99999 0,39.99999"
       id="path3621"
       inkscape:path-effect="#path-effect3623"
       inkscape:original-d="m -600,302.36219 40,0 0,39.99999 -40,0 0,-39.99999 z" />
    <path
       style="fill:#ff0000;fill-opacity:0.47686833;stroke:none"
       d="m 81.696134,82.352936 0,-18.392857 18.392856,0 18.39286,0 0,18.392857 0,18.392854 -18.39286,0 -18.392856,0 0,-18.392854 z"
       id="path3651" />
    <path
       style="fill:#ff0000;fill-opacity:0.47686833;stroke:none"
       d="m 41.696134,82.352936 0,-18.392857 18.392857,0 18.392857,0 0,18.392857 0,18.392854 -18.392857,0 -18.392857,0 0,-18.392854 z"
       id="path3653" />
    <path
       style="fill:#ff0000;fill-opacity:0.47686833;stroke:none"
       d="m 81.696134,122.35294 0,-18.39286 18.392856,0 18.39286,0 0,18.39286 0,18.39285 -18.39286,0 -18.392856,0 0,-18.39285 z"
       id="path3655" />
    <path
       style="fill:#ff0000;fill-opacity:0.47686833;stroke:none"
       d="m 41.696134,122.35294 0,-18.39286 18.392857,0 18.392857,0 0,18.39286 0,18.39285 -18.392857,0 -18.392857,0 0,-18.39285 z"
       id="path3657" />
    <path
       style="fill:#ff0000;fill-opacity:0.47686833;stroke:none"
       d="m 41.696134,162.35294 0,-18.39286 18.392857,0 18.392857,0 0,18.39286 0,18.39285 -18.392857,0 -18.392857,0 0,-18.39285 z"
       id="path3659" />
    <path
       style="fill:#ff0000;fill-opacity:0.47686833;stroke:none"
       d="m 81.696134,162.35294 0,-18.39286 18.392856,0 18.39286,0 0,18.39286 0,18.39285 -18.39286,0 -18.392856,0 0,-18.39285 z"
       id="path3661" />
    <path
       style="fill:#ff0000;fill-opacity:0.47686833;stroke:none"
       d="m 81.696134,202.35294 0,-18.39286 18.392856,0 18.39286,0 0,18.39286 0,18.39285 -18.39286,0 -18.392856,0 0,-18.39285 z"
       id="path3663" />
    <path
       style="fill:#ff0000;fill-opacity:0.47686833;stroke:none"
       d="m 41.696134,202.35294 0,-18.39286 18.392857,0 18.392857,0 0,18.39286 0,18.39285 -18.392857,0 -18.392857,0 0,-18.39285 z"
       id="path3665" />
    <path
       style="fill:#ff0000;fill-opacity:0.47686833;stroke:none"
       d="m 81.696134,242.35294 0,-18.39286 18.392856,0 18.39286,0 0,18.39286 0,18.39285 -18.39286,0 -18.392856,0 0,-18.39285 z"
       id="path3667" />
    <path
       style="fill:#ff0000;fill-opacity:0.47686833;stroke:none"
       d="m 41.696134,242.35294 0,-18.39286 18.392857,0 18.392857,0 0,18.39286 0,18.39285 -18.392857,0 -18.392857,0 0,-18.39285 z"
       id="path3669" />
    <path
       style="fill:#ff0000;fill-opacity:0.47686833;stroke:none"
       d="m 41.696134,282.35294 0,-18.39286 18.392857,0 18.392857,0 0,18.39286 0,18.39285 -18.392857,0 -18.392857,0 0,-18.39285 z"
       id="path3671" />
    <path
       style="fill:#ff0000;fill-opacity:0.47686833;stroke:none"
       d="m 81.696134,282.35294 0,-18.39286 18.392856,0 18.39286,0 0,18.39286 0,18.39285 -18.39286,0 -18.392856,0 0,-18.39285 z"
       id="path3673" />
    <path
       style="fill:#ff0000;fill-opacity:0.47686833;stroke:none"
       d="m 1.6961338,282.35294 0,-18.39286 18.3928572,0 18.392857,0 0,18.39286 0,18.39285 -18.392857,0 -18.3928572,0 0,-18.39285 z"
       id="path3675" />
    <path
       style="fill:#ff0000;fill-opacity:0.47686833;stroke:none"
       d="m 1.6961338,242.35294 0,-18.39286 18.3928572,0 18.392857,0 0,18.39286 0,18.39285 -18.392857,0 -18.3928572,0 0,-18.39285 z"
       id="path3677" />
    <path
       style="fill:#ff0000;fill-opacity:0.47686833;stroke:none"
       d="m -38.303866,242.35294 0,-18.39286 18.392857,0 18.3928571,0 0,18.39286 0,18.39285 -18.3928571,0 -18.392857,0 0,-18.39285 z"
       id="path3679" />
    <path
       style="fill:#ff0000;fill-opacity:0.47686833;stroke:none"
       d="m -38.303866,282.35294 0,-18.39286 18.392857,0 18.3928571,0 0,18.39286 0,18.39285 -18.3928571,0 -18.392857,0 0,-18.39285 z"
       id="path3681" />
    <path
       style="fill:#ff0000;fill-opacity:0.47686833;stroke:none"
       d="m -38.201748,202.32808 0,-18.43528 18.182746,0 18.1827459,0 0,18.43528 0,18.43528 -18.1827459,0 -18.182746,0 0,-18.43528 z"
       id="path3683" />
    <path
       style="fill:#ff0000;fill-opacity:0.47686833;stroke:none"
       d="m -38.201748,162.42706 0,-18.43529 18.182746,0 18.1827459,0 0,18.43529 0,18.43528 -18.1827459,0 -18.182746,0 0,-18.43528 z"
       id="path3685" />
    <path
       style="fill:#ff0000;fill-opacity:0.47686833;stroke:none"
       d="m 1.6992778,162.42706 0,-18.43529 18.1827462,0 18.182745,0 0,18.43529 0,18.43528 -18.182745,0 -18.1827462,0 0,-18.43528 z"
       id="path3687" />
    <path
       style="fill:#ff0000;fill-opacity:0.47686833;stroke:none"
       d="m 1.6992778,202.32808 0,-18.43528 18.1827462,0 18.182745,0 0,18.43528 0,18.43528 -18.182745,0 -18.1827462,0 0,-18.43528 z"
       id="path3689" />
    <path
       style="fill:#ff0000;fill-opacity:0.47686833;stroke:none"
       d="m 1.6992778,122.27349 0,-18.18274 18.1827462,0 18.182745,0 0,18.18274 0,18.18275 -18.182745,0 -18.1827462,0 0,-18.18275 z"
       id="path3691" />
    <path
       style="fill:#ff0000;fill-opacity:0.47686833;stroke:none"
       d="m -38.201748,122.27349 0,-18.18274 18.182746,0 18.1827459,0 0,18.18274 0,18.18275 -18.1827459,0 -18.182746,0 0,-18.18275 z"
       id="path3693" />
    <path
       style="fill:#ff0000;fill-opacity:0.47686833;stroke:none"
       d="m -38.201748,82.372466 0,-18.182746 18.182746,0 18.1827459,0 0,18.182746 0,18.182744 -18.1827459,0 -18.182746,0 0,-18.182744 z"
       id="path3695" />
    <path
       style="fill:#ff0000;fill-opacity:0.47686833;stroke:none"
       d="m 1.6992778,82.372466 0,-18.182746 18.1827462,0 18.182745,0 0,18.182746 0,18.182744 -18.182745,0 -18.1827462,0 0,-18.182744 z"
       id="path3697" />
    <path
       style="fill:#ff0000;fill-opacity:0.47686833;stroke:none"
       d="m -78.102773,82.372466 0,-18.182746 18.182745,0 18.182746,0 0,18.182746 0,18.182744 -18.182746,0 -18.182745,0 0,-18.182744 z"
       id="path3699" />
    <path
       style="fill:#ff0000;fill-opacity:0.47686833;stroke:none"
       d="m -118.0038,82.372466 0,-18.182746 18.182747,0 18.182746,0 0,18.182746 0,18.182744 -18.182746,0 -18.182747,0 0,-18.182744 z"
       id="path3701" />
    <path
       style="fill:#ff0000;fill-opacity:0.47686833;stroke:none"
       d="m -118.0038,122.27349 0,-18.18274 18.182747,0 18.182746,0 0,18.18274 0,18.18275 -18.182746,0 -18.182747,0 0,-18.18275 z"
       id="path3703" />
    <path
       style="fill:#ff0000;fill-opacity:0.47686833;stroke:none"
       d="m -78.102773,122.27349 0,-18.18274 18.182745,0 18.182746,0 0,18.18274 0,18.18275 -18.182746,0 -18.182745,0 0,-18.18275 z"
       id="path3705" />
    <path
       style="fill:#ff0000;fill-opacity:0.47686833;stroke:none"
       d="m -78.102773,162.42706 0,-18.43529 18.182745,0 18.182746,0 0,18.43529 0,18.43528 -18.182746,0 -18.182745,0 0,-18.43528 z"
       id="path3707" />
    <path
       style="fill:#ff0000;fill-opacity:0.47686833;stroke:none"
       d="m -118.0038,162.42706 0,-18.43529 18.182747,0 18.182746,0 0,18.43529 0,18.43528 -18.182746,0 -18.182747,0 0,-18.43528 z"
       id="path3709" />
    <path
       style="fill:#ff0000;fill-opacity:0.47686833;stroke:none"
       d="m -118.0038,202.32808 0,-18.43528 18.182747,0 18.182746,0 0,18.43528 0,18.43528 -18.182746,0 -18.182747,0 0,-18.43528 z"
       id="path3711" />
    <path
       style="fill:#ff0000;fill-opacity:0.47686833;stroke:none"
       d="m -78.102773,202.32808 0,-18.43528 18.182745,0 18.182746,0 0,18.43528 0,18.43528 -18.182746,0 -18.182745,0 0,-18.43528 z"
       id="path3713" />
    <path
       style="fill:#ff0000;fill-opacity:0.47686833;stroke:none"
       d="m -78.102773,242.48164 0,-18.18274 18.182745,0 18.182746,0 0,18.18274 0,18.18275 -18.182746,0 -18.182745,0 0,-18.18275 z"
       id="path3715" />
    <path
       style="fill:#ff0000;fill-opacity:0.47686833;stroke:none"
       d="m -118.0038,242.48164 0,-18.18274 18.182747,0 18.182746,0 0,18.18274 0,18.18275 -18.182746,0 -18.182747,0 0,-18.18275 z"
       id="path3717" />
    <path
       style="fill:#ff0000;fill-opacity:0.47686833;stroke:none"
       d="m -118.0038,282.38267 0,-18.18275 18.182747,0 18.182746,0 0,18.18275 0,18.18275 -18.182746,0 -18.182747,0 0,-18.18275 z"
       id="path3719" />
    <path
       style="fill:#ff0000;fill-opacity:0.47686833;stroke:none"
       d="m -78.102773,282.38267 0,-18.18275 18.182745,0 18.182746,0 0,18.18275 0,18.18275 -18.182746,0 -18.182745,0 0,-18.18275 z"
       id="path3721" />
    <path
       style="fill:#ff0000;fill-opacity:0.47686833;stroke:none"
       d="m -158.00785,82.372466 0,-18.182746 18.18274,0 18.18275,0 0,18.182746 0,18.182744 -18.18275,0 -18.18274,0 0,-18.182744 z"
       id="path3723" />
    <path
       style="fill:#ff0000;fill-opacity:0.47686833;stroke:none"
       d="m -158.00785,122.27349 0,-18.18274 18.18274,0 18.18275,0 0,18.18274 0,18.18275 -18.18275,0 -18.18274,0 0,-18.18275 z"
       id="path3725" />
    <path
       style="fill:#ff0000;fill-opacity:0.47686833;stroke:none"
       d="m -198.41396,122.27349 0,-18.18274 18.43529,0 18.43528,0 0,18.18274 0,18.18275 -18.43528,0 -18.43529,0 0,-18.18275 z"
       id="path3727" />
    <path
       style="fill:#ff0000;fill-opacity:0.47686833;stroke:none"
       d="m -198.41396,82.372466 0,-18.182746 18.43529,0 18.43528,0 0,18.182746 0,18.182744 -18.43528,0 -18.43529,0 0,-18.182744 z"
       id="path3729" />
    <path
       style="fill:#ff0000;fill-opacity:0.47686833;stroke:none"
       d="m -238.31498,82.372466 0,-18.182746 18.18274,0 18.18275,0 0,18.182746 0,18.182744 -18.18275,0 -18.18274,0 0,-18.182744 z"
       id="path3731" />
    <path
       style="fill:#ff0000;fill-opacity:0.47686833;stroke:none"
       d="m -238.31498,122.27349 0,-18.18274 18.18274,0 18.18275,0 0,18.18274 0,18.18275 -18.18275,0 -18.18274,0 0,-18.18275 z"
       id="path3733" />
    <path
       style="fill:#ff0000;fill-opacity:0.47686833;stroke:none"
       d="m -278.21601,122.27349 0,-18.18274 18.18275,0 18.18274,0 0,18.18274 0,18.18275 -18.18274,0 -18.18275,0 0,-18.18275 z"
       id="path3735" />
    <path
       style="fill:#ff0000;fill-opacity:0.47686833;stroke:none"
       d="m -278.21601,82.372466 0,-18.182746 18.18275,0 18.18274,0 0,18.182746 0,18.182744 -18.18274,0 -18.18275,0 0,-18.182744 z"
       id="path3737" />
    <path
       style="fill:#ff0000;fill-opacity:0.47686833;stroke:none"
       d="m -318.11703,82.372466 0,-18.182746 18.18274,0 18.18275,0 0,18.182746 0,18.182744 -18.18275,0 -18.18274,0 0,-18.182744 z"
       id="path3739" />
    <path
       style="fill:#ff0000;fill-opacity:0.47686833;stroke:none"
       d="m -318.11703,122.27349 0,-18.18274 18.18274,0 18.18275,0 0,18.18274 0,18.18275 -18.18275,0 -18.18274,0 0,-18.18275 z"
       id="path3741" />
    <path
       style="fill:#ff0000;fill-opacity:0.47686833;stroke:none"
       d="m -318.11703,162.42706 0,-18.43529 18.18274,0 18.18275,0 0,18.43529 0,18.43528 -18.18275,0 -18.18274,0 0,-18.43528 z"
       id="path3743" />
    <path
       style="fill:#ff0000;fill-opacity:0.47686833;stroke:none"
       d="m -241.62194,162.42706 c 1.5e-4,-10.27831 0.0675,-14.41138 0.14966,-9.18461 0.0822,5.22676 0.082,13.63628 -2.9e-4,18.68782 -0.0823,5.05153 -0.14953,0.77509 -0.14937,-9.50321 z"
       id="path3745" />
    <path
       style="fill:#ff0000;fill-opacity:0.47686833;stroke:none"
       d="m -278.21601,162.42706 0,-18.43529 18.18275,0 18.18274,0 0,18.43529 0,18.43528 -18.18274,0 -18.18275,0 0,-18.43528 z"
       id="path3747" />
    <path
       style="fill:#ff0000;fill-opacity:0.47686833;stroke:none"
       d="m -238.31498,162.42706 0,-18.43529 18.18274,0 18.18275,0 0,18.43529 0,18.43528 -18.18275,0 -18.18274,0 0,-18.43528 z"
       id="path3749" />
    <path
       style="fill:#ff0000;fill-opacity:0.47686833;stroke:none"
       d="m -198.41396,162.42706 0,-18.43529 18.43529,0 18.43528,0 0,18.43529 0,18.43528 -18.43528,0 -18.43529,0 0,-18.43528 z"
       id="path3751" />
    <path
       style="fill:#ff0000;fill-opacity:0.47686833;stroke:none"
       d="m -158.00785,162.42706 0,-18.43529 18.18274,0 18.18275,0 0,18.43529 0,18.43528 -18.18275,0 -18.18274,0 0,-18.43528 z"
       id="path3753" />
    <path
       style="fill:#ff0000;fill-opacity:0.47686833;stroke:none"
       d="m -158.00785,202.32808 0,-18.43528 18.18274,0 18.18275,0 0,18.43528 0,18.43528 -18.18275,0 -18.18274,0 0,-18.43528 z"
       id="path3755" />
    <path
       style="fill:#ff0000;fill-opacity:0.47686833;stroke:none"
       d="m -198.41396,202.32808 0,-18.43528 18.43529,0 18.43528,0 0,18.43528 0,18.43528 -18.43528,0 -18.43529,0 0,-18.43528 z"
       id="path3757" />
    <path
       style="fill:#ff0000;fill-opacity:0.47686833;stroke:none"
       d="m -238.31498,202.32808 0,-18.43528 18.18274,0 18.18275,0 0,18.43528 0,18.43528 -18.18275,0 -18.18274,0 0,-18.43528 z"
       id="path3759" />
    <path
       style="fill:#ff0000;fill-opacity:0.47686833;stroke:none"
       d="m -318.11703,202.32808 0,-18.43528 18.18274,0 18.18275,0 0,18.43528 0,18.43528 -18.18275,0 -18.18274,0 0,-18.43528 z"
       id="path3761" />
    <path
       style="fill:#ff0000;fill-opacity:0.47686833;stroke:none"
       d="m -278.21601,202.32808 0,-18.43528 18.18275,0 18.18274,0 0,18.43528 0,18.43528 -18.18274,0 -18.18275,0 0,-18.43528 z"
       id="path3763" />
    <path
       style="fill:#ff0000;fill-opacity:0.47686833;stroke:none"
       d="m -318.11703,242.48164 0,-18.18274 18.18274,0 18.18275,0 0,18.18274 0,18.18275 -18.18275,0 -18.18274,0 0,-18.18275 z"
       id="path3765" />
    <path
       style="fill:#ff0000;fill-opacity:0.47686833;stroke:none"
       d="m -278.21601,242.48164 0,-18.18274 18.18275,0 18.18274,0 0,18.18274 0,18.18275 -18.18274,0 -18.18275,0 0,-18.18275 z"
       id="path3767" />
    <path
       style="fill:#ff0000;fill-opacity:0.47686833;stroke:none"
       d="m -238.31498,242.48164 0,-18.18274 18.18274,0 18.18275,0 0,18.18274 0,18.18275 -18.18275,0 -18.18274,0 0,-18.18275 z"
       id="path3769" />
    <path
       style="fill:#ff0000;fill-opacity:0.47686833;stroke:none"
       d="m -198.41396,242.48164 0,-18.18274 18.43529,0 18.43528,0 0,18.18274 0,18.18275 -18.43528,0 -18.43529,0 0,-18.18275 z"
       id="path3771" />
    <path
       style="fill:#ff0000;fill-opacity:0.47686833;stroke:none"
       d="m -158.00785,242.48164 0,-18.18274 18.18274,0 18.18275,0 0,18.18274 0,18.18275 -18.18275,0 -18.18274,0 0,-18.18275 z"
       id="path3773" />
    <path
       style="fill:#ff0000;fill-opacity:0.47686833;stroke:none"
       d="m -158.00785,282.38267 0,-18.18275 18.18274,0 18.18275,0 0,18.18275 0,18.18275 -18.18275,0 -18.18274,0 0,-18.18275 z"
       id="path3775" />
    <path
       style="fill:#ff0000;fill-opacity:0.47686833;stroke:none"
       d="m -198.41396,282.38267 0,-18.18275 18.43529,0 18.43528,0 0,18.18275 0,18.18275 -18.43528,0 -18.43529,0 0,-18.18275 z"
       id="path3777" />
    <path
       style="fill:#ff0000;fill-opacity:0.47686833;stroke:none"
       d="m -238.31498,282.38267 0,-18.18275 18.18274,0 18.18275,0 0,18.18275 0,18.18275 -18.18275,0 -18.18274,0 0,-18.18275 z"
       id="path3779" />
    <path
       style="fill:#ff0000;fill-opacity:0.47686833;stroke:none"
       d="m -278.21601,282.38267 0,-18.18275 18.18275,0 18.18274,0 0,18.18275 0,18.18275 -18.18274,0 -18.18275,0 0,-18.18275 z"
       id="path3781" />
    <path
       style="fill:#ff0000;fill-opacity:0.47686833;stroke:none"
       d="m -318.11703,282.38267 0,-18.18275 18.18274,0 18.18275,0 0,18.18275 0,18.18275 -18.18275,0 -18.18274,0 0,-18.18275 z"
       id="path3783" />
    <path
       style="fill:#ff0000;fill-opacity:0.47686833;stroke:none"
       d="m -358.01806,282.38267 0,-18.18275 18.18275,0 18.18274,0 0,18.18275 0,18.18275 -18.18274,0 -18.18275,0 0,-18.18275 z"
       id="path3785" />
    <path
       style="fill:#ff0000;fill-opacity:0.47686833;stroke:none"
       d="m -398.42416,282.38267 0,-18.18275 18.43528,0 18.43529,0 0,18.18275 0,18.18275 -18.43529,0 -18.43528,0 0,-18.18275 z"
       id="path3787" />
    <path
       style="fill:#ff0000;fill-opacity:0.47686833;stroke:none"
       d="m -438.32519,282.38267 0,-18.18275 18.18275,0 18.18275,0 0,18.18275 0,18.18275 -18.18275,0 -18.18275,0 0,-18.18275 z"
       id="path3789" />
    <path
       style="fill:#ff0000;fill-opacity:0.47686833;stroke:none"
       d="m -478.22621,282.38267 0,-18.18275 18.18274,0 18.18275,0 0,18.18275 0,18.18275 -18.18275,0 -18.18274,0 0,-18.18275 z"
       id="path3791" />
    <path
       style="fill:#ff0000;fill-opacity:0.47686833;stroke:none"
       d="m -558.02826,282.38267 0,-18.18275 18.18274,0 18.18275,0 0,18.18275 0,18.18275 -18.18275,0 -18.18274,0 0,-18.18275 z"
       id="path3793" />
    <path
       style="fill:#ff0000;fill-opacity:0.47686833;stroke:none"
       d="m -598.43436,282.38267 0,-18.18275 18.43528,0 18.43528,0 0,18.18275 0,18.18275 -18.43528,0 -18.43528,0 0,-18.18275 z"
       id="path3795" />
    <path
       style="fill:#ff0000;fill-opacity:0.47686833;stroke:none"
       d="m -638.33539,282.38267 0,-18.18275 18.18275,0 18.18274,0 0,18.18275 0,18.18275 -18.18274,0 -18.18275,0 0,-18.18275 z"
       id="path3797" />
    <path
       style="fill:#ff0000;fill-opacity:0.47686833;stroke:none"
       d="m -638.61218,282.38267 c 0,-10.13941 0.0674,-14.28735 0.14979,-9.21764 0.0824,5.0697 0.0824,13.36558 0,18.43528 -0.0824,5.0697 -0.14979,0.92177 -0.14979,-9.21764 z"
       id="path3799" />
    <path
       style="fill:#ff0000;fill-opacity:0.47686833;stroke:none"
       d="m -678.23642,282.38267 0,-18.18275 18.18275,0 18.18275,0 0,18.18275 0,18.18275 -18.18275,0 -18.18275,0 0,-18.18275 z"
       id="path3801" />
    <path
       style="fill:#ff0000;fill-opacity:0.47686833;stroke:none"
       d="m -518.12724,282.38267 0,-18.18275 18.18275,0 18.18274,0 0,18.18275 0,18.18275 -18.18274,0 -18.18275,0 0,-18.18275 z"
       id="path3803" />
    <path
       style="fill:#ff0000;fill-opacity:0.47686833;stroke:none"
       d="m -518.12724,242.48164 0,-18.18274 18.18275,0 18.18274,0 0,18.18274 0,18.18275 -18.18274,0 -18.18275,0 0,-18.18275 z"
       id="path3805" />
    <path
       style="fill:#ff0000;fill-opacity:0.47686833;stroke:none"
       d="m -438.32519,242.48164 0,-18.18274 18.18275,0 18.18275,0 0,18.18274 0,18.18275 -18.18275,0 -18.18275,0 0,-18.18275 z"
       id="path3807" />
    <path
       style="fill:#ff0000;fill-opacity:0.47686833;stroke:none"
       d="m -478.22621,242.48164 0,-18.18274 18.18274,0 18.18275,0 0,18.18274 0,18.18275 -18.18275,0 -18.18274,0 0,-18.18275 z"
       id="path3809" />
    <path
       style="fill:#ff0000;fill-opacity:0.47686833;stroke:none"
       d="m -398.42416,242.48164 0,-18.18274 18.43528,0 18.43529,0 0,18.18274 0,18.18275 -18.43529,0 -18.43528,0 0,-18.18275 z"
       id="path3811" />
    <path
       style="fill:#ff0000;fill-opacity:0.47686833;stroke:none"
       d="m -358.01806,242.48164 0,-18.18274 18.18275,0 18.18274,0 0,18.18274 0,18.18275 -18.18274,0 -18.18275,0 0,-18.18275 z"
       id="path3813" />
    <path
       style="fill:#ff0000;fill-opacity:0.47686833;stroke:none"
       d="m -358.01806,202.32808 0,-18.43528 18.18275,0 18.18274,0 0,18.43528 0,18.43528 -18.18274,0 -18.18275,0 0,-18.43528 z"
       id="path3815" />
    <path
       style="fill:#ff0000;fill-opacity:0.47686833;stroke:none"
       d="m -398.42416,202.32808 0,-18.43528 18.43528,0 18.43529,0 0,18.43528 0,18.43528 -18.43529,0 -18.43528,0 0,-18.43528 z"
       id="path3817" />
    <path
       style="fill:#ff0000;fill-opacity:0.47686833;stroke:none"
       d="m -678.23642,202.32808 0,-18.43528 18.18275,0 18.18275,0 0,18.43528 0,18.43528 -18.18275,0 -18.18275,0 0,-18.43528 z"
       id="path3819" />
    <path
       style="fill:#ff0000;fill-opacity:0.47686833;stroke:none"
       d="m -638.33539,82.372466 0,-18.182746 18.18275,0 18.18274,0 0,18.182746 0,18.182744 -18.18274,0 -18.18275,0 0,-18.182744 z"
       id="path3821" />
    <path
       style="fill:#ff0000;fill-opacity:0.47686833;stroke:none"
       d="m -558.02826,82.372466 0,-18.182746 18.18274,0 18.18275,0 0,18.182746 0,18.182744 -18.18275,0 -18.18274,0 0,-18.182744 z"
       id="path3823" />
    <path
       style="fill:#ff0000;fill-opacity:0.47686833;stroke:none"
       d="m -478.22621,82.372466 0,-18.182746 18.18274,0 18.18275,0 0,18.182746 0,18.182744 -18.18275,0 -18.18274,0 0,-18.182744 z"
       id="path3825" />
    <path
       style="fill:#ff0000;fill-opacity:0.47686833;stroke:none"
       d="m -438.32519,82.372466 0,-18.182746 18.18275,0 18.18275,0 0,18.182746 0,18.182744 -18.18275,0 -18.18275,0 0,-18.182744 z"
       id="path3827" />
    <path
       style="fill:#ff0000;fill-opacity:0.47686833;stroke:none"
       d="m -358.01806,82.372466 0,-18.182746 18.18275,0 18.18274,0 0,18.182746 0,18.182744 -18.18274,0 -18.18275,0 0,-18.182744 z"
       id="path3829" />
    <path
       style="fill:#ff0000;fill-opacity:0.47686833;stroke:none"
       d="m -558.02826,122.27349 0,-18.18274 18.18274,0 18.18275,0 0,18.18274 0,18.18275 -18.18275,0 -18.18274,0 0,-18.18275 z"
       id="path3831" />
    <path
       style="fill:#ff0000;fill-opacity:0.47686833;stroke:none"
       d="m -398.42416,162.42706 0,-18.43529 18.43528,0 18.43529,0 0,18.43529 0,18.43528 -18.43529,0 -18.43528,0 0,-18.43528 z"
       id="path3833" />
    <path
       style="fill:#ff0000;fill-opacity:0.47686833;stroke:none"
       d="m -358.01806,162.42706 0,-18.43529 18.18275,0 18.18274,0 0,18.43529 0,18.43528 -18.18274,0 -18.18275,0 0,-18.43528 z"
       id="path3835" />
    <path
       style="fill:#ff0000;fill-opacity:0.47686833;stroke:none"
       d="m -358.01806,122.27349 0,-18.18274 18.18275,0 18.18274,0 0,18.18274 0,18.18275 -18.18274,0 -18.18275,0 0,-18.18275 z"
       id="path3837" />
    <path
       style="fill:#ff0000;fill-opacity:0.47686833;stroke:none"
       d="m -398.42416,122.27349 0,-18.18274 18.43528,0 18.43529,0 0,18.18274 0,18.18275 -18.43529,0 -18.43528,0 0,-18.18275 z"
       id="path3839" />
    <path
       style="fill:#ff0000;fill-opacity:0.47686833;stroke:none"
       d="m -398.42416,82.372466 0,-18.182746 18.43528,0 18.43529,0 0,18.182746 0,18.182744 -18.43529,0 -18.43528,0 0,-18.182744 z"
       id="path3841" />
    <path
       style="fill:#ff0000;fill-opacity:0.47686833;stroke:none"
       d="m -438.32519,122.27349 0,-18.18274 18.18275,0 18.18275,0 0,18.18274 0,18.18275 -18.18275,0 -18.18275,0 0,-18.18275 z"
       id="path3843" />
    <path
       style="fill:#ff0000;fill-opacity:0.47686833;stroke:none"
       d="m -438.32519,162.42706 0,-18.43529 18.18275,0 18.18275,0 0,18.43529 0,18.43528 -18.18275,0 -18.18275,0 0,-18.43528 z"
       id="path3845" />
    <path
       style="fill:#ff0000;fill-opacity:0.47686833;stroke:none"
       d="m -438.32519,202.32808 0,-18.43528 18.18275,0 18.18275,0 0,18.43528 0,18.43528 -18.18275,0 -18.18275,0 0,-18.43528 z"
       id="path3847" />
    <path
       style="fill:#ff0000;fill-opacity:0.47686833;stroke:none"
       d="m -478.22621,202.32808 0,-18.43528 18.18274,0 18.18275,0 0,18.43528 0,18.43528 -18.18275,0 -18.18274,0 0,-18.43528 z"
       id="path3849" />
    <path
       style="fill:#ff0000;fill-opacity:0.47686833;stroke:none"
       d="m -478.22621,162.42706 0,-18.43529 18.18274,0 18.18275,0 0,18.43529 0,18.43528 -18.18275,0 -18.18274,0 0,-18.43528 z"
       id="path3851" />
    <path
       style="fill:#ff0000;fill-opacity:0.47686833;stroke:none"
       d="m -478.22621,122.27349 0,-18.18274 18.18274,0 18.18275,0 0,18.18274 0,18.18275 -18.18275,0 -18.18274,0 0,-18.18275 z"
       id="path3853" />
    <path
       style="fill:#ff0000;fill-opacity:0.47686833;stroke:none"
       d="m -518.12724,122.27349 0,-18.18274 18.18275,0 18.18274,0 0,18.18274 0,18.18275 -18.18274,0 -18.18275,0 0,-18.18275 z"
       id="path3855" />
    <path
       style="fill:#ff0000;fill-opacity:0.47686833;stroke:none"
       d="m -518.12724,162.42706 0,-18.43529 18.18275,0 18.18274,0 0,18.43529 0,18.43528 -18.18274,0 -18.18275,0 0,-18.43528 z"
       id="path3857" />
    <path
       style="fill:#ff0000;fill-opacity:0.47686833;stroke:none"
       d="m -518.12724,82.372466 0,-18.182746 18.18275,0 18.18274,0 0,18.182746 0,18.182744 -18.18274,0 -18.18275,0 0,-18.182744 z"
       id="path3859" />
    <path
       style="fill:#ff0000;fill-opacity:0.47686833;stroke:none"
       d="m -518.12724,202.32808 0,-18.43528 18.18275,0 18.18274,0 0,18.43528 0,18.43528 -18.18274,0 -18.18275,0 0,-18.43528 z"
       id="path3861" />
    <path
       style="fill:#ff0000;fill-opacity:0.47686833;stroke:none"
       d="m -558.02826,202.32808 0,-18.43528 18.18274,0 18.18275,0 0,18.43528 0,18.43528 -18.18275,0 -18.18274,0 0,-18.43528 z"
       id="path3863" />
    <path
       style="fill:#ff0000;fill-opacity:0.47686833;stroke:none"
       d="m -558.02826,162.42706 0,-18.43529 18.18274,0 18.18275,0 0,18.43529 0,18.43528 -18.18275,0 -18.18274,0 0,-18.43528 z"
       id="path3865" />
    <path
       style="fill:#ff0000;fill-opacity:0.47686833;stroke:none"
       d="m -558.02826,242.48164 0,-18.18274 18.18274,0 18.18275,0 0,18.18274 0,18.18275 -18.18275,0 -18.18274,0 0,-18.18275 z"
       id="path3869" />
    <path
       style="fill:#ff0000;fill-opacity:0.47686833;stroke:none"
       d="m -598.43436,242.48164 0,-18.18274 18.43528,0 18.43528,0 0,18.18274 0,18.18275 -18.43528,0 -18.43528,0 0,-18.18275 z"
       id="path3871" />
    <path
       style="fill:#ff0000;fill-opacity:0.47686833;stroke:none"
       d="m -598.43436,202.32808 0,-18.43528 18.43528,0 18.43528,0 0,18.43528 0,18.43528 -18.43528,0 -18.43528,0 0,-18.43528 z"
       id="path3873" />
    <path
       style="fill:#ff0000;fill-opacity:0.47686833;stroke:none"
       d="m -638.33539,242.48164 0,-18.18274 18.18275,0 18.18274,0 0,18.18274 0,18.18275 -18.18274,0 -18.18275,0 0,-18.18275 z"
       id="path3875" />
    <path
       style="fill:#ff0000;fill-opacity:0.47686833;stroke:none"
       d="m -638.33539,202.32808 0,-18.43528 18.18275,0 18.18274,0 0,18.43528 0,18.43528 -18.18274,0 -18.18275,0 0,-18.43528 z"
       id="path3877" />
    <path
       style="fill:#ff0000;fill-opacity:0.47686833;stroke:none"
       d="m -678.23642,242.48164 0,-18.18274 18.18275,0 18.18275,0 0,18.18274 0,18.18275 -18.18275,0 -18.18275,0 0,-18.18275 z"
       id="path3879" />
    <path
       style="fill:#ff0000;fill-opacity:0.47686833;stroke:none"
       d="m -678.23642,162.42706 0,-18.43529 18.18275,0 18.18275,0 0,18.43529 0,18.43528 -18.18275,0 -18.18275,0 0,-18.43528 z"
       id="path3881" />
    <path
       style="fill:#ff0000;fill-opacity:0.47686833;stroke:none"
       d="m -678.23642,122.27349 0,-18.18274 18.18275,0 18.18275,0 0,18.18274 0,18.18275 -18.18275,0 -18.18275,0 0,-18.18275 z"
       id="path3883" />
    <path
       style="fill:#ff0000;fill-opacity:0.47686833;stroke:none"
       d="m -678.23642,82.372466 0,-18.182746 18.18275,0 18.18275,0 0,18.182746 0,18.182744 -18.18275,0 -18.18275,0 0,-18.182744 z"
       id="path3885" />
    <path
       style="fill:#ff0000;fill-opacity:0.47686833;stroke:none"
       d="m -638.33539,122.27349 0,-18.18274 18.18275,0 18.18274,0 0,18.18274 0,18.18275 -18.18274,0 -18.18275,0 0,-18.18275 z"
       id="path3887" />
    <path
       style="fill:#ff0000;fill-opacity:0.47686833;stroke:none"
       d="m -638.33539,162.42706 0,-18.43529 18.18275,0 18.18274,0 0,18.43529 0,18.43528 -18.18274,0 -18.18275,0 0,-18.43528 z"
       id="path3889" />
    <path
       style="fill:#ff0000;fill-opacity:0.47686833;stroke:none"
       d="m -598.43436,162.42706 0,-18.43529 18.43528,0 18.43528,0 0,18.43529 0,18.43528 -18.43528,0 -18.43528,0 0,-18.43528 z"
       id="path3891" />
    <path
       style="fill:#ff0000;fill-opacity:0.47686833;stroke:none"
       d="m -598.43436,122.27349 0,-18.18274 18.43528,0 18.43528,0 0,18.18274 0,18.18275 -18.43528,0 -18.43528,0 0,-18.18275 z"
       id="path3893" />
    <path
       style="fill:#ff0000;fill-opacity:0.47686833;stroke:none"
       d="m -598.43436,82.372466 0,-18.182746 18.43528,0 18.43528,0 0,18.182746 0,18.182744 -18.43528,0 -18.43528,0 0,-18.182744 z"
       id="path3895" />
    <path
       style="fill:#ff0000;fill-opacity:0.47686833;stroke:none"
       d="m -598.49078,322.2837 0,-18.18275 18.43528,0 18.43529,0 0,18.18275 0,18.18274 -18.43529,0 -18.43528,0 0,-18.18274 z"
       id="path3897" />
    <path
       style="fill:#ff0000;fill-opacity:0.47686833;stroke:none"
       d="m -718.19386,322.2837 0,-18.18275 18.18275,0 18.18274,0 0,18.18275 0,18.18274 -18.18274,0 -18.18275,0 0,-18.18274 z"
       id="path3899" />
    <path
       style="fill:#ff0000;fill-opacity:0.47686833;stroke:none"
       d="m -918.20406,282.38267 0,-18.18275 18.18274,0 18.18275,0 0,18.18275 0,18.18275 -18.18275,0 -18.18274,0 0,-18.18275 z"
       id="path3901" />
    <path
       style="fill:#ff0000;fill-opacity:0.47686833;stroke:none"
       d="m -1078.3132,202.32808 0,-18.43528 18.1827,0 18.1828,0 0,18.43528 0,18.43528 -18.1828,0 -18.1827,0 0,-18.43528 z"
       id="path3903" />
    <path
       style="fill:#ff0000;fill-opacity:0.47686833;stroke:none"
       d="m -1078.3132,162.42706 0,-18.43529 18.1827,0 18.1828,0 0,18.43529 0,18.43528 -18.1828,0 -18.1827,0 0,-18.43528 z"
       id="path3905" />
    <path
       style="fill:#ff0000;fill-opacity:0.47686833;stroke:none"
       d="m -918.48056,202.32808 c 1.5e-4,-10.2783 0.0675,-14.41138 0.14966,-9.18461 0.0822,5.22677 0.082,13.63629 -2.9e-4,18.68782 -0.0823,5.05154 -0.14953,0.77509 -0.14937,-9.50321 z"
       id="path3907" />
    <path
       style="fill:#ff0000;fill-opacity:0.47686833;stroke:none"
       d="m -918.20406,202.32808 0,-18.43528 18.18274,0 18.18275,0 0,18.43528 0,18.43528 -18.18275,0 -18.18274,0 0,-18.43528 z"
       id="path3909" />
    <path
       style="fill:#ff0000;fill-opacity:0.47686833;stroke:none"
       d="m -878.30304,202.32808 0,-18.43528 18.18275,0 18.18275,0 0,18.43528 0,18.43528 -18.18275,0 -18.18275,0 0,-18.43528 z"
       id="path3911" />
    <path
       style="fill:#ff0000;fill-opacity:0.47686833;stroke:none"
       d="m -918.20406,242.48164 0,-18.18274 18.18274,0 18.18275,0 0,18.18274 0,18.18275 -18.18275,0 -18.18274,0 0,-18.18275 z"
       id="path3913" />
    <path
       style="fill:#ff0000;fill-opacity:0.47686833;stroke:none"
       d="m -878.30304,242.48164 0,-18.18274 18.18275,0 18.18275,0 0,18.18274 0,18.18275 -18.18275,0 -18.18275,0 0,-18.18275 z"
       id="path3915" />
    <path
       style="fill:#ff0000;fill-opacity:0.47686833;stroke:none"
       d="m -838.40201,242.48164 0,-18.18274 18.43528,0 18.43529,0 0,18.18274 0,18.18275 -18.43529,0 -18.43528,0 0,-18.18275 z"
       id="path3917" />
    <path
       style="fill:#ff0000;fill-opacity:0.47686833;stroke:none"
       d="m -838.40201,282.38267 0,-18.18275 18.43528,0 18.43529,0 0,18.18275 0,18.18275 -18.43529,0 -18.43528,0 0,-18.18275 z"
       id="path3919" />
    <path
       style="fill:#ff0000;fill-opacity:0.47686833;stroke:none"
       d="m -878.30304,282.38267 0,-18.18275 18.18275,0 18.18275,0 0,18.18275 0,18.18275 -18.18275,0 -18.18275,0 0,-18.18275 z"
       id="path3921" />
    <path
       style="fill:#ff0000;fill-opacity:0.47686833;stroke:none"
       d="m -878.30304,322.2837 0,-18.18275 18.18275,0 18.18275,0 0,18.18275 0,18.18274 -18.18275,0 -18.18275,0 0,-18.18274 z"
       id="path3923" />
    <path
       style="fill:#ff0000;fill-opacity:0.47686833;stroke:none"
       d="m -838.40201,322.2837 0,-18.18275 18.43528,0 18.43529,0 0,18.18275 0,18.18274 -18.43529,0 -18.43528,0 0,-18.18274 z"
       id="path3925" />
    <path
       style="fill:#ff0000;fill-opacity:0.47686833;stroke:none"
       d="m -798.50098,322.2837 0,-18.18275 18.43528,0 18.43528,0 0,18.18275 0,18.18274 -18.43528,0 -18.43528,0 0,-18.18274 z"
       id="path3927" />
    <path
       style="fill:#ff0000;fill-opacity:0.47686833;stroke:none"
       d="m -798.50098,282.38267 0,-18.18275 18.43528,0 18.43528,0 0,18.18275 0,18.18275 -18.43528,0 -18.43528,0 0,-18.18275 z"
       id="path3929" />
    <path
       style="fill:#ff0000;fill-opacity:0.47686833;stroke:none"
       d="m -758.09488,282.38267 0,-18.18275 18.18274,0 18.18275,0 0,18.18275 0,18.18275 -18.18275,0 -18.18274,0 0,-18.18275 z"
       id="path3931" />
    <path
       style="fill:#ff0000;fill-opacity:0.47686833;stroke:none"
       d="m -758.09488,322.2837 0,-18.18275 18.18274,0 18.18275,0 0,18.18275 0,18.18274 -18.18275,0 -18.18274,0 0,-18.18274 z"
       id="path3933" />
    <path
       style="fill:#ff0000;fill-opacity:0.47686833;stroke:none"
       d="m -718.19386,282.38267 0,-18.18275 18.18275,0 18.18274,0 0,18.18275 0,18.18275 -18.18274,0 -18.18275,0 0,-18.18275 z"
       id="path3935" />
    <path
       style="fill:#ff0000;fill-opacity:0.47686833;stroke:none"
       d="m -678.29283,322.2837 0,-18.18275 18.18274,0 18.18275,0 0,18.18275 0,18.18274 -18.18275,0 -18.18274,0 0,-18.18274 z"
       id="path3937" />
    <path
       style="fill:#ff0000;fill-opacity:0.47686833;stroke:none"
       d="m -638.39181,322.2837 0,-18.18275 18.43529,0 18.43528,0 0,18.18275 0,18.18274 -18.43528,0 -18.43529,0 0,-18.18274 z"
       id="path3939" />
    <path
       style="fill:#ff0000;fill-opacity:0.47686833;stroke:none"
       d="m -718.19386,242.48164 0,-18.18274 18.18275,0 18.18274,0 0,18.18274 0,18.18275 -18.18274,0 -18.18275,0 0,-18.18275 z"
       id="path3941" />
    <path
       style="fill:#ff0000;fill-opacity:0.47686833;stroke:none"
       d="m -798.50098,242.48164 0,-18.18274 18.43528,0 18.43528,0 0,18.18274 0,18.18275 -18.43528,0 -18.43528,0 0,-18.18275 z"
       id="path3943" />
    <path
       style="fill:#ff0000;fill-opacity:0.47686833;stroke:none"
       d="m -758.09488,242.48164 0,-18.18274 18.18274,0 18.18275,0 0,18.18274 0,18.18275 -18.18275,0 -18.18274,0 0,-18.18275 z"
       id="path3945" />
    <path
       style="fill:#ff0000;fill-opacity:0.47686833;stroke:none"
       d="m -718.19386,202.32808 0,-18.43528 18.18275,0 18.18274,0 0,18.43528 0,18.43528 -18.18274,0 -18.18275,0 0,-18.43528 z"
       id="path3947" />
    <path
       style="fill:#ff0000;fill-opacity:0.47686833;stroke:none"
       d="m -758.09488,202.32808 0,-18.43528 18.18274,0 18.18275,0 0,18.43528 0,18.43528 -18.18275,0 -18.18274,0 0,-18.43528 z"
       id="path3949" />
    <path
       style="fill:#ff0000;fill-opacity:0.47686833;stroke:none"
       d="m -758.09488,162.42706 0,-18.43529 18.18274,0 18.18275,0 0,18.43529 0,18.43528 -18.18275,0 -18.18274,0 0,-18.43528 z"
       id="path3951" />
    <path
       style="fill:#ff0000;fill-opacity:0.47686833;stroke:none"
       d="m -718.19386,162.42706 0,-18.43529 18.18275,0 18.18274,0 0,18.43529 0,18.43528 -18.18274,0 -18.18275,0 0,-18.43528 z"
       id="path3953" />
    <path
       style="fill:#ff0000;fill-opacity:0.47686833;stroke:none"
       d="m -718.19386,122.27349 0,-18.18274 18.18275,0 18.18274,0 0,18.18274 0,18.18275 -18.18274,0 -18.18275,0 0,-18.18275 z"
       id="path3955" />
    <path
       style="fill:#ff0000;fill-opacity:0.47686833;stroke:none"
       d="m -758.09488,122.27349 0,-18.18274 18.18274,0 18.18275,0 0,18.18274 0,18.18275 -18.18275,0 -18.18274,0 0,-18.18275 z"
       id="path3957" />
    <path
       style="fill:#ff0000;fill-opacity:0.47686833;stroke:none"
       d="m -718.19386,82.372466 0,-18.182746 18.18275,0 18.18274,0 0,18.182746 0,18.182744 -18.18274,0 -18.18275,0 0,-18.182744 z"
       id="path3959" />
    <path
       style="fill:#ff0000;fill-opacity:0.47686833;stroke:none"
       d="m -758.09488,82.372466 0,-18.182746 18.18274,0 18.18275,0 0,18.182746 0,18.182744 -18.18275,0 -18.18274,0 0,-18.182744 z"
       id="path3961" />
    <path
       style="fill:#ff0000;fill-opacity:0.47686833;stroke:none"
       d="m -798.50098,82.372466 0,-18.182746 18.43528,0 18.43528,0 0,18.182746 0,18.182744 -18.43528,0 -18.43528,0 0,-18.182744 z"
       id="path3963" />
    <path
       style="fill:#ff0000;fill-opacity:0.47686833;stroke:none"
       d="m -798.50098,122.27349 0,-18.18274 18.43528,0 18.43528,0 0,18.18274 0,18.18275 -18.43528,0 -18.43528,0 0,-18.18275 z"
       id="path3965" />
    <path
       style="fill:#ff0000;fill-opacity:0.47686833;stroke:none"
       d="m -838.40201,122.27349 0,-18.18274 18.43528,0 18.43529,0 0,18.18274 0,18.18275 -18.43529,0 -18.43528,0 0,-18.18275 z"
       id="path3967" />
    <path
       style="fill:#ff0000;fill-opacity:0.47686833;stroke:none"
       d="m -838.40201,82.372466 0,-18.182746 18.43528,0 18.43529,0 0,18.182746 0,18.182744 -18.43529,0 -18.43528,0 0,-18.182744 z"
       id="path3969" />
    <path
       style="fill:#ff0000;fill-opacity:0.47686833;stroke:none"
       d="m -798.50098,162.42706 0,-18.43529 18.43528,0 18.43528,0 0,18.43529 0,18.43528 -18.43528,0 -18.43528,0 0,-18.43528 z"
       id="path3971" />
    <path
       style="fill:#ff0000;fill-opacity:0.47686833;stroke:none"
       d="m -838.40201,162.42706 0,-18.43529 18.43528,0 18.43529,0 0,18.43529 0,18.43528 -18.43529,0 -18.43528,0 0,-18.43528 z"
       id="path3973" />
    <path
       style="fill:#ff0000;fill-opacity:0.47686833;stroke:none"
       d="m -838.40201,202.32808 0,-18.43528 18.43528,0 18.43529,0 0,18.43528 0,18.43528 -18.43529,0 -18.43528,0 0,-18.43528 z"
       id="path3975" />
    <path
       style="fill:#ff0000;fill-opacity:0.47686833;stroke:none"
       d="m -798.50098,202.32808 0,-18.43528 18.43528,0 18.43528,0 0,18.43528 0,18.43528 -18.43528,0 -18.43528,0 0,-18.43528 z"
       id="path3977" />
    <path
       style="fill:#ff0000;fill-opacity:0.47686833;stroke:none"
       d="m -878.30304,162.42706 0,-18.43529 18.18275,0 18.18275,0 0,18.43529 0,18.43528 -18.18275,0 -18.18275,0 0,-18.43528 z"
       id="path3979" />
    <path
       style="fill:#ff0000;fill-opacity:0.47686833;stroke:none"
       d="m -918.20406,162.42706 0,-18.43529 18.18274,0 18.18275,0 0,18.43529 0,18.43528 -18.18275,0 -18.18274,0 0,-18.43528 z"
       id="path3981" />
    <path
       style="fill:#ff0000;fill-opacity:0.47686833;stroke:none"
       d="m -918.20406,122.27349 0,-18.18274 18.18274,0 18.18275,0 0,18.18274 0,18.18275 -18.18275,0 -18.18274,0 0,-18.18275 z"
       id="path3983" />
    <path
       style="fill:#ff0000;fill-opacity:0.47686833;stroke:none"
       d="m -878.30304,122.27349 0,-18.18274 18.18275,0 18.18275,0 0,18.18274 0,18.18275 -18.18275,0 -18.18275,0 0,-18.18275 z"
       id="path3985" />
    <path
       style="fill:#ff0000;fill-opacity:0.47686833;stroke:none"
       d="m -958.10509,122.27349 0,-18.18274 18.18275,0 18.18274,0 0,18.18274 0,18.18275 -18.18274,0 -18.18275,0 0,-18.18275 z"
       id="path3987" />
    <path
       style="fill:#ff0000;fill-opacity:0.47686833;stroke:none"
       d="m -958.10509,162.42706 0,-18.43529 18.18275,0 18.18274,0 0,18.43529 0,18.43528 -18.18274,0 -18.18275,0 0,-18.43528 z"
       id="path3989" />
    <path
       style="fill:#ff0000;fill-opacity:0.47686833;stroke:none"
       d="m -958.10509,202.32808 0,-18.43528 18.18275,0 18.18274,0 0,18.43528 0,18.43528 -18.18274,0 -18.18275,0 0,-18.43528 z"
       id="path3991" />
    <path
       style="fill:#ff0000;fill-opacity:0.47686833;stroke:none"
       d="m -958.10509,242.48164 0,-18.18274 18.18275,0 18.18274,0 0,18.18274 0,18.18275 -18.18274,0 -18.18275,0 0,-18.18275 z"
       id="path3993" />
    <path
       style="fill:#ff0000;fill-opacity:0.47686833;stroke:none"
       d="m -958.10509,282.38267 0,-18.18275 18.18275,0 18.18274,0 0,18.18275 0,18.18275 -18.18274,0 -18.18275,0 0,-18.18275 z"
       id="path3995" />
    <path
       style="fill:#ff0000;fill-opacity:0.47686833;stroke:none"
       d="m -958.10509,322.2837 0,-18.18275 18.18275,0 18.18274,0 0,18.18275 0,18.18274 -18.18274,0 -18.18275,0 0,-18.18274 z"
       id="path3997" />
    <path
       style="fill:#ff0000;fill-opacity:0.47686833;stroke:none"
       d="m -918.20406,322.2837 0,-18.18275 18.18274,0 18.18275,0 0,18.18275 0,18.18274 -18.18275,0 -18.18274,0 0,-18.18274 z"
       id="path3999" />
    <path
       style="fill:#ff0000;fill-opacity:0.47686833;stroke:none"
       d="m -989.16224,140.58308 c 5.22677,-0.0822 13.63629,-0.082 18.68783,2.9e-4 5.05153,0.0823 0.77508,0.14953 -9.50322,0.14937 -10.2783,-1.6e-4 -14.41137,-0.0675 -9.18461,-0.14966 z"
       id="path4001" />
    <path
       style="fill:#ff0000;fill-opacity:0.47686833;stroke:none"
       d="m -1038.3139,122.27349 0,-18.18274 18.1827,0 18.1828,0 0,18.18274 0,18.18275 -18.1828,0 -18.1827,0 0,-18.18275 z"
       id="path4003" />
    <path
       style="fill:#ff0000;fill-opacity:0.47686833;stroke:none"
       d="m -998.41291,122.27349 0,-18.18274 18.43528,0 18.43529,0 0,18.18274 0,18.18275 -18.43529,0 -18.43528,0 0,-18.18275 z"
       id="path4005" />
    <path
       style="fill:#ff0000;fill-opacity:0.47686833;stroke:none"
       d="m -1078.215,122.27349 0,-18.18274 18.1828,0 18.1827,0 0,18.18274 0,18.18275 -18.1827,0 -18.1828,0 0,-18.18275 z"
       id="path4007" />
    <path
       style="fill:#ff0000;fill-opacity:0.47686833;stroke:none"
       d="m -2021.5,107.6447 0,-18.18274 18.1828,0 18.1827,0 0,18.18274 0,18.18275 -18.1827,0 -18.1828,0 0,-18.18275 z"
       id="path4009" />
    <path
       style="fill:#ff0000;fill-opacity:0.47686833;stroke:none"
       d="m -1941.5,86.07999 0,-18.435287 18.1828,0 18.1827,0 0,18.435287 0,18.43528 -18.1827,0 -18.1828,0 0,-18.43528 z"
       id="path4011" />
    <path
       style="fill:#ff0000;fill-opacity:0.47686833;stroke:none"
       d="m -2041.5,167.6447 0,-18.43528 18.1828,0 18.1827,0 0,18.43528 0,18.43528 -18.1827,0 -18.1828,0 0,-18.43528 z"
       id="path4013" />
    <path
       style="fill:#ff0000;fill-opacity:0.47686833;stroke:none"
       d="m -1961.5,165.82744 0,-18.18274 18.1828,0 18.1827,0 0,18.18274 0,18.18275 -18.1827,0 -18.1828,0 0,-18.18275 z"
       id="path4015" />
    <path
       style="fill:#ff0000;fill-opacity:0.47686833;stroke:none"
       d="m -1941.5,247.6447 0,-18.18275 18.1828,0 18.1827,0 0,18.18275 0,18.18275 -18.1827,0 -18.1828,0 0,-18.18275 z"
       id="path4017" />
    <path
       style="fill:#ff0000;fill-opacity:0.47686833;stroke:none"
       d="m -2117.8655,229.46196 0,-18.18275 18.1828,0 18.1827,0 0,18.18275 0,18.18274 -18.1827,0 -18.1828,0 0,-18.18274 z"
       id="path4019" />
    <path
       style="fill:#ff0000;fill-opacity:0.47686833;stroke:none"
       d="m -1078.215,322.2837 0,-18.18275 18.1828,0 18.1827,0 0,18.18275 0,18.18274 -18.1827,0 -18.1828,0 0,-18.18274 z"
       id="path4021" />
    <path
       style="fill:#ff0000;fill-opacity:0.47686833;stroke:none"
       d="m -1078.215,282.38267 0,-18.18275 18.1828,0 18.1827,0 0,18.18275 0,18.18275 -18.1827,0 -18.1828,0 0,-18.18275 z"
       id="path4023" />
    <path
       style="fill:#ff0000;fill-opacity:0.47686833;stroke:none"
       d="m -1078.215,242.48164 0,-18.18274 18.1828,0 18.1827,0 0,18.18274 0,18.18275 -18.1827,0 -18.1828,0 0,-18.18275 z"
       id="path4025" />
    <path
       style="fill:#ff0000;fill-opacity:0.47686833;stroke:none"
       d="m -1038.3139,242.48164 0,-18.18274 18.1827,0 18.1828,0 0,18.18274 0,18.18275 -18.1828,0 -18.1827,0 0,-18.18275 z"
       id="path4027" />
    <path
       style="fill:#ff0000;fill-opacity:0.47686833;stroke:none"
       d="m -1038.3139,282.38267 0,-18.18275 18.1827,0 18.1828,0 0,18.18275 0,18.18275 -18.1828,0 -18.1827,0 0,-18.18275 z"
       id="path4029" />
    <path
       style="fill:#ff0000;fill-opacity:0.47686833;stroke:none"
       d="m -1038.3139,322.2837 0,-18.18275 18.1827,0 18.1828,0 0,18.18275 0,18.18274 -18.1828,0 -18.1827,0 0,-18.18274 z"
       id="path4031" />
    <path
       style="fill:#ff0000;fill-opacity:0.47686833;stroke:none"
       d="m -998.41291,322.2837 0,-18.18275 18.43528,0 18.43529,0 0,18.18275 0,18.18274 -18.43529,0 -18.43528,0 0,-18.18274 z"
       id="path4033" />
    <path
       style="fill:#ff0000;fill-opacity:0.47686833;stroke:none"
       d="m -998.41291,282.38267 0,-18.18275 18.43528,0 18.43529,0 0,18.18275 0,18.18275 -18.43529,0 -18.43528,0 0,-18.18275 z"
       id="path4035" />
    <path
       style="fill:#ff0000;fill-opacity:0.47686833;stroke:none"
       d="m -998.41291,202.32808 0,-18.43528 18.43528,0 18.43529,0 0,18.43528 0,18.43528 -18.43529,0 -18.43528,0 0,-18.43528 z"
       id="path4037" />
    <path
       style="fill:#ff0000;fill-opacity:0.47686833;stroke:none"
       d="m -1038.3139,202.32808 0,-18.43528 18.1827,0 18.1828,0 0,18.43528 0,18.43528 -18.1828,0 -18.1827,0 0,-18.43528 z"
       id="path4039" />
    <path
       style="fill:#ff0000;fill-opacity:0.47686833;stroke:none"
       d="m -1038.3139,162.42706 0,-18.43529 18.1827,0 18.1828,0 0,18.43529 0,18.43528 -18.1828,0 -18.1827,0 0,-18.43528 z"
       id="path4041" />
    <path
       style="fill:#ff0000;fill-opacity:0.47686833;stroke:none"
       d="m -998.41291,162.42706 0,-18.43529 18.43528,0 18.43529,0 0,18.43529 0,18.43528 -18.43529,0 -18.43528,0 0,-18.43528 z"
       id="path4043" />
    <path
       style="fill:#ff0000;fill-opacity:0.47686833;stroke:none"
       d="m -998.41291,242.48164 0,-18.18274 18.43528,0 18.43529,0 0,18.18274 0,18.18275 -18.43529,0 -18.43528,0 0,-18.18275 z"
       id="path4045" />
    <rect
       style="fill:#ff0000;fill-opacity:0.47686833;stroke:none"
       id="rect4049"
       width="280"
       height="280"
       x="-2181.5"
       y="-392.35529" />
    <path
       style="fill:#ff0000;fill-opacity:0.47686833;stroke:none"
       d="m -838.07416,82.021382 0,-17.142857 17.85715,0 17.85714,0 0,17.142857 0,17.142857 -17.85714,0 -17.85715,0 0,-17.142857 z"
       id="path4051" />
    <path
       style="fill:#ff0000;fill-opacity:0.47686833;stroke:none"
       d="m -838.07416,82.021382 0,-17.142857 17.85715,0 17.85714,0 0,17.142857 0,17.142857 -17.85714,0 -17.85715,0 0,-17.142857 z"
       id="path4053" />
    <path
       style="fill:#ff0000;fill-opacity:0.47686833;stroke:none"
       d="m -838.07416,82.021382 0,-17.142857 17.85715,0 17.85714,0 0,17.142857 0,17.142857 -17.85714,0 -17.85715,0 0,-17.142857 z"
       id="path4055" />
    <path
       style="fill:#ff0000;fill-opacity:0.47686833;stroke:none"
       d="m -838.07416,82.021382 0,-17.142857 17.85715,0 17.85714,0 0,17.142857 0,17.142857 -17.85714,0 -17.85715,0 0,-17.142857 z"
       id="path4057" />
    <path
       style="fill:#ff0000;fill-opacity:0.47686833;stroke:none"
       d="m -838.07416,82.021382 0,-17.142857 17.85715,0 17.85714,0 0,17.142857 0,17.142857 -17.85714,0 -17.85715,0 0,-17.142857 z"
       id="path4059" />
    <path
       style="fill:#ff0000;fill-opacity:0.47686833;stroke:none"
       d="m -838.07416,82.021382 0,-17.142857 17.85715,0 17.85714,0 0,17.142857 0,17.142857 -17.85714,0 -17.85715,0 0,-17.142857 z"
       id="path4061" />
    <path
       style="fill:#ff0000;fill-opacity:0.47686833;stroke:none"
       d="m -838.07416,82.021382 0,-17.142857 17.85715,0 17.85714,0 0,17.142857 0,17.142857 -17.85714,0 -17.85715,0 0,-17.142857 z"
       id="path4063" />
    <path
       style="fill:#ff0000;fill-opacity:0.47686833;stroke:none"
       d="m -838.07416,82.021382 0,-17.142857 17.85715,0 17.85714,0 0,17.142857 0,17.142857 -17.85714,0 -17.85715,0 0,-17.142857 z"
       id="path4065" />
    <path
       style="fill:#ff0000;fill-opacity:0.47686833;stroke:none"
       d="m -838.07416,82.021382 0,-17.142857 17.85715,0 17.85714,0 0,17.142857 0,17.142857 -17.85714,0 -17.85715,0 0,-17.142857 z"
       id="path4067" />
    <path
       style="fill:#ff0000;fill-opacity:0.47686833;stroke:none"
       d="m -838.07416,82.021382 0,-17.142857 17.85715,0 17.85714,0 0,17.142857 0,17.142857 -17.85714,0 -17.85715,0 0,-17.142857 z"
       id="path4069" />
    <path
       style="fill:#ff0000;fill-opacity:0.47686833;stroke:none"
       d="m -838.07416,82.021382 0,-17.142857 17.85715,0 17.85714,0 0,17.142857 0,17.142857 -17.85714,0 -17.85715,0 0,-17.142857 z"
       id="path4071" />
    <path
       style="fill:#ff0000;fill-opacity:0.47686833;stroke:none"
       d="m -838.07416,82.021382 0,-17.142857 17.85715,0 17.85714,0 0,17.142857 0,17.142857 -17.85714,0 -17.85715,0 0,-17.142857 z"
       id="path4073" />
    <path
       style="fill:#ff0000;fill-opacity:0.47686833;stroke:none"
       d="m -838.07416,82.021382 0,-17.142857 17.85715,0 17.85714,0 0,17.142857 0,17.142857 -17.85714,0 -17.85715,0 0,-17.142857 z"
       id="path4075" />
    <path
       style="fill:#ff0000;fill-opacity:0.47686833;stroke:none"
       d="m -838.07416,82.021382 0,-17.142857 17.85715,0 17.85714,0 0,17.142857 0,17.142857 -17.85714,0 -17.85715,0 0,-17.142857 z"
       id="path4077" />
    <path
       style="fill:#ff0000;fill-opacity:0.47686833;stroke:none"
       d="m -838.07416,82.021382 0,-17.142857 17.85715,0 17.85714,0 0,17.142857 0,17.142857 -17.85714,0 -17.85715,0 0,-17.142857 z"
       id="path4079" />
    <path
       style="fill:#ff0000;fill-opacity:0.47686833;stroke:none"
       d="m -838.07416,82.021382 0,-17.142857 17.85715,0 17.85714,0 0,17.142857 0,17.142857 -17.85714,0 -17.85715,0 0,-17.142857 z"
       id="path4081" />
    <path
       style="fill:#ff0000;fill-opacity:0.47686833;stroke:none"
       d="m -838.07416,82.021382 0,-17.142857 17.85715,0 17.85714,0 0,17.142857 0,17.142857 -17.85714,0 -17.85715,0 0,-17.142857 z"
       id="path4083" />
    <path
       style="fill:#ff0000;fill-opacity:0.47686833;stroke:none"
       d="m -838.07416,82.021382 0,-17.142857 17.85715,0 17.85714,0 0,17.142857 0,17.142857 -17.85714,0 -17.85715,0 0,-17.142857 z"
       id="path4085" />
    <path
       style="fill:#ff0000;fill-opacity:0.47686833;stroke:none"
       d="m -838.07416,82.021382 0,-17.142857 17.85715,0 17.85714,0 0,17.142857 0,17.142857 -17.85714,0 -17.85715,0 0,-17.142857 z"
       id="path4087" />
    <path
       style="fill:#ff0000;fill-opacity:0.47686833;stroke:none"
       d="m -838.07416,82.021382 0,-17.142857 17.85715,0 17.85714,0 0,17.142857 0,17.142857 -17.85714,0 -17.85715,0 0,-17.142857 z"
       id="path4089" />
    <path
       style="fill:#ff0000;fill-opacity:0.47686833;stroke:none"
       d="m -838.07416,82.021382 0,-17.142857 17.85715,0 17.85714,0 0,17.142857 0,17.142857 -17.85714,0 -17.85715,0 0,-17.142857 z"
       id="path4091" />
    <path
       style="fill:#ff0000;fill-opacity:0.47686833;stroke:none"
       d="m -838.07416,82.021382 0,-17.142857 17.85715,0 17.85714,0 0,17.142857 0,17.142857 -17.85714,0 -17.85715,0 0,-17.142857 z"
       id="path4093" />
    <path
       style="fill:#ff0000;fill-opacity:0.47686833;stroke:none"
       d="m -838.07416,82.021382 0,-17.142857 17.85715,0 17.85714,0 0,17.142857 0,17.142857 -17.85714,0 -17.85715,0 0,-17.142857 z"
       id="path4095" />
    <path
       style="fill:#ff0000;fill-opacity:0.47686833;stroke:none"
       d="m -838.07416,82.021382 0,-17.142857 17.85715,0 17.85714,0 0,17.142857 0,17.142857 -17.85714,0 -17.85715,0 0,-17.142857 z"
       id="path4097" />
    <path
       style="fill:#ff0000;fill-opacity:0.47686833;stroke:none"
       d="m -838.07416,82.021382 0,-17.142857 17.85715,0 17.85714,0 0,17.142857 0,17.142857 -17.85714,0 -17.85715,0 0,-17.142857 z"
       id="path4099" />
    <path
       style="fill:#ff0000;fill-opacity:0.47686833;stroke:none"
       d="m -838.07416,82.021382 0,-17.142857 17.85715,0 17.85714,0 0,17.142857 0,17.142857 -17.85714,0 -17.85715,0 0,-17.142857 z"
       id="path4101" />
    <path
       style="fill:#ff0000;fill-opacity:0.47686833;stroke:none"
       d="m -838.07416,82.021382 0,-17.142857 17.85715,0 17.85714,0 0,17.142857 0,17.142857 -17.85714,0 -17.85715,0 0,-17.142857 z"
       id="path4103" />
    <path
       style="fill:#ff0000;fill-opacity:0.47686833;stroke:none"
       d="m -838.07416,82.021382 0,-17.142857 17.85715,0 17.85714,0 0,17.142857 0,17.142857 -17.85714,0 -17.85715,0 0,-17.142857 z"
       id="path4105" />
    <path
       style="fill:#ff0000;fill-opacity:0.47686833;stroke:none"
       d="m -838.07416,82.021382 0,-17.142857 17.85715,0 17.85714,0 0,17.142857 0,17.142857 -17.85714,0 -17.85715,0 0,-17.142857 z"
       id="path4107" />
    <path
       style="fill:#ff0000;fill-opacity:0.47686833;stroke:none"
       d="m -597.65425,321.96722 0,-17.85714 17.85714,0 17.85715,0 0,17.85714 0,17.85714 -17.85715,0 -17.85714,0 0,-17.85714 z"
       id="path4109" />
    <path
       style="fill:#ff0000;fill-opacity:0.47686833;stroke:none"
       d="m -597.65425,321.96722 0,-17.85714 17.85714,0 17.85715,0 0,17.85714 0,17.85714 -17.85715,0 -17.85714,0 0,-17.85714 z"
       id="path4111" />
    <path
       style="fill:#ff0000;fill-opacity:0.47686833;stroke:none"
       d="m -597.65425,321.96722 0,-17.85714 17.85714,0 17.85715,0 0,17.85714 0,17.85714 -17.85715,0 -17.85714,0 0,-17.85714 z"
       id="path4113" />
    <path
       style="fill:#ff0000;fill-opacity:0.47686833;stroke:none"
       d="m -597.65425,321.96722 0,-17.85714 17.85714,0 17.85715,0 0,17.85714 0,17.85714 -17.85715,0 -17.85714,0 0,-17.85714 z"
       id="path4115" />
    <path
       style="fill:#ff0000;fill-opacity:0.47686833;stroke:none"
       d="m -597.65425,321.96722 0,-17.85714 17.85714,0 17.85715,0 0,17.85714 0,17.85714 -17.85715,0 -17.85714,0 0,-17.85714 z"
       id="path4117" />
    <path
       style="fill:#ff0000;fill-opacity:0.47686833;stroke:none"
       d="m -597.65425,321.96722 0,-17.85714 17.85714,0 17.85715,0 0,17.85714 0,17.85714 -17.85715,0 -17.85714,0 0,-17.85714 z"
       id="path4119" />
    <path
       style="fill:#ff0000;fill-opacity:0.47686833;stroke:none"
       d="m -597.65425,321.96722 0,-17.85714 17.85714,0 17.85715,0 0,17.85714 0,17.85714 -17.85715,0 -17.85714,0 0,-17.85714 z"
       id="path4121" />
    <path
       style="fill:#ff0000;fill-opacity:0.47686833;stroke:none"
       d="m -597.65425,321.96722 0,-17.85714 17.85714,0 17.85715,0 0,17.85714 0,17.85714 -17.85715,0 -17.85714,0 0,-17.85714 z"
       id="path4123" />
    <path
       style="fill:#ff0000;fill-opacity:0.47686833;stroke:none"
       d="m -597.65425,321.96722 0,-17.85714 17.85714,0 17.85715,0 0,17.85714 0,17.85714 -17.85715,0 -17.85714,0 0,-17.85714 z"
       id="path4125" />
    <path
       style="fill:#ff0000;fill-opacity:0.47686833;stroke:none"
       d="m -597.65425,321.96722 0,-17.85714 17.85714,0 17.85715,0 0,17.85714 0,17.85714 -17.85715,0 -17.85714,0 0,-17.85714 z"
       id="path4127" />
    <path
       style="fill:#ff0000;fill-opacity:0.47686833;stroke:none"
       d="m -588.66627,340.19222 c 5.33625,-0.27561 13.6934,-0.27357 18.57143,0.005 4.87804,0.27811 0.51202,0.50361 -9.70227,0.50112 -10.21428,-0.002 -14.2054,-0.23005 -8.86916,-0.50566 z"
       id="path4129" />
    <path
       style="fill:#ff0000;fill-opacity:0.47686833;stroke:none"
       d="m -573.63639,340.27706 c 1.03125,-0.41268 2.26339,-0.36192 2.73809,0.11278 0.47471,0.4747 -0.36904,0.81234 -1.875,0.75031 -1.6642,-0.0686 -2.00271,-0.40706 -0.86309,-0.86309 z"
       id="path4131" />
    <path
       style="fill:#ff0000;fill-opacity:0.47686833;stroke:none"
       d=""
       id="path4133" />
    <path
       style="fill:#ff0000;fill-opacity:0.47686833;stroke:none"
       d="m -597.65425,321.96722 0,-17.85714 17.85714,0 17.85715,0 0,17.85714 0,17.85714 -17.85715,0 -17.85714,0 0,-17.85714 z"
       id="path4135" />
    <path
       style="fill:#ff0000;fill-opacity:0.47686833;stroke:none"
       d="m -597.65425,321.96722 0,-17.85714 17.85714,0 17.85715,0 0,17.85714 0,17.85714 -17.85715,0 -17.85714,0 0,-17.85714 z"
       id="path4137" />
    <path
       style="fill:#ff0000;fill-opacity:0.47686833;stroke:none"
       d="m -597.65425,321.96722 0,-17.85714 17.85714,0 17.85715,0 0,17.85714 0,17.85714 -17.85715,0 -17.85714,0 0,-17.85714 z"
       id="path4139" />
    <path
       style="fill:#ff0000;fill-opacity:0.47686833;stroke:none"
       d="m -597.65425,321.96722 0,-17.85714 17.85714,0 17.85715,0 0,17.85714 0,17.85714 -17.85715,0 -17.85714,0 0,-17.85714 z"
       id="path4141" />
    <path
       style="fill:#ff0000;fill-opacity:0.47686833;stroke:none"
       d="m -597.65425,321.96722 0,-17.85714 17.85714,0 17.85715,0 0,17.85714 0,17.85714 -17.85715,0 -17.85714,0 0,-17.85714 z"
       id="path4143" />
    <path
       style="fill:none;stroke:#000000;stroke-width:3;stroke-linecap:butt;stroke-linejoin:miter;stroke-miterlimit:4;stroke-opacity:1;stroke-dasharray:none"
       d="m -1081.5,-177.3553 c 156.48986,-107.84537 327.62309,-118.06827 500,-120"
       id="path4328"
       sodipodi:nodetypes="cc" />
    <path
       sodipodi:nodetypes="cc"
       id="path4330"
       d="m 120.5,-177.3553 c -156.48986,-107.84537 -327.62309,-118.06827 -500,-120"
       style="fill:none;stroke:#000000;stroke-width:3;stroke-linecap:butt;stroke-linejoin:miter;stroke-miterlimit:4;stroke-opacity:1;stroke-dasharray:none" />
    <text
       xml:space="preserve"
       style="font-size:60.16065598px;font-style:normal;font-weight:normal;fill:#000000;fill-opacity:1;stroke:none;font-family:Bitstream Vera Sans"
       x="-541.5"
       y="-272.35529"
       id="text4332"><tspan
         sodipodi:role="line"
         id="tspan4334"
         x="-541.5"
         y="-272.35529">640</tspan></text>
    <path
       style="fill:none;stroke:#000000;stroke-width:3;stroke-linecap:butt;stroke-linejoin:miter;stroke-miterlimit:4;stroke-opacity:1;stroke-dasharray:none"
       d="M 0.35714286,1.7189189 C -73.571168,126.68493 -80.311605,256.45007 -80,386.71893"
       id="path4336"
       transform="translate(-1081.5,-179.07423)"
       sodipodi:nodetypes="cc" />
    <path
       sodipodi:nodetypes="cc"
       id="path4338"
       d="m -1081.5,687.6447 c -73.9283,-124.96601 -80.6687,-254.73115 -80.3571,-385.00001"
       style="fill:none;stroke:#000000;stroke-width:3;stroke-linecap:butt;stroke-linejoin:miter;stroke-miterlimit:4;stroke-opacity:1;stroke-dasharray:none" />
    <text
       id="text4340"
       y="277.64471"
       x="-1221.5"
       style="font-size:60.16065598px;font-style:normal;font-weight:normal;fill:#000000;fill-opacity:1;stroke:none;font-family:Bitstream Vera Sans"
       xml:space="preserve"><tspan
         y="277.64471"
         x="-1221.5"
         id="tspan4342"
         sodipodi:role="line">512</tspan></text>
    <path
       style="fill:none;stroke:#000000;stroke-width:3;stroke-linecap:butt;stroke-linejoin:miter;stroke-opacity:1;stroke-miterlimit:4;stroke-dasharray:none"
       d="M 137.76786,140.25764 C 228.88816,175.93152 285.96011,177.55705 340,176.15051"
       id="path4344"
       transform="translate(-1216.8587,-317.00577)"
       sodipodi:nodetypes="cc" />
    <path
       sodipodi:nodetypes="cc"
       id="path4346"
       d="m -561.8587,-175.85526 c -91.1203,35.67388 -148.1922,37.29941 -202.2321,35.89287"
       style="fill:none;stroke:#000000;stroke-width:3;stroke-linecap:butt;stroke-linejoin:miter;stroke-miterlimit:4;stroke-opacity:1;stroke-dasharray:none" />
    <text
       id="text4348"
       y="-125.85526"
       x="-861.8587"
       style="font-size:45.4694252px;font-style:normal;font-weight:normal;fill:#000000;fill-opacity:1;stroke:none;font-family:Bitstream Vera Sans"
       xml:space="preserve"><tspan
         y="-125.85526"
         x="-861.8587"
         id="tspan4350"
         sodipodi:role="line">277</tspan></text>
  </g>
</svg>
