<?xml version="1.0" encoding="UTF-8" standalone="no"?>
<!-- Created with Inkscape (http://www.inkscape.org/) -->

<svg
   xmlns:dc="http://purl.org/dc/elements/1.1/"
   xmlns:cc="http://creativecommons.org/ns#"
   xmlns:rdf="http://www.w3.org/1999/02/22-rdf-syntax-ns#"
   xmlns:svg="http://www.w3.org/2000/svg"
   xmlns="http://www.w3.org/2000/svg"
   xmlns:sodipodi="http://sodipodi.sourceforge.net/DTD/sodipodi-0.dtd"
   xmlns:inkscape="http://www.inkscape.org/namespaces/inkscape"
   width="1665"
   height="673.5"
   id="svg2"
   version="1.1"
   inkscape:version="0.47 r22583"
   sodipodi:docname="pooling.pdf">
  <defs
     id="defs4">
    <marker
       inkscape:stockid="Arrow1Lend"
       orient="auto"
       refY="0"
       refX="0"
       id="Arrow1Lend"
       style="overflow:visible">
      <path
         id="path3868"
         d="M 0,0 5,-5 -12.5,0 5,5 0,0 z"
         style="fill-rule:evenodd;stroke:#000000;stroke-width:1pt;marker-start:none"
         transform="matrix(-0.8,0,0,-0.8,-10,0)" />
    </marker>
    <marker
       inkscape:stockid="Arrow1Lstart"
       orient="auto"
       refY="0"
       refX="0"
       id="Arrow1Lstart"
       style="overflow:visible">
      <path
         id="path3865"
         d="M 0,0 5,-5 -12.5,0 5,5 0,0 z"
         style="fill-rule:evenodd;stroke:#000000;stroke-width:1pt;marker-start:none"
         transform="matrix(0.8,0,0,0.8,10,0)" />
    </marker>
    <inkscape:path-effect
       effect="construct_grid"
       id="path-effect3850"
       is_visible="true"
       nr_x="2"
       nr_y="2" />
    <inkscape:path-effect
       effect="construct_grid"
       id="path-effect3845"
       is_visible="true"
       nr_x="4"
       nr_y="4" />
    <inkscape:path-effect
       effect="construct_grid"
       id="path-effect3806"
       is_visible="true"
       nr_x="4"
       nr_y="4" />
    <inkscape:path-effect
       effect="construct_grid"
       id="path-effect3801"
       is_visible="true"
       nr_x="8"
       nr_y="8" />
    <inkscape:path-effect
       effect="construct_grid"
       id="path-effect3660"
       is_visible="true"
       nr_x="8"
       nr_y="8" />
    <inkscape:path-effect
       effect="construct_grid"
       id="path-effect3655"
       is_visible="true"
       nr_x="16"
       nr_y="16" />
    <inkscape:perspective
       sodipodi:type="inkscape:persp3d"
       inkscape:vp_x="0 : 526.18109 : 1"
       inkscape:vp_y="0 : 1000 : 0"
       inkscape:vp_z="744.09448 : 526.18109 : 1"
       inkscape:persp3d-origin="372.04724 : 350.78739 : 1"
       id="perspective10" />
  </defs>
  <sodipodi:namedview
     id="base"
     pagecolor="#ffffff"
     bordercolor="#666666"
     borderopacity="1.0"
     inkscape:pageopacity="0.0"
     inkscape:pageshadow="2"
     inkscape:zoom="0.49497475"
     inkscape:cx="1104.71"
     inkscape:cy="250.31047"
     inkscape:document-units="px"
     inkscape:current-layer="layer1"
     showgrid="true"
     inkscape:window-width="1920"
     inkscape:window-height="1003"
     inkscape:window-x="0"
     inkscape:window-y="25"
     inkscape:window-maximized="1">
    <inkscape:grid
       type="xygrid"
       id="grid2878"
       empspacing="5"
       visible="true"
       enabled="true"
       snapvisiblegridlinesonly="true" />
  </sodipodi:namedview>
  <metadata
     id="metadata7">
    <rdf:RDF>
      <cc:Work
         rdf:about="">
        <dc:format>image/svg+xml</dc:format>
        <dc:type
           rdf:resource="http://purl.org/dc/dcmitype/StillImage" />
        <dc:title></dc:title>
      </cc:Work>
    </rdf:RDF>
  </metadata>
  <g
     inkscape:label="レイヤー 1"
     inkscape:groupmode="layer"
     id="layer1"
     transform="translate(1722.5,30.137817)">
    <path
       style="fill:none;stroke:#000000;stroke-width:1;stroke-miterlimit:4;stroke-opacity:1;stroke-dashoffset:0"
       d="m -1080,-27.637817 -640,0 m 640,40 -640,0 m 640,40 -640,0 m 640,40 -640,0 m 640,39.999997 -640,0 m 640,40 -640,0 m 640,40 -640,0 m 640,40 -640,0 m 640,40 -640,0 m 640,40 -640,0 m 640,40 -640,0 m 640,40 -640,0 m 640,40 -640,0 m 640,40 -640,0 m 640,40 -640,0 m 640,40 -640,0 m 640,40 -640,0 m 640,-639.999997 0,639.999997 m -40,-639.999997 0,639.999997 m -40,-639.999997 0,639.999997 m -40,-639.999997 0,639.999997 m -40,-639.999997 0,639.999997 m -40,-639.999997 0,639.999997 m -40,-639.999997 0,639.999997 m -40,-639.999997 0,639.999997 m -40,-639.999997 0,639.999997 m -40,-639.999997 0,639.999997 m -40,-639.999997 0,639.999997 m -40,-639.999997 0,639.999997 m -40,-639.999997 0,639.999997 m -40,-639.999997 0,639.999997 m -40,-639.999997 0,639.999997 m -40,-639.999997 0,639.999997 m -40,-639.999997 0,639.999997"
       id="rect2880"
       inkscape:path-effect="#path-effect3655"
       inkscape:original-d="m -1120,-27.637817 40,0 0,40 -40,0 0,-40 z" />
    <path
       style="fill:none;stroke:#000000;stroke-width:5;stroke-miterlimit:4;stroke-opacity:1;stroke-dasharray:none;stroke-dashoffset:0"
       d="m -1080,-27.637817 -640,0 m 640,80 -640,0 m 640,79.999997 -640,0 m 640,80 -640,0 m 640,80 -640,0 m 640,80 -640,0 m 640,80 -640,0 m 640,80 -640,0 m 640,80 -640,0 m 640,-639.999997 0,639.999997 m -80,-639.999997 0,639.999997 m -80,-639.999997 0,639.999997 m -80,-639.999997 0,639.999997 m -80,-639.999997 0,639.999997 m -80,-639.999997 0,639.999997 m -80,-639.999997 0,639.999997 m -80,-639.999997 0,639.999997 m -80,-639.999997 0,639.999997"
       id="rect3657"
       inkscape:path-effect="#path-effect3660"
       inkscape:original-d="m -1160,-27.637817 80,0 0,80 -80,0 0,-80 z" />
    <path
       style="fill:#000000;fill-opacity:0.39145909;stroke:none"
       d="m -1678.1631,31.994762 0,-17.857143 17.1428,0 17.1429,0 0,17.857143 0,17.857142 -17.1429,0 -17.1428,0 0,-17.857142 z"
       id="path3664" />
    <path
       style="fill:#000000;fill-opacity:0.39145909;stroke:none"
       d="m -1598.1631,-6.576667 0,-17.857143 17.1428,0 17.1429,0 0,17.857143 0,17.857143 -17.1429,0 -17.1428,0 0,-17.857143 z"
       id="path3666" />
    <path
       style="fill:#000000;fill-opacity:0.39145909;stroke:none"
       d="m -1556.7346,-6.576667 0,-17.857143 17.8572,0 17.8571,0 0,17.857143 0,17.857143 -17.8571,0 -17.8572,0 0,-17.857143 z"
       id="path3668" />
    <path
       style="fill:#000000;fill-opacity:0.39145909;stroke:none"
       d="m -1476.7346,31.994762 0,-17.857143 17.8572,0 17.8571,0 0,17.857143 0,17.857142 -17.8571,0 -17.8572,0 0,-17.857142 z"
       id="path3670" />
    <path
       style="fill:#000000;fill-opacity:0.39145909;stroke:none"
       d="m -1396.7346,-6.576667 0,-17.857143 17.8572,0 17.8571,0 0,17.857143 0,17.857143 -17.8571,0 -17.8572,0 0,-17.857143 z"
       id="path3672" />
    <path
       style="fill:#000000;fill-opacity:0.39145909;stroke:none"
       d="m -1316.7346,-6.576667 0,-17.857143 17.8572,0 17.8571,0 0,17.857143 0,17.857143 -17.8571,0 -17.8572,0 0,-17.857143 z"
       id="path3674" />
    <path
       style="fill:#000000;fill-opacity:0.39145909;stroke:none"
       d="m -1236.7346,31.994762 0,-17.857143 17.8572,0 17.8571,0 0,17.857143 0,17.857142 -17.8571,0 -17.8572,0 0,-17.857142 z"
       id="path3676" />
    <path
       style="fill:#000000;fill-opacity:0.39145909;stroke:none"
       d="m -1156.7346,-6.576667 0,-17.857143 17.8572,0 17.8571,0 0,17.857143 0,17.857143 -17.8571,0 -17.8572,0 0,-17.857143 z"
       id="path3678" />
    <path
       style="fill:#000000;fill-opacity:0.39145909;stroke:none"
       d="m -1118.1631,111.99476 0,-17.857141 17.1428,0 17.1429,0 0,17.857141 0,17.85714 -17.1429,0 -17.1428,0 0,-17.85714 z"
       id="path3680" />
    <path
       style="fill:#000000;fill-opacity:0.39145909;stroke:none"
       d="m -1198.1631,111.99476 0,-17.857141 17.1428,0 17.1429,0 0,17.857141 0,17.85714 -17.1429,0 -17.1428,0 0,-17.85714 z"
       id="path3682" />
    <path
       style="fill:#000000;fill-opacity:0.39145909;stroke:none"
       d="m -1278.1631,73.423333 0,-17.857143 17.1428,0 17.1429,0 0,17.857143 0,17.857143 -17.1429,0 -17.1428,0 0,-17.857143 z"
       id="path3684" />
    <path
       style="fill:#000000;fill-opacity:0.39145909;stroke:none"
       d="m -1358.1631,111.99476 0,-17.857141 17.1428,0 17.1429,0 0,17.857141 0,17.85714 -17.1429,0 -17.1428,0 0,-17.85714 z"
       id="path3686" />
    <path
       style="fill:#000000;fill-opacity:0.39145909;stroke:none"
       d="m -1439.1301,73.505271 0,-17.67767 18.1827,0 18.1828,0 0,17.67767 0,17.677669 -18.1828,0 -18.1827,0 0,-17.677669 z"
       id="path3688" />
    <path
       style="fill:#000000;fill-opacity:0.39145909;stroke:none"
       d="m -1518.9322,73.505271 0,-17.67767 18.1828,0 18.1827,0 0,17.67767 0,17.677669 -18.1827,0 -18.1828,0 0,-17.677669 z"
       id="path3690" />
    <path
       style="fill:#000000;fill-opacity:0.39145909;stroke:none"
       d="m -1637.12,111.38599 0,-18.182745 18.1827,0 18.1828,0 0,18.182745 0,18.18275 -18.1828,0 -18.1827,0 0,-18.18275 z"
       id="path3692" />
    <path
       style="fill:#000000;fill-opacity:0.39145909;stroke:none"
       d="m -1716.9221,111.38599 0,-18.182745 18.1828,0 18.1827,0 0,18.182745 0,18.18275 -18.1827,0 -18.1828,0 0,-18.18275 z"
       id="path3694" />
    <path
       style="fill:#000000;fill-opacity:0.39145909;stroke:none"
       d="m -1716.9221,153.30732 0,-17.67767 18.1828,0 18.1827,0 0,17.67767 0,17.67767 -18.1827,0 -18.1828,0 0,-17.67767 z"
       id="path3696" />
    <path
       style="fill:#000000;fill-opacity:0.39145909;stroke:none"
       d="m -1598.7342,153.30732 0,-17.67767 17.6776,0 17.6777,0 0,17.67767 0,17.67767 -17.6777,0 -17.6776,0 0,-17.67767 z"
       id="path3698" />
    <path
       style="fill:#000000;fill-opacity:0.39145909;stroke:none"
       d="m -1557.318,153.30732 0,-17.67767 18.1828,0 18.1827,0 0,17.67767 0,17.67767 -18.1827,0 -18.1828,0 0,-17.67767 z"
       id="path3700" />
    <path
       style="fill:#000000;fill-opacity:0.39145909;stroke:none"
       d="m -1476.5058,153.30732 0,-17.67767 17.6777,0 17.6777,0 0,17.67767 0,17.67767 -17.6777,0 -17.6777,0 0,-17.67767 z"
       id="path3702" />
    <path
       style="fill:#000000;fill-opacity:0.39145909;stroke:none"
       d="m -1476.5058,233.61445 0,-18.18275 17.6777,0 17.6777,0 0,18.18275 0,18.18274 -17.6777,0 -17.6777,0 0,-18.18274 z"
       id="path3704" />
    <path
       style="fill:#000000;fill-opacity:0.39145909;stroke:none"
       d="m -1557.318,233.61445 0,-18.18275 18.1828,0 18.1827,0 0,18.18275 0,18.18274 -18.1827,0 -18.1828,0 0,-18.18274 z"
       id="path3706" />
    <path
       style="fill:#000000;fill-opacity:0.39145909;stroke:none"
       d="m -1598.7342,233.61445 0,-18.18275 17.6776,0 17.6777,0 0,18.18275 0,18.18274 -17.6777,0 -17.6776,0 0,-18.18274 z"
       id="path3708" />
    <path
       style="fill:#000000;fill-opacity:0.39145909;stroke:none"
       d="m -1396.7037,153.30732 0,-17.67767 17.6776,0 17.6777,0 0,17.67767 0,17.67767 -17.6777,0 -17.6776,0 0,-17.67767 z"
       id="path3710" />
    <path
       style="fill:#000000;fill-opacity:0.39145909;stroke:none"
       d="m -1396.7037,271.49517 0,-17.67767 17.6776,0 17.6777,0 0,17.67767 0,17.67767 -17.6777,0 -17.6776,0 0,-17.67767 z"
       id="path3712" />
    <path
       style="fill:#000000;fill-opacity:0.39145909;stroke:none"
       d="m -1439.1301,313.4165 0,-18.18275 18.1827,0 18.1828,0 0,18.18275 0,18.18275 -18.1828,0 -18.1827,0 0,-18.18275 z"
       id="path3714" />
    <path
       style="fill:#000000;fill-opacity:0.39145909;stroke:none"
       d="m -1396.7037,313.4165 0,-18.18275 17.6776,0 17.6777,0 0,18.18275 0,18.18275 -17.6777,0 -17.6776,0 0,-18.18275 z"
       id="path3716" />
    <path
       style="fill:#000000;fill-opacity:0.39145909;stroke:none"
       d="m -1518.9322,313.4165 0,-18.18275 18.1828,0 18.1827,0 0,18.18275 0,18.18275 -18.1827,0 -18.1828,0 0,-18.18275 z"
       id="path3718" />
    <path
       style="fill:#000000;fill-opacity:0.39145909;stroke:none"
       d="m -1598.7342,313.4165 0,-18.18275 17.6776,0 17.6777,0 0,18.18275 0,18.18275 -17.6777,0 -17.6776,0 0,-18.18275 z"
       id="path3720" />
    <path
       style="fill:#000000;fill-opacity:0.39145909;stroke:none"
       d="m -1678.5363,313.4165 0,-18.18275 17.6777,0 17.6776,0 0,18.18275 0,18.18275 -17.6776,0 -17.6777,0 0,-18.18275 z"
       id="path3722" />
    <path
       style="fill:#000000;fill-opacity:0.39145909;stroke:none"
       d="m -1678.5363,233.61445 0,-18.18275 17.6777,0 17.6776,0 0,18.18275 0,18.18274 -17.6776,0 -17.6777,0 0,-18.18274 z"
       id="path3724" />
    <path
       style="fill:#000000;fill-opacity:0.39145909;stroke:none"
       d="m -1316.9017,233.61445 0,-18.18275 18.1828,0 18.1827,0 0,18.18275 0,18.18274 -18.1827,0 -18.1828,0 0,-18.18274 z"
       id="path3726" />
    <path
       style="fill:#000000;fill-opacity:0.39145909;stroke:none"
       d="m -1316.9017,313.4165 0,-18.18275 18.1828,0 18.1827,0 0,18.18275 0,18.18275 -18.1827,0 -18.1828,0 0,-18.18275 z"
       id="path3728" />
    <path
       style="fill:#000000;fill-opacity:0.39145909;stroke:none"
       d="m -1237.0996,351.29722 0,-17.67767 18.1827,0 18.1828,0 0,17.67767 0,17.67767 -18.1828,0 -18.1827,0 0,-17.67767 z"
       id="path3730" />
    <path
       style="fill:#000000;fill-opacity:0.39145909;stroke:none"
       d="m -1157.2976,351.29722 0,-17.67767 18.1828,0 18.1827,0 0,17.67767 0,17.67767 -18.1827,0 -18.1828,0 0,-17.67767 z"
       id="path3732" />
    <path
       style="fill:#000000;fill-opacity:0.39145909;stroke:none"
       d="m -1198.7138,393.21855 0,-18.18274 17.6776,0 17.6777,0 0,18.18274 0,18.18275 -17.6777,0 -17.6776,0 0,-18.18275 z"
       id="path3734" />
    <path
       style="fill:#000000;fill-opacity:0.39145909;stroke:none"
       d="m -1157.2976,431.60435 0,-18.18275 18.1828,0 18.1827,0 0,18.18275 0,18.18274 -18.1827,0 -18.1828,0 0,-18.18274 z"
       id="path3736" />
    <path
       style="fill:#000000;fill-opacity:0.39145909;stroke:none"
       d="m -1198.7138,473.52568 0,-17.67767 17.6776,0 17.6777,0 0,17.67767 0,17.67767 -17.6777,0 -17.6776,0 0,-17.67767 z"
       id="path3738" />
    <path
       style="fill:#000000;fill-opacity:0.39145909;stroke:none"
       d="m -1198.7138,553.32773 0,-17.67767 17.6776,0 17.6777,0 0,17.67767 0,17.67767 -17.6777,0 -17.6776,0 0,-17.67767 z"
       id="path3740" />
    <path
       style="fill:#000000;fill-opacity:0.39145909;stroke:none"
       d="m -1157.2976,553.32773 0,-17.67767 18.1828,0 18.1827,0 0,17.67767 0,17.67767 -18.1827,0 -18.1828,0 0,-17.67767 z"
       id="path3742" />
    <path
       style="fill:#000000;fill-opacity:0.39145909;stroke:none"
       d="m -1157.2976,473.52568 0,-17.67767 18.1828,0 18.1827,0 0,17.67767 0,17.67767 -18.1827,0 -18.1828,0 0,-17.67767 z"
       id="path3744" />
    <path
       style="fill:#000000;fill-opacity:0.39145909;stroke:none"
       d="m -1198.7138,271.49517 0,-17.67767 17.6776,0 17.6777,0 0,17.67767 0,17.67767 -17.6777,0 -17.6776,0 0,-17.67767 z"
       id="path3746" />
    <path
       style="fill:#000000;fill-opacity:0.39145909;stroke:none"
       d="m -1157.2976,233.61445 0,-18.18275 18.1828,0 18.1827,0 0,18.18275 0,18.18274 -18.1827,0 -18.1828,0 0,-18.18274 z"
       id="path3748" />
    <path
       style="fill:#000000;fill-opacity:0.39145909;stroke:none"
       d="m -1157.2976,153.30732 0,-17.67767 18.1828,0 18.1827,0 0,17.67767 0,17.67767 -18.1827,0 -18.1828,0 0,-17.67767 z"
       id="path3750" />
    <path
       style="fill:#000000;fill-opacity:0.39145909;stroke:none"
       d="m -1237.0996,191.18804 0,-18.18274 18.1827,0 18.1828,0 0,18.18274 0,18.18275 -18.1828,0 -18.1827,0 0,-18.18275 z"
       id="path3752" />
    <path
       style="fill:#000000;fill-opacity:0.39145909;stroke:none"
       d="m -1278.5159,153.30732 0,-17.67767 17.6777,0 17.6777,0 0,17.67767 0,17.67767 -17.6777,0 -17.6777,0 0,-17.67767 z"
       id="path3754" />
    <path
       style="fill:#000000;fill-opacity:0.39145909;stroke:none"
       d="m -1316.9017,393.21855 0,-18.18274 18.1828,0 18.1827,0 0,18.18274 0,18.18275 -18.1827,0 -18.1828,0 0,-18.18275 z"
       id="path3756" />
    <path
       style="fill:#000000;fill-opacity:0.39145909;stroke:none"
       d="m -1359.3281,393.21855 0,-18.18274 18.1828,0 18.1827,0 0,18.18274 0,18.18275 -18.1827,0 -18.1828,0 0,-18.18275 z"
       id="path3758" />
    <path
       style="fill:#000000;fill-opacity:0.39145909;stroke:none"
       d="m -1439.1301,393.21855 0,-18.18274 18.1827,0 18.1828,0 0,18.18274 0,18.18275 -18.1828,0 -18.1827,0 0,-18.18275 z"
       id="path3760" />
    <path
       style="fill:#000000;fill-opacity:0.39145909;stroke:none"
       d="m -1557.318,393.21855 0,-18.18274 18.1828,0 18.1827,0 0,18.18274 0,18.18275 -18.1827,0 -18.1828,0 0,-18.18275 z"
       id="path3762" />
    <path
       style="fill:#000000;fill-opacity:0.39145909;stroke:none"
       d="m -1598.7342,431.60435 0,-18.18275 17.6776,0 17.6777,0 0,18.18275 0,18.18274 -17.6777,0 -17.6776,0 0,-18.18274 z"
       id="path3764" />
    <path
       style="fill:#000000;fill-opacity:0.39145909;stroke:none"
       d="m -1678.5363,393.21855 0,-18.18274 17.6777,0 17.6776,0 0,18.18274 0,18.18275 -17.6776,0 -17.6777,0 0,-18.18275 z"
       id="path3766" />
    <path
       style="fill:#000000;fill-opacity:0.39145909;stroke:none"
       d="m -1678.5363,473.52568 0,-17.67767 17.6777,0 17.6776,0 0,17.67767 0,17.67767 -17.6776,0 -17.6777,0 0,-17.67767 z"
       id="path3768" />
    <path
       style="fill:#000000;fill-opacity:0.39145909;stroke:none"
       d="m -1678.5363,553.32773 0,-17.67767 17.6777,0 17.6776,0 0,17.67767 0,17.67767 -17.6776,0 -17.6777,0 0,-17.67767 z"
       id="path3770" />
    <path
       style="fill:#000000;fill-opacity:0.39145909;stroke:none"
       d="m -1637.12,511.4064 0,-18.18275 18.1827,0 18.1828,0 0,18.18275 0,18.18274 -18.1828,0 -18.1827,0 0,-18.18274 z"
       id="path3772" />
    <path
       style="fill:#000000;fill-opacity:0.39145909;stroke:none"
       d="m -1598.7342,553.32773 0,-17.67767 17.6776,0 17.6777,0 0,17.67767 0,17.67767 -17.6777,0 -17.6776,0 0,-17.67767 z"
       id="path3774" />
    <path
       style="fill:#000000;fill-opacity:0.39145909;stroke:none"
       d="m -1557.318,511.4064 0,-18.18275 18.1828,0 18.1827,0 0,18.18275 0,18.18274 -18.1827,0 -18.1828,0 0,-18.18274 z"
       id="path3776" />
    <path
       style="fill:#000000;fill-opacity:0.39145909;stroke:none"
       d="m -1518.9322,553.32773 0,-17.67767 18.1828,0 18.1827,0 0,17.67767 0,17.67767 -18.1827,0 -18.1828,0 0,-17.67767 z"
       id="path3778" />
    <path
       style="fill:#000000;fill-opacity:0.39145909;stroke:none"
       d="m -1476.5058,511.4064 0,-18.18275 17.6777,0 17.6777,0 0,18.18275 0,18.18274 -17.6777,0 -17.6777,0 0,-18.18274 z"
       id="path3780" />
    <path
       style="fill:#000000;fill-opacity:0.39145909;stroke:none"
       d="m -1396.7037,473.52568 0,-17.67767 17.6776,0 17.6777,0 0,17.67767 0,17.67767 -17.6777,0 -17.6776,0 0,-17.67767 z"
       id="path3782" />
    <path
       style="fill:#000000;fill-opacity:0.39145909;stroke:none"
       d="m -1439.1301,553.32773 0,-17.67767 18.1827,0 18.1828,0 0,17.67767 0,17.67767 -18.1828,0 -18.1827,0 0,-17.67767 z"
       id="path3784" />
    <path
       style="fill:#000000;fill-opacity:0.39145909;stroke:none"
       d="m -1359.3281,553.32773 0,-17.67767 18.1828,0 18.1827,0 0,17.67767 0,17.67767 -18.1827,0 -18.1828,0 0,-17.67767 z"
       id="path3786" />
    <path
       style="fill:#000000;fill-opacity:0.39145909;stroke:none"
       d="m -1316.9017,473.52568 0,-17.67767 18.1828,0 18.1827,0 0,17.67767 0,17.67767 -18.1827,0 -18.1828,0 0,-17.67767 z"
       id="path3788" />
    <path
       style="fill:#000000;fill-opacity:0.39145909;stroke:none"
       d="m -1278.5159,553.32773 0,-17.67767 17.6777,0 17.6777,0 0,17.67767 0,17.67767 -17.6777,0 -17.6777,0 0,-17.67767 z"
       id="path3790" />
    <rect
       style="fill:#000000;fill-opacity:0.39145909;stroke:#000000;stroke-opacity:1"
       id="rect3792"
       width="40"
       height="40"
       x="-602.5"
       y="602.86218" />
    <text
       xml:space="preserve"
       style="font-size:40px;font-style:normal;font-weight:normal;fill:#000000;fill-opacity:1;stroke:none;font-family:Bitstream Vera Sans"
       x="-542.5"
       y="637.86218"
       id="text3794"><tspan
         sodipodi:role="line"
         id="tspan3796"
         x="-542.5"
         y="637.86218">領域内の最大値画素</tspan></text>
    <path
       style="fill:none;stroke:#000000;stroke-width:1;stroke-miterlimit:4;stroke-opacity:1;stroke-dashoffset:0"
       d="m -480,132.36218 -320,0 m 320,40 -320,0 m 320,40 -320,0 m 320,40 -320,0 m 320,40 -320,0 m 320,40 -320,0 m 320,40 -320,0 m 320,40 -320,0 m 320,40 -320,0 m 320,-320 0,320 m -40,-320 0,320 m -40,-320 0,320 m -40,-320 0,320 m -40,-320 0,320 m -40,-320 0,320 m -40,-320 0,320 m -40,-320 0,320 m -40,-320 0,320"
       id="rect3798"
       inkscape:path-effect="#path-effect3801"
       inkscape:original-d="m -520,132.36218 40,0 0,40 -40,0 0,-40 z" />
    <path
       style="fill:none;stroke:#000000;stroke-width:5;stroke-miterlimit:4;stroke-opacity:1;stroke-dashoffset:0"
       d="m -480,132.36218 -320,0 m 320,80 -320,0 m 320,80 -320,0 m 320,80 -320,0 m 320,80 -320,0 m 320,-320 0,320 m -80,-320 0,320 m -80,-320 0,320 m -80,-320 0,320 m -80,-320 0,320"
       id="rect3803"
       inkscape:path-effect="#path-effect3806"
       inkscape:original-d="m -560,132.36218 80,0 0,80 -80,0 0,-80 z" />
    <path
       style="fill:#000000;fill-opacity:0.39145909;stroke:none"
       d="m -519.24471,431.65494 0,-17.85715 17.85714,0 17.85714,0 0,17.85715 0,17.85714 -17.85714,0 -17.85714,0 0,-17.85714 z"
       id="path3808" />
    <path
       style="fill:#000000;fill-opacity:0.39145909;stroke:none"
       d="m -556.38757,351.65494 0,-17.85715 17.85714,0 17.85714,0 0,17.85715 0,17.85714 -17.85714,0 -17.85714,0 0,-17.85714 z"
       id="path3810" />
    <path
       style="fill:#000000;fill-opacity:0.39145909;stroke:none"
       d="m -599.24471,393.08351 0,-17.85715 17.85714,0 17.85714,0 0,17.85715 0,17.85714 -17.85714,0 -17.85714,0 0,-17.85714 z"
       id="path3812" />
    <path
       style="fill:#000000;fill-opacity:0.39145909;stroke:none"
       d="m -599.24471,351.65494 0,-17.85715 17.85714,0 17.85714,0 0,17.85715 0,17.85714 -17.85714,0 -17.85714,0 0,-17.85714 z"
       id="path3814" />
    <path
       style="fill:#000000;fill-opacity:0.39145909;stroke:none"
       d="m -556.38757,271.65494 0,-17.85715 17.85714,0 17.85714,0 0,17.85715 0,17.85714 -17.85714,0 -17.85714,0 0,-17.85714 z"
       id="path3816" />
    <path
       style="fill:#000000;fill-opacity:0.39145909;stroke:none"
       d="m -519.24471,191.65494 0,-17.85715 17.85714,0 17.85714,0 0,17.85715 0,17.85714 -17.85714,0 -17.85714,0 0,-17.85714 z"
       id="path3818" />
    <path
       style="fill:#000000;fill-opacity:0.39145909;stroke:none"
       d="m -599.24471,153.08351 0,-17.85715 17.85714,0 17.85714,0 0,17.85715 0,17.85714 -17.85714,0 -17.85714,0 0,-17.85714 z"
       id="path3820" />
    <path
       style="fill:#000000;fill-opacity:0.39145909;stroke:none"
       d="m -716.38757,153.08351 0,-17.85715 17.85714,0 17.85714,0 0,17.85715 0,17.85714 -17.85714,0 -17.85714,0 0,-17.85714 z"
       id="path3822" />
    <path
       style="fill:#000000;fill-opacity:0.39145909;stroke:none"
       d="m -759.24471,153.08351 0,-17.85715 17.85714,0 17.85714,0 0,17.85715 0,17.85714 -17.85714,0 -17.85714,0 0,-17.85714 z"
       id="path3824" />
    <path
       style="fill:#000000;fill-opacity:0.39145909;stroke:none"
       d="m -759.24471,233.08351 0,-17.85715 17.85714,0 17.85714,0 0,17.85715 0,17.85714 -17.85714,0 -17.85714,0 0,-17.85714 z"
       id="path3826" />
    <path
       style="fill:#000000;fill-opacity:0.39145909;stroke:none"
       d="m -716.38757,271.65494 0,-17.85715 17.85714,0 17.85714,0 0,17.85715 0,17.85714 -17.85714,0 -17.85714,0 0,-17.85714 z"
       id="path3828" />
    <path
       style="fill:#000000;fill-opacity:0.39145909;stroke:none"
       d="m -679.24471,313.08351 0,-17.85715 17.85714,0 17.85714,0 0,17.85715 0,17.85714 -17.85714,0 -17.85714,0 0,-17.85714 z"
       id="path3834" />
    <path
       style="fill:#000000;fill-opacity:0.39145909;stroke:none"
       d="m -759.24471,313.08351 0,-17.85715 17.85714,0 17.85714,0 0,17.85715 0,17.85714 -17.85714,0 -17.85714,0 0,-17.85714 z"
       id="path3836" />
    <path
       style="fill:#000000;fill-opacity:0.39145909;stroke:none"
       d="m -796.38757,431.65494 0,-17.85715 17.85714,0 17.85714,0 0,17.85715 0,17.85714 -17.85714,0 -17.85714,0 0,-17.85714 z"
       id="path3838" />
    <path
       style="fill:#000000;fill-opacity:0.39145909;stroke:none"
       d="m -716.38757,431.65494 0,-17.85715 17.85714,0 17.85714,0 0,17.85715 0,17.85714 -17.85714,0 -17.85714,0 0,-17.85714 z"
       id="path3840" />
    <path
       style="fill:none;stroke:#000000;stroke-opacity:1"
       d="m -60,212.36218 -160,0 m 160,40 -160,0 m 160,40 -160,0 m 160,40 -160,0 m 160,40 -160,0 m 160,-160 0,160 m -40,-160 0,160 m -40,-160 0,160 m -40,-160 0,160 m -40,-160 0,160"
       id="rect3842"
       inkscape:path-effect="#path-effect3845"
       inkscape:original-d="m -100,212.36218 40,0 0,40 -40,0 0,-40 z"
       inkscape:transform-center-x="20"
       inkscape:transform-center-y="-60.000003" />
    <path
       style="fill:none;stroke:#000000;stroke-width:5;stroke-miterlimit:4;stroke-opacity:1;stroke-dashoffset:0"
       d="m -60,212.36218 -160,0 m 160,80 -160,0 m 160,80 -160,0 m 160,-160 0,160 m -80,-160 0,160 m -80,-160 0,160"
       id="rect3847"
       inkscape:path-effect="#path-effect3850"
       inkscape:original-d="m -140,212.36218 80,0 0,80 -80,0 0,-80 z" />
    <path
       style="fill:#000000;fill-opacity:0.39145909;stroke:none"
       d="m -178.81977,271.22054 0,-17.17259 17.17259,0 17.1726,0 0,17.17259 0,17.1726 -17.1726,0 -17.17259,0 0,-17.1726 z"
       id="path3852" />
    <path
       style="fill:#000000;fill-opacity:0.39145909;stroke:none"
       d="m -136.39336,232.83475 0,-17.1726 17.17259,0 17.17259,0 0,17.1726 0,17.17259 -17.17259,0 -17.17259,0 0,-17.17259 z"
       id="path3854" />
    <path
       style="fill:#000000;fill-opacity:0.39145909;stroke:none"
       d="m -98.007567,351.0226 0,-18.18275 17.172594,0 17.172593,0 0,18.18275 0,18.18274 -17.172593,0 -17.172594,0 0,-18.18274 z"
       id="path3856" />
    <path
       style="fill:#000000;fill-opacity:0.39145909;stroke:none"
       d="m -217.20557,351.0226 0,-18.18275 18.18275,0 18.18274,0 0,18.18275 0,18.18274 -18.18274,0 -18.18275,0 0,-18.18274 z"
       id="path3858" />
    <path
       style="fill:none;stroke:#000000;stroke-width:5;stroke-linecap:butt;stroke-linejoin:miter;stroke-miterlimit:4;stroke-opacity:1;stroke-dasharray:none;marker-end:url(#Arrow1Lend)"
       d="m -1002.5,297.86218 140,0"
       id="path3860"
       sodipodi:nodetypes="cc" />
    <path
       sodipodi:nodetypes="cc"
       id="path4498"
       d="m -422.5,297.86218 140,0"
       style="fill:none;stroke:#000000;stroke-width:5;stroke-linecap:butt;stroke-linejoin:miter;stroke-miterlimit:4;stroke-opacity:1;stroke-dasharray:none;marker-end:url(#Arrow1Lend)" />
    <path
       style="fill:#000000;fill-opacity:0.39145909;stroke:none"
       d="m 1123.7009,263.78746 0,-17.17259 17.1726,0 17.1726,0 0,17.17259 0,17.17259 -17.1726,0 -17.1726,0 0,-17.17259 z"
       id="path3100"
       transform="translate(-1722.5,-30.137817)" />
  </g>
</svg>
