<?xml version="1.0" encoding="UTF-8" standalone="no"?>
<!-- Created with Inkscape (http://www.inkscape.org/) -->

<svg
   xmlns:dc="http://purl.org/dc/elements/1.1/"
   xmlns:cc="http://creativecommons.org/ns#"
   xmlns:rdf="http://www.w3.org/1999/02/22-rdf-syntax-ns#"
   xmlns:svg="http://www.w3.org/2000/svg"
   xmlns="http://www.w3.org/2000/svg"
   xmlns:sodipodi="http://sodipodi.sourceforge.net/DTD/sodipodi-0.dtd"
   xmlns:inkscape="http://www.inkscape.org/namespaces/inkscape"
   width="1665"
   height="673.5"
   id="svg2"
   version="1.1"
   inkscape:version="0.47 r22583"
   sodipodi:docname="pooling.pdf">
  <defs
     id="defs4">
    <marker
       inkscape:stockid="Arrow1Lend"
       orient="auto"
       refY="0"
       refX="0"
       id="Arrow1Lend"
       style="overflow:visible">
      <path
         id="path3868"
         d="M 0,0 5,-5 -12.5,0 5,5 0,0 z"
         style="fill-rule:evenodd;stroke:#000000;stroke-width:1pt;marker-start:none"
         transform="matrix(-0.8,0,0,-0.8,-10,0)" />
    </marker>
    <marker
       inkscape:stockid="Arrow1Lstart"
       orient="auto"
       refY="0"
       refX="0"
       id="Arrow1Lstart"
       style="overflow:visible">
      <path
         id="path3865"
         d="M 0,0 5,-5 -12.5,0 5,5 0,0 z"
         style="fill-rule:evenodd;stroke:#000000;stroke-width:1pt;marker-start:none"
         transform="matrix(0.8,0,0,0.8,10,0)" />
    </marker>
    <inkscape:path-effect
       effect="construct_grid"
       id="path-effect3850"
       is_visible="true"
       nr_x="2"
       nr_y="2" />
    <inkscape:path-effect
       effect="construct_grid"
       id="path-effect3845"
       is_visible="true"
       nr_x="4"
       nr_y="4" />
    <inkscape:path-effect
       effect="construct_grid"
       id="path-effect3806"
       is_visible="true"
       nr_x="4"
       nr_y="4" />
    <inkscape:path-effect
       effect="construct_grid"
       id="path-effect3801"
       is_visible="true"
       nr_x="8"
       nr_y="8" />
    <inkscape:path-effect
       effect="construct_grid"
       id="path-effect3660"
       is_visible="true"
       nr_x="8"
       nr_y="8" />
    <inkscape:path-effect
       effect="construct_grid"
       id="path-effect3655"
       is_visible="true"
       nr_x="16"
       nr_y="16" />
    <inkscape:perspective
       sodipodi:type="inkscape:persp3d"
       inkscape:vp_x="0 : 526.18109 : 1"
       inkscape:vp_y="0 : 1000 : 0"
       inkscape:vp_z="744.09448 : 526.18109 : 1"
       inkscape:persp3d-origin="372.04724 : 350.78739 : 1"
       id="perspective10" />
  </defs>
  <sodipodi:namedview
     id="base"
     pagecolor="#ffffff"
     bordercolor="#666666"
     borderopacity="1.0"
     inkscape:pageopacity="0.0"
     inkscape:pageshadow="2"
     inkscape:zoom="0.35"
     inkscape:cx="437.37379"
     inkscape:cy="188.93934"
     inkscape:document-units="px"
     inkscape:current-layer="layer1"
     showgrid="true"
     inkscape:window-width="1920"
     inkscape:window-height="1003"
     inkscape:window-x="0"
     inkscape:window-y="25"
     inkscape:window-maximized="1">
    <inkscape:grid
       type="xygrid"
       id="grid2878"
       empspacing="5"
       visible="true"
       enabled="true"
       snapvisiblegridlinesonly="true" />
  </sodipodi:namedview>
  <metadata
     id="metadata7">
    <rdf:RDF>
      <cc:Work
         rdf:about="">
        <dc:format>image/svg+xml</dc:format>
        <dc:type
           rdf:resource="http://purl.org/dc/dcmitype/StillImage" />
        <dc:title></dc:title>
      </cc:Work>
    </rdf:RDF>
  </metadata>
  <g
     inkscape:label="レイヤー 1"
     inkscape:groupmode="layer"
     id="layer1"
     transform="translate(1722.5,30.137817)">
    <path
       style="fill:none;stroke:#000000;stroke-width:1;stroke-miterlimit:4;stroke-opacity:1;stroke-dashoffset:0"
       d="m -1080,-27.637817 -640,0 m 640,40 -640,0 m 640,40 -640,0 m 640,40 -640,0 m 640,39.999997 -640,0 m 640,40 -640,0 m 640,40 -640,0 m 640,40 -640,0 m 640,40 -640,0 m 640,40 -640,0 m 640,40 -640,0 m 640,40 -640,0 m 640,40 -640,0 m 640,40 -640,0 m 640,40 -640,0 m 640,40 -640,0 m 640,40 -640,0 m 640,-639.999997 0,639.999997 m -40,-639.999997 0,639.999997 m -40,-639.999997 0,639.999997 m -40,-639.999997 0,639.999997 m -40,-639.999997 0,639.999997 m -40,-639.999997 0,639.999997 m -40,-639.999997 0,639.999997 m -40,-639.999997 0,639.999997 m -40,-639.999997 0,639.999997 m -40,-639.999997 0,639.999997 m -40,-639.999997 0,639.999997 m -40,-639.999997 0,639.999997 m -40,-639.999997 0,639.999997 m -40,-639.999997 0,639.999997 m -40,-639.999997 0,639.999997 m -40,-639.999997 0,639.999997 m -40,-639.999997 0,639.999997"
       id="rect2880"
       inkscape:path-effect="#path-effect3655"
       inkscape:original-d="m -1120,-27.637817 40,0 0,40 -40,0 0,-40 z" />
    <path
       style="fill:none;stroke:#000000;stroke-width:5;stroke-miterlimit:4;stroke-opacity:1;stroke-dasharray:none;stroke-dashoffset:0"
       d="m -1080,-27.637817 -640,0 m 640,80 -640,0 m 640,79.999997 -640,0 m 640,80 -640,0 m 640,80 -640,0 m 640,80 -640,0 m 640,80 -640,0 m 640,80 -640,0 m 640,80 -640,0 m 640,-639.999997 0,639.999997 m -80,-639.999997 0,639.999997 m -80,-639.999997 0,639.999997 m -80,-639.999997 0,639.999997 m -80,-639.999997 0,639.999997 m -80,-639.999997 0,639.999997 m -80,-639.999997 0,639.999997 m -80,-639.999997 0,639.999997 m -80,-639.999997 0,639.999997"
       id="rect3657"
       inkscape:path-effect="#path-effect3660"
       inkscape:original-d="m -1160,-27.637817 80,0 0,80 -80,0 0,-80 z" />
    <path
       style="fill:#000000;fill-opacity:0.39145909;stroke:none"
       d="m -1678.1631,31.994762 0,-17.857143 17.1428,0 17.1429,0 0,17.857143 0,17.857142 -17.1429,0 -17.1428,0 0,-17.857142 z"
       id="path3664" />
    <path
       style="fill:#000000;fill-opacity:0.39145909;stroke:none"
       d="m -1598.1631,-6.576667 0,-17.857143 17.1428,0 17.1429,0 0,17.857143 0,17.857143 -17.1429,0 -17.1428,0 0,-17.857143 z"
       id="path3666" />
    <path
       style="fill:#000000;fill-opacity:0.39145909;stroke:none"
       d="m -1556.7346,-6.576667 0,-17.857143 17.8572,0 17.8571,0 0,17.857143 0,17.857143 -17.8571,0 -17.8572,0 0,-17.857143 z"
       id="path3668" />
    <path
       style="fill:#000000;fill-opacity:0.39145909;stroke:none"
       d="m -1476.7346,31.994762 0,-17.857143 17.8572,0 17.8571,0 0,17.857143 0,17.857142 -17.8571,0 -17.8572,0 0,-17.857142 z"
       id="path3670" />
    <path
       style="fill:#000000;fill-opacity:0.39145909;stroke:none"
       d="m -1396.7346,-6.576667 0,-17.857143 17.8572,0 17.8571,0 0,17.857143 0,17.857143 -17.8571,0 -17.8572,0 0,-17.857143 z"
       id="path3672" />
    <path
       style="fill:#000000;fill-opacity:0.39145909;stroke:none"
       d="m -1316.7346,-6.576667 0,-17.857143 17.8572,0 17.8571,0 0,17.857143 0,17.857143 -17.8571,0 -17.8572,0 0,-17.857143 z"
       id="path3674" />
    <path
       style="fill:#000000;fill-opacity:0.39145909;stroke:none"
       d="m -1236.7346,31.994762 0,-17.857143 17.8572,0 17.8571,0 0,17.857143 0,17.857142 -17.8571,0 -17.8572,0 0,-17.857142 z"
       id="path3676" />
    <path
       style="fill:#000000;fill-opacity:0.39145909;stroke:none"
       d="m -1156.7346,-6.576667 0,-17.857143 17.8572,0 17.8571,0 0,17.857143 0,17.857143 -17.8571,0 -17.8572,0 0,-17.857143 z"
       id="path3678" />
    <path
       style="fill:#000000;fill-opacity:0.39145909;stroke:none"
       d="m -1118.1631,111.99476 0,-17.857141 17.1428,0 17.1429,0 0,17.857141 0,17.85714 -17.1429,0 -17.1428,0 0,-17.85714 z"
       id="path3680" />
    <path
       style="fill:#000000;fill-opacity:0.39145909;stroke:none"
       d="m -1198.1631,111.99476 0,-17.857141 17.1428,0 17.1429,0 0,17.857141 0,17.85714 -17.1429,0 -17.1428,0 0,-17.85714 z"
       id="path3682" />
    <path
       style="fill:#000000;fill-opacity:0.39145909;stroke:none"
       d="m -1278.1631,73.423333 0,-17.857143 17.1428,0 17.1429,0 0,17.857143 0,17.857143 -17.1429,0 -17.1428,0 0,-17.857143 z"
       id="path3684" />
    <path
       style="fill:#000000;fill-opacity:0.39145909;stroke:none"
       d="m -1358.1631,111.99476 0,-17.857141 17.1428,0 17.1429,0 0,17.857141 0,17.85714 -17.1429,0 -17.1428,0 0,-17.85714 z"
       id="path3686" />
    <path
       style="fill:#000000;fill-opacity:0.39145909;stroke:none"
       d="m -1439.1301,73.505271 0,-17.67767 18.1827,0 18.1828,0 0,17.67767 0,17.677669 -18.1828,0 -18.1827,0 0,-17.677669 z"
       id="path3688" />
    <path
       style="fill:#000000;fill-opacity:0.39145909;stroke:none"
       d="m -1518.9322,73.505271 0,-17.67767 18.1828,0 18.1827,0 0,17.67767 0,17.677669 -18.1827,0 -18.1828,0 0,-17.677669 z"
       id="path3690" />
    <path
       style="fill:#000000;fill-opacity:0.39145909;stroke:none"
       d="m -1637.12,111.38599 0,-18.182745 18.1827,0 18.1828,0 0,18.182745 0,18.18275 -18.1828,0 -18.1827,0 0,-18.18275 z"
       id="path3692" />
    <path
       style="fill:#000000;fill-opacity:0.39145909;stroke:none"
       d="m -1716.9221,111.38599 0,-18.182745 18.1828,0 18.1827,0 0,18.182745 0,18.18275 -18.1827,0 -18.1828,0 0,-18.18275 z"
       id="path3694" />
    <path
       style="fill:#000000;fill-opacity:0.39145909;stroke:none"
       d="m -1716.9221,153.30732 0,-17.67767 18.1828,0 18.1827,0 0,17.67767 0,17.67767 -18.1827,0 -18.1828,0 0,-17.67767 z"
       id="path3696" />
    <path
       style="fill:#000000;fill-opacity:0.39145909;stroke:none"
       d="m -1598.7342,153.30732 0,-17.67767 17.6776,0 17.6777,0 0,17.67767 0,17.67767 -17.6777,0 -17.6776,0 0,-17.67767 z"
       id="path3698" />
    <path
       style="fill:#000000;fill-opacity:0.39145909;stroke:none"
       d="m -1557.318,153.30732 0,-17.67767 18.1828,0 18.1827,0 0,17.67767 0,17.67767 -18.1827,0 -18.1828,0 0,-17.67767 z"
       id="path3700" />
    <path
       style="fill:#000000;fill-opacity:0.39145909;stroke:none"
       d="m -1476.5058,153.30732 0,-17.67767 17.6777,0 17.6777,0 0,17.67767 0,17.67767 -17.6777,0 -17.6777,0 0,-17.67767 z"
       id="path3702" />
    <path
       style="fill:#000000;fill-opacity:0.39145909;stroke:none"
       d="m -1476.5058,233.61445 0,-18.18275 17.6777,0 17.6777,0 0,18.18275 0,18.18274 -17.6777,0 -17.6777,0 0,-18.18274 z"
       id="path3704" />
    <path
       style="fill:#000000;fill-opacity:0.39145909;stroke:none"
       d="m -1557.318,233.61445 0,-18.18275 18.1828,0 18.1827,0 0,18.18275 0,18.18274 -18.1827,0 -18.1828,0 0,-18.18274 z"
       id="path3706" />
    <path
       style="fill:#000000;fill-opacity:0.39145909;stroke:none"
       d="m -1598.7342,233.61445 0,-18.18275 17.6776,0 17.6777,0 0,18.18275 0,18.18274 -17.6777,0 -17.6776,0 0,-18.18274 z"
       id="path3708" />
    <path
       style="fill:#000000;fill-opacity:0.39145909;stroke:none"
       d="m -1396.7037,153.30732 0,-17.67767 17.6776,0 17.6777,0 0,17.67767 0,17.67767 -17.6777,0 -17.6776,0 0,-17.67767 z"
       id="path3710" />
    <path
       style="fill:#000000;fill-opacity:0.39145909;stroke:none"
       d="m -1396.7037,271.49517 0,-17.67767 17.6776,0 17.6777,0 0,17.67767 0,17.67767 -17.6777,0 -17.6776,0 0,-17.67767 z"
       id="path3712" />
    <path
       style="fill:#000000;fill-opacity:0.39145909;stroke:none"
       d="m -1439.1301,313.4165 0,-18.18275 18.1827,0 18.1828,0 0,18.18275 0,18.18275 -18.1828,0 -18.1827,0 0,-18.18275 z"
       id="path3714" />
    <path
       style="fill:#000000;fill-opacity:0.39145909;stroke:none"
       d="m -1396.7037,313.4165 0,-18.18275 17.6776,0 17.6777,0 0,18.18275 0,18.18275 -17.6777,0 -17.6776,0 0,-18.18275 z"
       id="path3716" />
    <path
       style="fill:#000000;fill-opacity:0.39145909;stroke:none"
       d="m -1518.9322,313.4165 0,-18.18275 18.1828,0 18.1827,0 0,18.18275 0,18.18275 -18.1827,0 -18.1828,0 0,-18.18275 z"
       id="path3718" />
    <path
       style="fill:#000000;fill-opacity:0.39145909;stroke:none"
       d="m -1598.7342,313.4165 0,-18.18275 17.6776,0 17.6777,0 0,18.18275 0,18.18275 -17.6777,0 -17.6776,0 0,-18.18275 z"
       id="path3720" />
    <path
       style="fill:#000000;fill-opacity:0.39145909;stroke:none"
       d="m -1678.5363,313.4165 0,-18.18275 17.6777,0 17.6776,0 0,18.18275 0,18.18275 -17.6776,0 -17.6777,0 0,-18.18275 z"
       id="path3722" />
    <path
       style="fill:#000000;fill-opacity:0.39145909;stroke:none"
       d="m -1678.5363,233.61445 0,-18.18275 17.6777,0 17.6776,0 0,18.18275 0,18.18274 -17.6776,0 -17.6777,0 0,-18.18274 z"
       id="path3724" />
    <path
       style="fill:#000000;fill-opacity:0.39145909;stroke:none"
       d="m -1316.9017,233.61445 0,-18.18275 18.1828,0 18.1827,0 0,18.18275 0,18.18274 -18.1827,0 -18.1828,0 0,-18.18274 z"
       id="path3726" />
    <path
       style="fill:#000000;fill-opacity:0.39145909;stroke:none"
       d="m -1316.9017,313.4165 0,-18.18275 18.1828,0 18.1827,0 0,18.18275 0,18.18275 -18.1827,0 -18.1828,0 0,-18.18275 z"
       id="path3728" />
    <path
       style="fill:#000000;fill-opacity:0.39145909;stroke:none"
       d="m -1237.0996,351.29722 0,-17.67767 18.1827,0 18.1828,0 0,17.67767 0,17.67767 -18.1828,0 -18.1827,0 0,-17.67767 z"
       id="path3730" />
    <path
       style="fill:#000000;fill-opacity:0.39145909;stroke:none"
       d="m -1157.2976,351.29722 0,-17.67767 18.1828,0 18.1827,0 0,17.67767 0,17.67767 -18.1827,0 -18.1828,0 0,-17.67767 z"
       id="path3732" />
    <path
       style="fill:#000000;fill-opacity:0.39145909;stroke:none"
       d="m -1198.7138,393.21855 0,-18.18274 17.6776,0 17.6777,0 0,18.18274 0,18.18275 -17.6777,0 -17.6776,0 0,-18.18275 z"
       id="path3734" />
    <path
       style="fill:#000000;fill-opacity:0.39145909;stroke:none"
       d="m -1157.2976,431.60435 0,-18.18275 18.1828,0 18.1827,0 0,18.18275 0,18.18274 -18.1827,0 -18.1828,0 0,-18.18274 z"
       id="path3736" />
    <path
       style="fill:#000000;fill-opacity:0.39145909;stroke:none"
       d="m -1198.7138,473.52568 0,-17.67767 17.6776,0 17.6777,0 0,17.67767 0,17.67767 -17.6777,0 -17.6776,0 0,-17.67767 z"
       id="path3738" />
    <path
       style="fill:#000000;fill-opacity:0.39145909;stroke:none"
       d="m -1198.7138,553.32773 0,-17.67767 17.6776,0 17.6777,0 0,17.67767 0,17.67767 -17.6777,0 -17.6776,0 0,-17.67767 z"
       id="path3740" />
    <path
       style="fill:#000000;fill-opacity:0.39145909;stroke:none"
       d="m -1157.2976,553.32773 0,-17.67767 18.1828,0 18.1827,0 0,17.67767 0,17.67767 -18.1827,0 -18.1828,0 0,-17.67767 z"
       id="path3742" />
    <path
       style="fill:#000000;fill-opacity:0.39145909;stroke:none"
       d="m -1157.2976,473.52568 0,-17.67767 18.1828,0 18.1827,0 0,17.67767 0,17.67767 -18.1827,0 -18.1828,0 0,-17.67767 z"
       id="path3744" />
    <path
       style="fill:#000000;fill-opacity:0.39145909;stroke:none"
       d="m -1198.7138,271.49517 0,-17.67767 17.6776,0 17.6777,0 0,17.67767 0,17.67767 -17.6777,0 -17.6776,0 0,-17.67767 z"
       id="path3746" />
    <path
       style="fill:#000000;fill-opacity:0.39145909;stroke:none"
       d="m -1157.2976,233.61445 0,-18.18275 18.1828,0 18.1827,0 0,18.18275 0,18.18274 -18.1827,0 -18.1828,0 0,-18.18274 z"
       id="path3748" />
    <path
       style="fill:#000000;fill-opacity:0.39145909;stroke:none"
       d="m -1157.2976,153.30732 0,-17.67767 18.1828,0 18.1827,0 0,17.67767 0,17.67767 -18.1827,0 -18.1828,0 0,-17.67767 z"
       id="path3750" />
    <path
       style="fill:#000000;fill-opacity:0.39145909;stroke:none"
       d="m -1237.0996,191.18804 0,-18.18274 18.1827,0 18.1828,0 0,18.18274 0,18.18275 -18.1828,0 -18.1827,0 0,-18.18275 z"
       id="path3752" />
    <path
       style="fill:#000000;fill-opacity:0.39145909;stroke:none"
       d="m -1278.5159,153.30732 0,-17.67767 17.6777,0 17.6777,0 0,17.67767 0,17.67767 -17.6777,0 -17.6777,0 0,-17.67767 z"
       id="path3754" />
    <path
       style="fill:#000000;fill-opacity:0.39145909;stroke:none"
       d="m -1316.9017,393.21855 0,-18.18274 18.1828,0 18.1827,0 0,18.18274 0,18.18275 -18.1827,0 -18.1828,0 0,-18.18275 z"
       id="path3756" />
    <path
       style="fill:#000000;fill-opacity:0.39145909;stroke:none"
       d="m -1359.3281,393.21855 0,-18.18274 18.1828,0 18.1827,0 0,18.18274 0,18.18275 -18.1827,0 -18.1828,0 0,-18.18275 z"
       id="path3758" />
    <path
       style="fill:#000000;fill-opacity:0.39145909;stroke:none"
       d="m -1439.1301,393.21855 0,-18.18274 18.1827,0 18.1828,0 0,18.18274 0,18.18275 -18.1828,0 -18.1827,0 0,-18.18275 z"
       id="path3760" />
    <path
       style="fill:#000000;fill-opacity:0.39145909;stroke:none"
       d="m -1557.318,393.21855 0,-18.18274 18.1828,0 18.1827,0 0,18.18274 0,18.18275 -18.1827,0 -18.1828,0 0,-18.18275 z"
       id="path3762" />
    <path
       style="fill:#000000;fill-opacity:0.39145909;stroke:none"
       d="m -1598.7342,431.60435 0,-18.18275 17.6776,0 17.6777,0 0,18.18275 0,18.18274 -17.6777,0 -17.6776,0 0,-18.18274 z"
       id="path3764" />
    <path
       style="fill:#000000;fill-opacity:0.39145909;stroke:none"
       d="m -1678.5363,393.21855 0,-18.18274 17.6777,0 17.6776,0 0,18.18274 0,18.18275 -17.6776,0 -17.6777,0 0,-18.18275 z"
       id="path3766" />
    <path
       style="fill:#000000;fill-opacity:0.39145909;stroke:none"
       d="m -1678.5363,473.52568 0,-17.67767 17.6777,0 17.6776,0 0,17.67767 0,17.67767 -17.6776,0 -17.6777,0 0,-17.67767 z"
       id="path3768" />
    <path
       style="fill:#000000;fill-opacity:0.39145909;stroke:none"
       d="m -1678.5363,553.32773 0,-17.67767 17.6777,0 17.6776,0 0,17.67767 0,17.67767 -17.6776,0 -17.6777,0 0,-17.67767 z"
       id="path3770" />
    <path
       style="fill:#000000;fill-opacity:0.39145909;stroke:none"
       d="m -1637.12,511.4064 0,-18.18275 18.1827,0 18.1828,0 0,18.18275 0,18.18274 -18.1828,0 -18.1827,0 0,-18.18274 z"
       id="path3772" />
    <path
       style="fill:#000000;fill-opacity:0.39145909;stroke:none"
       d="m -1598.7342,553.32773 0,-17.67767 17.6776,0 17.6777,0 0,17.67767 0,17.67767 -17.6777,0 -17.6776,0 0,-17.67767 z"
       id="path3774" />
    <path
       style="fill:#000000;fill-opacity:0.39145909;stroke:none"
       d="m -1557.318,511.4064 0,-18.18275 18.1828,0 18.1827,0 0,18.18275 0,18.18274 -18.1827,0 -18.1828,0 0,-18.18274 z"
       id="path3776" />
    <path
       style="fill:#000000;fill-opacity:0.39145909;stroke:none"
       d="m -1518.9322,553.32773 0,-17.67767 18.1828,0 18.1827,0 0,17.67767 0,17.67767 -18.1827,0 -18.1828,0 0,-17.67767 z"
       id="path3778" />
    <path
       style="fill:#000000;fill-opacity:0.39145909;stroke:none"
       d="m -1476.5058,511.4064 0,-18.18275 17.6777,0 17.6777,0 0,18.18275 0,18.18274 -17.6777,0 -17.6777,0 0,-18.18274 z"
       id="path3780" />
    <path
       style="fill:#000000;fill-opacity:0.39145909;stroke:none"
       d="m -1396.7037,473.52568 0,-17.67767 17.6776,0 17.6777,0 0,17.67767 0,17.67767 -17.6777,0 -17.6776,0 0,-17.67767 z"
       id="path3782" />
    <path
       style="fill:#000000;fill-opacity:0.39145909;stroke:none"
       d="m -1439.1301,553.32773 0,-17.67767 18.1827,0 18.1828,0 0,17.67767 0,17.67767 -18.1828,0 -18.1827,0 0,-17.67767 z"
       id="path3784" />
    <path
       style="fill:#000000;fill-opacity:0.39145909;stroke:none"
       d="m -1359.3281,553.32773 0,-17.67767 18.1828,0 18.1827,0 0,17.67767 0,17.67767 -18.1827,0 -18.1828,0 0,-17.67767 z"
       id="path3786" />
    <path
       style="fill:#000000;fill-opacity:0.39145909;stroke:none"
       d="m -1316.9017,473.52568 0,-17.67767 18.1828,0 18.1827,0 0,17.67767 0,17.67767 -18.1827,0 -18.1828,0 0,-17.67767 z"
       id="path3788" />
    <path
       style="fill:#000000;fill-opacity:0.39145909;stroke:none"
       d="m -1278.5159,553.32773 0,-17.67767 17.6777,0 17.6777,0 0,17.67767 0,17.67767 -17.6777,0 -17.6777,0 0,-17.67767 z"
       id="path3790" />
    <rect
       style="fill:#000000;fill-opacity:0.39145909;stroke:#000000;stroke-opacity:1"
       id="rect3792"
       width="40"
       height="40"
       x="-542.5"
       y="542.86218" />
    <text
       xml:space="preserve"
       style="font-size:40px;font-style:normal;font-weight:normal;fill:#000000;fill-opacity:1;stroke:none;font-family:Bitstream Vera Sans"
       x="-482.5"
       y="603.36218"
       id="text3794"><tspan
         sodipodi:role="line"
         id="tspan3796"
         x="-482.5"
         y="603.36218">領域内の最大値画素</tspan></text>
    <path
       style="fill:none;stroke:#000000;stroke-width:1;stroke-miterlimit:4;stroke-opacity:1;stroke-dashoffset:0"
       d="m -480,132.36218 -320,0 m 320,40 -320,0 m 320,40 -320,0 m 320,40 -320,0 m 320,40 -320,0 m 320,40 -320,0 m 320,40 -320,0 m 320,40 -320,0 m 320,40 -320,0 m 320,-320 0,320 m -40,-320 0,320 m -40,-320 0,320 m -40,-320 0,320 m -40,-320 0,320 m -40,-320 0,320 m -40,-320 0,320 m -40,-320 0,320 m -40,-320 0,320"
       id="rect3798"
       inkscape:path-effect="#path-effect3801"
       inkscape:original-d="m -520,132.36218 40,0 0,40 -40,0 0,-40 z" />
    <path
       style="fill:none;stroke:#000000;stroke-width:5;stroke-miterlimit:4;stroke-opacity:1;stroke-dashoffset:0"
       d="m -480,132.36218 -320,0 m 320,80 -320,0 m 320,80 -320,0 m 320,80 -320,0 m 320,80 -320,0 m 320,-320 0,320 m -80,-320 0,320 m -80,-320 0,320 m -80,-320 0,320 m -80,-320 0,320"
       id="rect3803"
       inkscape:path-effect="#path-effect3806"
       inkscape:original-d="m -560,132.36218 80,0 0,80 -80,0 0,-80 z" />
    <path
       style="fill:#000000;fill-opacity:0.39145909;stroke:none"
       d="m -519.24471,431.65494 0,-17.85715 17.85714,0 17.85714,0 0,17.85715 0,17.85714 -17.85714,0 -17.85714,0 0,-17.85714 z"
       id="path3808" />
    <path
       style="fill:#000000;fill-opacity:0.39145909;stroke:none"
       d="m -556.38757,351.65494 0,-17.85715 17.85714,0 17.85714,0 0,17.85715 0,17.85714 -17.85714,0 -17.85714,0 0,-17.85714 z"
       id="path3810" />
    <path
       style="fill:#000000;fill-opacity:0.39145909;stroke:none"
       d="m -599.24471,393.08351 0,-17.85715 17.85714,0 17.85714,0 0,17.85715 0,17.85714 -17.85714,0 -17.85714,0 0,-17.85714 z"
       id="path3812" />
    <path
       style="fill:#000000;fill-opacity:0.39145909;stroke:none"
       d="m -599.24471,351.65494 0,-17.85715 17.85714,0 17.85714,0 0,17.85715 0,17.85714 -17.85714,0 -17.85714,0 0,-17.85714 z"
       id="path3814" />
    <path
       style="fill:#000000;fill-opacity:0.39145909;stroke:none"
       d="m -556.38757,271.65494 0,-17.85715 17.85714,0 17.85714,0 0,17.85715 0,17.85714 -17.85714,0 -17.85714,0 0,-17.85714 z"
       id="path3816" />
    <path
       style="fill:#000000;fill-opacity:0.39145909;stroke:none"
       d="m -519.24471,191.65494 0,-17.85715 17.85714,0 17.85714,0 0,17.85715 0,17.85714 -17.85714,0 -17.85714,0 0,-17.85714 z"
       id="path3818" />
    <path
       style="fill:#000000;fill-opacity:0.39145909;stroke:none"
       d="m -599.24471,153.08351 0,-17.85715 17.85714,0 17.85714,0 0,17.85715 0,17.85714 -17.85714,0 -17.85714,0 0,-17.85714 z"
       id="path3820" />
    <path
       style="fill:#000000;fill-opacity:0.39145909;stroke:none"
       d="m -716.38757,153.08351 0,-17.85715 17.85714,0 17.85714,0 0,17.85715 0,17.85714 -17.85714,0 -17.85714,0 0,-17.85714 z"
       id="path3822" />
    <path
       style="fill:#000000;fill-opacity:0.39145909;stroke:none"
       d="m -759.24471,153.08351 0,-17.85715 17.85714,0 17.85714,0 0,17.85715 0,17.85714 -17.85714,0 -17.85714,0 0,-17.85714 z"
       id="path3824" />
    <path
       style="fill:#000000;fill-opacity:0.39145909;stroke:none"
       d="m -759.24471,233.08351 0,-17.85715 17.85714,0 17.85714,0 0,17.85715 0,17.85714 -17.85714,0 -17.85714,0 0,-17.85714 z"
       id="path3826" />
    <path
       style="fill:#000000;fill-opacity:0.39145909;stroke:none"
       d="m -716.38757,271.65494 0,-17.85715 17.85714,0 17.85714,0 0,17.85715 0,17.85714 -17.85714,0 -17.85714,0 0,-17.85714 z"
       id="path3828" />
    <path
       style="fill:#000000;fill-opacity:0.39145909;stroke:none"
       d="m -679.24471,313.08351 0,-17.85715 17.85714,0 17.85714,0 0,17.85715 0,17.85714 -17.85714,0 -17.85714,0 0,-17.85714 z"
       id="path3834" />
    <path
       style="fill:#000000;fill-opacity:0.39145909;stroke:none"
       d="m -759.24471,313.08351 0,-17.85715 17.85714,0 17.85714,0 0,17.85715 0,17.85714 -17.85714,0 -17.85714,0 0,-17.85714 z"
       id="path3836" />
    <path
       style="fill:#000000;fill-opacity:0.39145909;stroke:none"
       d="m -796.38757,431.65494 0,-17.85715 17.85714,0 17.85714,0 0,17.85715 0,17.85714 -17.85714,0 -17.85714,0 0,-17.85714 z"
       id="path3838" />
    <path
       style="fill:#000000;fill-opacity:0.39145909;stroke:none"
       d="m -716.38757,431.65494 0,-17.85715 17.85714,0 17.85714,0 0,17.85715 0,17.85714 -17.85714,0 -17.85714,0 0,-17.85714 z"
       id="path3840" />
    <path
       style="fill:none;stroke:#000000;stroke-opacity:1"
       d="m -60,212.36218 -160,0 m 160,40 -160,0 m 160,40 -160,0 m 160,40 -160,0 m 160,40 -160,0 m 160,-160 0,160 m -40,-160 0,160 m -40,-160 0,160 m -40,-160 0,160 m -40,-160 0,160"
       id="rect3842"
       inkscape:path-effect="#path-effect3845"
       inkscape:original-d="m -100,212.36218 40,0 0,40 -40,0 0,-40 z"
       inkscape:transform-center-x="20"
       inkscape:transform-center-y="-60.000003" />
    <path
       style="fill:none;stroke:#000000;stroke-width:5;stroke-miterlimit:4;stroke-opacity:1;stroke-dashoffset:0"
       d="m -60,212.36218 -160,0 m 160,80 -160,0 m 160,80 -160,0 m 160,-160 0,160 m -80,-160 0,160 m -80,-160 0,160"
       id="rect3847"
       inkscape:path-effect="#path-effect3850"
       inkscape:original-d="m -140,212.36218 80,0 0,80 -80,0 0,-80 z" />
    <path
       style="fill:#000000;fill-opacity:0.39145909;stroke:none"
       d="m 353.5,43.189583 0,-17.17259 17.17259,0 17.1726,0 0,17.17259 0,17.1726 -17.1726,0 -17.17259,0 0,-17.1726 z"
       id="path3852" />
    <path
       style="fill:#000000;fill-opacity:0.39145909;stroke:none"
       d="m 343.15482,-28.810407 0,-17.1726 17.17259,0 17.17259,0 0,17.1726 0,17.17259 -17.17259,0 -17.17259,0 0,-17.17259 z"
       id="path3854" />
    <path
       style="fill:#000000;fill-opacity:0.39145909;stroke:none"
       d="m 377.5,61.544933 0,-18.18275 17.17259,0 17.1726,0 0,18.18275 0,18.18274 -17.1726,0 -17.17259,0 0,-18.18274 z"
       id="path3856" />
    <path
       style="fill:#000000;fill-opacity:0.39145909;stroke:none"
       d="m 346.13451,80.179443 0,-18.18275 18.18275,0 18.18274,0 0,18.18275 0,18.18274 -18.18274,0 -18.18275,0 0,-18.18274 z"
       id="path3858" />
    <path
       style="fill:none;stroke:#000000;stroke-width:5;stroke-linecap:butt;stroke-linejoin:miter;stroke-miterlimit:4;stroke-opacity:1;stroke-dasharray:none;marker-end:url(#Arrow1Lend)"
       d="m -1002.5,297.86218 140,0"
       id="path3860"
       sodipodi:nodetypes="cc" />
    <path
       sodipodi:nodetypes="cc"
       id="path4498"
       d="m -422.5,297.86218 140,0"
       style="fill:none;stroke:#000000;stroke-width:5;stroke-linecap:butt;stroke-linejoin:miter;stroke-miterlimit:4;stroke-opacity:1;stroke-dasharray:none;marker-end:url(#Arrow1Lend)" />
    <path
       style="fill:#000000;fill-opacity:0.39145909;stroke:none"
       d="m 1123.7009,263.78746 0,-17.17259 17.1726,0 17.1726,0 0,17.17259 0,17.17259 -17.1726,0 -17.1726,0 0,-17.17259 z"
       id="path3100"
       transform="translate(-1722.5,-30.137817)" />
    <path
       style="fill:#000000;fill-opacity:0.3950178;stroke:none"
       d="m 925.66195,422.94368 0,-17.85714 17.85714,0 17.85714,0 0,17.85714 0,17.85714 -17.85714,0 -17.85714,0 0,-17.85714 z"
       id="path4352"
       transform="translate(-1722.5,-30.137817)" />
    <path
       style="fill:#000000;fill-opacity:0.3950178;stroke:none"
       d="m 963.09052,422.94368 0,-17.85714 17.85714,0 17.85714,0 0,17.85714 0,17.85714 -17.85714,0 -17.85714,0 0,-17.85714 z"
       id="path5138"
       transform="translate(-1722.5,-30.137817)" />
    <path
       style="fill:#000000;fill-opacity:0.3950178;stroke:none"
       d="m 963.09052,461.51511 0,-17.85714 17.85714,0 17.85714,0 0,17.85714 0,17.85714 -17.85714,0 -17.85714,0 0,-17.85714 z"
       id="path5140"
       transform="translate(-1722.5,-30.137817)" />
    <path
       style="fill:#000000;fill-opacity:0.3950178;stroke:none"
       d="m 1005.9477,422.94368 0,-17.85714 17.8571,0 17.8571,0 0,17.85714 0,17.85714 -17.8571,0 -17.8571,0 0,-17.85714 z"
       id="path5142"
       transform="translate(-1722.5,-30.137817)" />
    <path
       style="fill:#000000;fill-opacity:0.3950178;stroke:none"
       d="m 1043.0905,422.94368 0,-17.85714 17.8572,0 17.8571,0 0,17.85714 0,17.85714 -17.8571,0 -17.8572,0 0,-17.85714 z"
       id="path5144"
       transform="translate(-1722.5,-30.137817)" />
    <path
       style="fill:#000000;fill-opacity:0.3950178;stroke:none"
       d="m 1043.0905,461.51511 0,-17.85714 17.8572,0 17.8571,0 0,17.85714 0,17.85714 -17.8571,0 -17.8572,0 0,-17.85714 z"
       id="path5146"
       transform="translate(-1722.5,-30.137817)" />
    <path
       style="fill:#000000;fill-opacity:0.3950178;stroke:none"
       d="m 1085.9477,422.94368 0,-17.85714 17.8571,0 17.8571,0 0,17.85714 0,17.85714 -17.8571,0 -17.8571,0 0,-17.85714 z"
       id="path5148"
       transform="translate(-1722.5,-30.137817)" />
    <path
       style="fill:#000000;fill-opacity:0.3950178;stroke:none"
       d="m 1085.9477,461.51511 0,-17.85714 17.8571,0 17.8571,0 0,17.85714 0,17.85714 -17.8571,0 -17.8571,0 0,-17.85714 z"
       id="path5150"
       transform="translate(-1722.5,-30.137817)" />
    <path
       style="fill:#000000;fill-opacity:0.3950178;stroke:none"
       d="m 1123.0905,461.51511 0,-17.85714 17.8572,0 17.8571,0 0,17.85714 0,17.85714 -17.8571,0 -17.8572,0 0,-17.85714 z"
       id="path5152"
       transform="translate(-1722.5,-30.137817)" />
    <path
       style="fill:#000000;fill-opacity:0.3950178;stroke:none"
       d="m 1165.9477,461.51511 0,-17.85714 17.8571,0 17.8571,0 0,17.85714 0,17.85714 -17.8571,0 -17.8571,0 0,-17.85714 z"
       id="path5154"
       transform="translate(-1722.5,-30.137817)" />
    <path
       style="fill:#000000;fill-opacity:0.3950178;stroke:none"
       d="m 1165.9477,422.94368 0,-17.85714 17.8571,0 17.8571,0 0,17.85714 0,17.85714 -17.8571,0 -17.8571,0 0,-17.85714 z"
       id="path5156"
       transform="translate(-1722.5,-30.137817)" />
    <path
       style="fill:#000000;fill-opacity:0.3950178;stroke:none"
       d="m 1203.0905,422.94368 0,-17.85714 17.8572,0 17.8571,0 0,17.85714 0,17.85714 -17.8571,0 -17.8572,0 0,-17.85714 z"
       id="path5158"
       transform="translate(-1722.5,-30.137817)" />
    <path
       style="fill:#000000;fill-opacity:0.3950178;stroke:none"
       d="m 1203.0905,381.51511 0,-17.85714 17.8572,0 17.8571,0 0,17.85714 0,17.85714 -17.8571,0 -17.8572,0 0,-17.85714 z"
       id="path5160"
       transform="translate(-1722.5,-30.137817)" />
    <path
       style="fill:#000000;fill-opacity:0.3950178;stroke:none"
       d="m 1203.0905,342.94368 0,-17.85714 17.8572,0 17.8571,0 0,17.85714 0,17.85714 -17.8571,0 -17.8572,0 0,-17.85714 z"
       id="path5162"
       transform="translate(-1722.5,-30.137817)" />
    <path
       style="fill:#000000;fill-opacity:0.3950178;stroke:none"
       d="m 1165.9477,342.94368 0,-17.85714 17.8571,0 17.8571,0 0,17.85714 0,17.85714 -17.8571,0 -17.8571,0 0,-17.85714 z"
       id="path5164"
       transform="translate(-1722.5,-30.137817)" />
    <path
       style="fill:#000000;fill-opacity:0.3950178;stroke:none"
       d="m 1123.0905,342.94368 0,-17.85714 17.8572,0 17.8571,0 0,17.85714 0,17.85714 -17.8571,0 -17.8572,0 0,-17.85714 z"
       id="path5166"
       transform="translate(-1722.5,-30.137817)" />
    <path
       style="fill:#000000;fill-opacity:0.3950178;stroke:none"
       d="m 1085.9477,381.51511 0,-17.85714 17.8571,0 17.8571,0 0,17.85714 0,17.85714 -17.8571,0 -17.8571,0 0,-17.85714 z"
       id="path5168"
       transform="translate(-1722.5,-30.137817)" />
    <path
       style="fill:#000000;fill-opacity:0.3950178;stroke:none"
       d="m 1085.9477,342.94368 0,-17.85714 17.8571,0 17.8571,0 0,17.85714 0,17.85714 -17.8571,0 -17.8571,0 0,-17.85714 z"
       id="path5170"
       transform="translate(-1722.5,-30.137817)" />
    <path
       style="fill:#000000;fill-opacity:0.3950178;stroke:none"
       d="m 1043.0905,381.51511 0,-17.85714 17.8572,0 17.8571,0 0,17.85714 0,17.85714 -17.8571,0 -17.8572,0 0,-17.85714 z"
       id="path5172"
       transform="translate(-1722.5,-30.137817)" />
    <path
       style="fill:#000000;fill-opacity:0.3950178;stroke:none"
       d="m 1005.9477,381.51511 0,-17.85714 17.8571,0 17.8571,0 0,17.85714 0,17.85714 -17.8571,0 -17.8571,0 0,-17.85714 z"
       id="path5174"
       transform="translate(-1722.5,-30.137817)" />
    <path
       style="fill:#000000;fill-opacity:0.3950178;stroke:none"
       d="m 1005.9477,342.94368 0,-17.85714 17.8571,0 17.8571,0 0,17.85714 0,17.85714 -17.8571,0 -17.8571,0 0,-17.85714 z"
       id="path5176"
       transform="translate(-1722.5,-30.137817)" />
    <path
       style="fill:#000000;fill-opacity:0.3950178;stroke:none"
       d="m 963.09052,381.51511 0,-17.85714 17.85714,0 17.85714,0 0,17.85714 0,17.85714 -17.85714,0 -17.85714,0 0,-17.85714 z"
       id="path5178"
       transform="translate(-1722.5,-30.137817)" />
    <path
       style="fill:#000000;fill-opacity:0.3950178;stroke:none"
       d="m 925.94766,381.51511 0,-17.85714 17.85714,0 17.85715,0 0,17.85714 0,17.85714 -17.85715,0 -17.85714,0 0,-17.85714 z"
       id="path5180"
       transform="translate(-1722.5,-30.137817)" />
    <path
       style="fill:#000000;fill-opacity:0.3950178;stroke:none"
       d="m 925.94766,342.94368 0,-17.85714 17.85714,0 17.85715,0 0,17.85714 0,17.85714 -17.85715,0 -17.85714,0 0,-17.85714 z"
       id="path5182"
       transform="translate(-1722.5,-30.137817)" />
    <path
       style="fill:#000000;fill-opacity:0.3950178;stroke:none"
       d="m 925.94766,301.51511 0,-17.85714 17.85714,0 17.85715,0 0,17.85714 0,17.85714 -17.85715,0 -17.85714,0 0,-17.85714 z"
       id="path5184"
       transform="translate(-1722.5,-30.137817)" />
    <path
       style="fill:#000000;fill-opacity:0.3950178;stroke:none"
       d="m 963.09052,301.51511 0,-17.85714 17.85714,0 17.85714,0 0,17.85714 0,17.85714 -17.85714,0 -17.85714,0 0,-17.85714 z"
       id="path5186"
       transform="translate(-1722.5,-30.137817)" />
    <path
       style="fill:#000000;fill-opacity:0.3950178;stroke:none"
       d="m 925.94766,262.94368 0,-17.85714 17.85714,0 17.85715,0 0,17.85714 0,17.85714 -17.85715,0 -17.85714,0 0,-17.85714 z"
       id="path5188"
       transform="translate(-1722.5,-30.137817)" />
    <path
       style="fill:#000000;fill-opacity:0.3950178;stroke:none"
       d="m 1005.9477,262.94368 0,-17.85714 17.8571,0 17.8571,0 0,17.85714 0,17.85714 -17.8571,0 -17.8571,0 0,-17.85714 z"
       id="path5190"
       transform="translate(-1722.5,-30.137817)" />
    <path
       style="fill:#000000;fill-opacity:0.3950178;stroke:none"
       d="m 1043.0905,262.94368 0,-17.85714 17.8572,0 17.8571,0 0,17.85714 0,17.85714 -17.8571,0 -17.8572,0 0,-17.85714 z"
       id="path5192"
       transform="translate(-1722.5,-30.137817)" />
    <path
       style="fill:#000000;fill-opacity:0.3950178;stroke:none"
       d="m 1043.0905,301.51511 0,-17.85714 17.8572,0 17.8571,0 0,17.85714 0,17.85714 -17.8571,0 -17.8572,0 0,-17.85714 z"
       id="path5194"
       transform="translate(-1722.5,-30.137817)" />
    <path
       style="fill:#000000;fill-opacity:0.3950178;stroke:none"
       d="m 1085.9477,301.51511 0,-17.85714 17.8571,0 17.8571,0 0,17.85714 0,17.85714 -17.8571,0 -17.8571,0 0,-17.85714 z"
       id="path5196"
       transform="translate(-1722.5,-30.137817)" />
    <path
       style="fill:#000000;fill-opacity:0.3950178;stroke:none"
       d="m 1085.9477,262.94368 0,-17.85714 17.8571,0 17.8571,0 0,17.85714 0,17.85714 -17.8571,0 -17.8571,0 0,-17.85714 z"
       id="path5198"
       transform="translate(-1722.5,-30.137817)" />
    <path
       style="fill:#000000;fill-opacity:0.3950178;stroke:none"
       d="m 1123.0905,301.51511 0,-17.85714 17.8572,0 17.8571,0 0,17.85714 0,17.85714 -17.8571,0 -17.8572,0 0,-17.85714 z"
       id="path5200"
       transform="translate(-1722.5,-30.137817)" />
    <path
       style="fill:#000000;fill-opacity:0.3950178;stroke:none"
       d="m 1165.9477,262.94368 0,-17.85714 17.8571,0 17.8571,0 0,17.85714 0,17.85714 -17.8571,0 -17.8571,0 0,-17.85714 z"
       id="path5202"
       transform="translate(-1722.5,-30.137817)" />
    <path
       style="fill:#000000;fill-opacity:0.3950178;stroke:none"
       d="m 1203.0905,262.94368 0,-17.85714 17.8572,0 17.8571,0 0,17.85714 0,17.85714 -17.8571,0 -17.8572,0 0,-17.85714 z"
       id="path5204"
       transform="translate(-1722.5,-30.137817)" />
    <path
       style="fill:#000000;fill-opacity:0.3950178;stroke:none"
       d="m 1203.0905,301.51511 0,-17.85714 17.8572,0 17.8571,0 0,17.85714 0,17.85714 -17.8571,0 -17.8572,0 0,-17.85714 z"
       id="path5206"
       transform="translate(-1722.5,-30.137817)" />
    <path
       style="fill:#000000;fill-opacity:0.3950178;stroke:none"
       d="m 1165.9477,221.51511 0,-17.85714 17.8571,0 17.8571,0 0,17.85714 0,17.85714 -17.8571,0 -17.8571,0 0,-17.85714 z"
       id="path5208"
       transform="translate(-1722.5,-30.137817)" />
    <path
       style="fill:#000000;fill-opacity:0.3950178;stroke:none"
       d="m 1165.9477,182.94368 0,-17.85714 17.8571,0 17.8571,0 0,17.85714 0,17.85714 -17.8571,0 -17.8571,0 0,-17.85714 z"
       id="path5210"
       transform="translate(-1722.5,-30.137817)" />
    <path
       style="fill:#000000;fill-opacity:0.3950178;stroke:none"
       d="m 1203.0905,182.94368 0,-17.85714 17.8572,0 17.8571,0 0,17.85714 0,17.85714 -17.8571,0 -17.8572,0 0,-17.85714 z"
       id="path5212"
       transform="translate(-1722.5,-30.137817)" />
    <path
       style="fill:#000000;fill-opacity:0.3950178;stroke:none"
       d="m 1123.0905,221.51511 0,-17.85714 17.8572,0 17.8571,0 0,17.85714 0,17.85714 -17.8571,0 -17.8572,0 0,-17.85714 z"
       id="path5214"
       transform="translate(-1722.5,-30.137817)" />
    <path
       style="fill:#000000;fill-opacity:0.3950178;stroke:none"
       d="m 1085.9477,221.51511 0,-17.85714 17.8571,0 17.8571,0 0,17.85714 0,17.85714 -17.8571,0 -17.8571,0 0,-17.85714 z"
       id="path5216"
       transform="translate(-1722.5,-30.137817)" />
    <path
       style="fill:#000000;fill-opacity:0.3950178;stroke:none"
       d="m 1085.9477,182.94368 0,-17.85714 17.8571,0 17.8571,0 0,17.85714 0,17.85714 -17.8571,0 -17.8571,0 0,-17.85714 z"
       id="path5218"
       transform="translate(-1722.5,-30.137817)" />
    <path
       style="fill:#000000;fill-opacity:0.3950178;stroke:none"
       d="m 1043.0905,182.94368 0,-17.85714 17.8572,0 17.8571,0 0,17.85714 0,17.85714 -17.8571,0 -17.8572,0 0,-17.85714 z"
       id="path5220"
       transform="translate(-1722.5,-30.137817)" />
    <path
       style="fill:#000000;fill-opacity:0.3950178;stroke:none"
       d="m 1043.0905,221.51511 0,-17.85714 17.8572,0 17.8571,0 0,17.85714 0,17.85714 -17.8571,0 -17.8572,0 0,-17.85714 z"
       id="path5222"
       transform="translate(-1722.5,-30.137817)" />
    <path
       style="fill:#000000;fill-opacity:0.3950178;stroke:none"
       d="m 1005.9477,221.51511 0,-17.85714 17.8571,0 17.8571,0 0,17.85714 0,17.85714 -17.8571,0 -17.8571,0 0,-17.85714 z"
       id="path5224"
       transform="translate(-1722.5,-30.137817)" />
    <path
       style="fill:#000000;fill-opacity:0.3950178;stroke:none"
       d="m 925.94766,182.94368 0,-17.85714 17.85714,0 17.85715,0 0,17.85714 0,17.85714 -17.85715,0 -17.85714,0 0,-17.85714 z"
       id="path5226"
       transform="translate(-1722.5,-30.137817)" />
    <path
       style="fill:#000000;fill-opacity:0.3950178;stroke:none"
       d="m 925.94766,221.51511 0,-17.85714 17.85714,0 17.85715,0 0,17.85714 0,17.85714 -17.85715,0 -17.85714,0 0,-17.85714 z"
       id="path5228"
       transform="translate(-1722.5,-30.137817)" />
    <path
       style="fill:#000000;fill-opacity:0.3950178;stroke:none"
       d="m 963.09052,221.51511 0,-17.85714 17.85714,0 17.85714,0 0,17.85714 0,17.85714 -17.85714,0 -17.85714,0 0,-17.85714 z"
       id="path5230"
       transform="translate(-1722.5,-30.137817)" />
    <path
       style="fill:#ff0000;fill-opacity:0.3950178;stroke:none"
       d="m 926.55962,182.94368 0,-17.85714 17.14286,0 17.14286,0 0,17.85714 0,17.85714 -17.14286,0 -17.14286,0 0,-17.85714 z"
       id="path5232"
       transform="translate(-1722.5,-30.137817)" />
    <path
       style="fill:#ff0000;fill-opacity:0.3950178;stroke:none"
       d="m 1006.5596,221.51511 0,-17.85714 17.1429,0 17.1428,0 0,17.85714 0,17.85714 -17.1428,0 -17.1429,0 0,-17.85714 z"
       id="path5234"
       transform="translate(-1722.5,-30.137817)" />
    <path
       style="fill:#ff0000;fill-opacity:0.3950178;stroke:none"
       d="m 1086.5596,221.51511 0,-17.85714 17.1429,0 17.1428,0 0,17.85714 0,17.85714 -17.1428,0 -17.1429,0 0,-17.85714 z"
       id="path5236"
       transform="translate(-1722.5,-30.137817)" />
    <path
       style="fill:#ff0000;fill-opacity:0.3950178;stroke:none"
       d="m 1203.7025,182.94368 0,-17.85714 17.1428,0 17.1429,0 0,17.85714 0,17.85714 -17.1429,0 -17.1428,0 0,-17.85714 z"
       id="path5238"
       transform="translate(-1722.5,-30.137817)" />
    <path
       style="fill:#ff0000;fill-opacity:0.3950178;stroke:none"
       d="m 1166.5596,262.94368 0,-17.85714 17.1429,0 17.1428,0 0,17.85714 0,17.85714 -17.1428,0 -17.1429,0 0,-17.85714 z"
       id="path5240"
       transform="translate(-1722.5,-30.137817)" />
    <path
       style="fill:#ff0000;fill-opacity:0.3950178;stroke:none"
       d="m 1123.7025,301.51511 0,-17.85714 17.1428,0 17.1429,0 0,17.85714 0,17.85714 -17.1429,0 -17.1428,0 0,-17.85714 z"
       id="path5242"
       transform="translate(-1722.5,-30.137817)" />
    <path
       style="fill:#ff0000;fill-opacity:0.3950178;stroke:none"
       d="m 1043.7025,301.51511 0,-17.85714 17.1428,0 17.1429,0 0,17.85714 0,17.85714 -17.1429,0 -17.1428,0 0,-17.85714 z"
       id="path5244"
       transform="translate(-1722.5,-30.137817)" />
    <path
       style="fill:#ff0000;fill-opacity:0.3950178;stroke:none"
       d="m 963.70248,301.51511 0,-17.85714 17.14286,0 17.14286,0 0,17.85714 0,17.85714 -17.14286,0 -17.14286,0 0,-17.85714 z"
       id="path5246"
       transform="translate(-1722.5,-30.137817)" />
    <path
       style="fill:#ff0000;fill-opacity:0.3950178;stroke:none"
       d="m 963.70248,343.65797 0,-17.14286 17.14286,0 17.14286,0 0,17.14286 0,17.14285 -17.14286,0 -17.14286,0 0,-17.14285 z"
       id="path5248"
       transform="translate(-1722.5,-30.137817)" />
    <path
       style="fill:#ff0000;fill-opacity:0.3950178;stroke:none"
       d="m 1043.7025,343.65797 0,-17.14286 17.1428,0 17.1429,0 0,17.14286 0,17.14285 -17.1429,0 -17.1428,0 0,-17.14285 z"
       id="path5250"
       transform="translate(-1722.5,-30.137817)" />
    <path
       style="fill:#ff0000;fill-opacity:0.3950178;stroke:none"
       d="m 1086.5596,342.94368 0,-17.85714 17.1429,0 17.1428,0 0,17.85714 0,17.85714 -17.1428,0 -17.1429,0 0,-17.85714 z"
       id="path5252"
       transform="translate(-1722.5,-30.137817)" />
    <path
       style="fill:#ff0000;fill-opacity:0.3950178;stroke:none"
       d="m 1166.5596,342.94368 0,-17.85714 17.1429,0 17.1428,0 0,17.85714 0,17.85714 -17.1428,0 -17.1429,0 0,-17.85714 z"
       id="path5254"
       transform="translate(-1722.5,-30.137817)" />
    <path
       style="fill:#ff0000;fill-opacity:0.3950178;stroke:none"
       d="m 1165.6925,441.39827 c 0.4769,-1.24283 0.8671,-9.92141 0.8671,-19.28571 l 0,-17.02602 17.1429,0 17.1428,0 0,19.28571 0,19.28572 -18.0099,0 c -15.8359,0 -17.9054,-0.27279 -17.1429,-2.2597 z"
       id="path5256"
       transform="translate(-1722.5,-30.137817)" />
    <path
       style="fill:#ff0000;fill-opacity:0.3950178;stroke:none"
       d="m 1123.7025,461.51511 0,-17.85714 17.1428,0 17.1429,0 0,17.85714 0,17.85714 -17.1429,0 -17.1428,0 0,-17.85714 z"
       id="path5258"
       transform="translate(-1722.5,-30.137817)" />
    <path
       style="fill:#ff0000;fill-opacity:0.3950178;stroke:none"
       d="m 1043.7025,461.51511 0,-17.85714 17.1428,0 17.1429,0 0,17.85714 0,17.85714 -17.1429,0 -17.1428,0 0,-17.85714 z"
       id="path5260"
       transform="translate(-1722.5,-30.137817)" />
    <path
       style="fill:#ff0000;fill-opacity:0.3950178;stroke:none"
       d="m 963.70248,461.51511 0,-17.85714 17.14286,0 17.14286,0 0,17.85714 0,17.85714 -17.14286,0 -17.14286,0 0,-17.85714 z"
       id="path5262"
       transform="translate(-1722.5,-30.137817)" />
    <path
       style="fill:#ff0000;fill-opacity:0.3950178;stroke:none"
       d="m 1505.131,262.94368 0,-17.85714 17.8572,0 17.8571,0 0,17.85714 0,17.85714 -17.8571,0 -17.8572,0 0,-17.85714 z"
       id="path5264"
       transform="translate(-1722.5,-30.137817)" />
    <path
       style="fill:#ff0000;fill-opacity:0.3950178;stroke:none"
       d="m 1543.7025,262.94368 0,-17.85714 17.8571,0 17.8572,0 0,17.85714 0,17.85714 -17.8572,0 -17.8571,0 0,-17.85714 z"
       id="path5266"
       transform="translate(-1722.5,-30.137817)" />
    <path
       style="fill:#ff0000;fill-opacity:0.3950178;stroke:none"
       d="m 364.6428,26.933613 0,-16.42857 16.4286,0 16.4286,0 0,16.42857 0,16.42857 -16.4286,0 -16.4286,0 0,-16.42857 z"
       id="path5268" />
    <path
       style="fill:#ff0000;fill-opacity:0.3950178;stroke:none"
       d="m 1502.631,402.71808 c -2.8286,-1.15124 -2.5798,-157.04144 0.2552,-159.87644 1.7192,-1.71928 14.4317,-2.04082 80.687,-2.04082 l 78.6463,0 0.7795,3.21429 c 0.4288,1.76786 0.6017,38.25 0.3844,81.07143 l -0.3952,77.85714 -79.2857,0.25059 c -43.6072,0.13785 -80.0893,-0.0764 -81.0715,-0.47619 z m 78.2143,-40.51202 0,-38.59476 -38.2143,0.38048 -38.2142,0.38047 -0.3805,38.21429 -0.3805,38.21428 38.5948,0 38.5947,0 0,-38.59476 z m 80,0 0,-38.59476 -38.2143,0.38048 -38.2142,0.38047 -0.3805,38.21429 -0.3805,38.21428 38.5948,0 38.5947,0 0,-38.59476 z m -80,-80 0,-38.59476 -38.2143,0.38048 -38.2142,0.38047 -0.3805,38.21429 -0.3805,38.21428 38.5948,0 38.5947,0 0,-38.59476 0,0 z m 80,0 0,-38.59476 -38.2143,0.38048 -38.2142,0.38047 -0.3805,38.21429 -0.3805,38.21428 38.5948,0 38.5947,0 0,-38.59476 0,0 z"
       id="path5270"
       transform="translate(-1722.5,-30.137817)" />
    <path
       style="fill:#ff0000;fill-opacity:0.3950178;stroke:none"
       d="m 1623.7025,301.51511 0,-17.85714 17.8571,0 17.8572,0 0,17.85714 0,17.85714 -17.8572,0 -17.8571,0 0,-17.85714 z"
       id="path5272"
       transform="translate(-1722.5,-30.137817)" />
    <path
       style="fill:#ff0000;fill-opacity:0.3950178;stroke:none"
       d="m 1623.7025,262.94368 0,-17.85714 17.8571,0 17.8572,0 0,17.85714 0,17.85714 -17.8572,0 -17.8571,0 0,-17.85714 z"
       id="path5274"
       transform="translate(-1722.5,-30.137817)" />
    <path
       style="fill:#ff0000;fill-opacity:0.3950178;stroke:none"
       d="m 1585.131,301.51511 0,-17.85714 17.8572,0 17.8571,0 0,17.85714 0,17.85714 -17.8571,0 -17.8572,0 0,-17.85714 z"
       id="path5276"
       transform="translate(-1722.5,-30.137817)" />
    <path
       style="fill:#ff0000;fill-opacity:0.3950178;stroke:none"
       d="m -542.5,613.36218 0,-20 19.99994,0 20.00006,0 0,20 0,20 -20.00006,0 -19.99994,0 0,-20 z"
       id="path5278" />
    <path
       style="fill:#ff0000;fill-opacity:0.3950178;stroke:none"
       d="m 1505.131,301.51511 0,-17.85714 17.8572,0 17.8571,0 0,17.85714 0,17.85714 -17.8571,0 -17.8572,0 0,-17.85714 z"
       id="path5280"
       transform="translate(-1722.5,-30.137817)" />
    <path
       style="fill:#ff0000;fill-opacity:0.3950178;stroke:none"
       d="m 1505.131,342.94368 0,-17.85714 17.8572,0 17.8571,0 0,17.85714 0,17.85714 -17.8571,0 -17.8572,0 0,-17.85714 z"
       id="path5282"
       transform="translate(-1722.5,-30.137817)" />
    <path
       style="fill:#ff0000;fill-opacity:0.3950178;stroke:none"
       d="m 1543.7025,342.94368 0,-17.85714 17.8571,0 17.8572,0 0,17.85714 0,17.85714 -17.8572,0 -17.8571,0 0,-17.85714 z"
       id="path5284"
       transform="translate(-1722.5,-30.137817)" />
    <path
       style="fill:#ff0000;fill-opacity:0.3950178;stroke:none"
       d="m -178.2143,351.21932 0,-17.85714 17.8571,0 17.8572,0 0,17.85714 0,17.85714 -17.8572,0 -17.8571,0 0,-17.85714 z"
       id="path5286" />
    <path
       style="fill:#ff0000;fill-opacity:0.3950178;stroke:none"
       d="m 1585.131,381.51511 0,-17.85714 17.8572,0 17.8571,0 0,17.85714 0,17.85714 -17.8571,0 -17.8572,0 0,-17.85714 z"
       id="path5288"
       transform="translate(-1722.5,-30.137817)" />
    <path
       style="fill:#ff0000;fill-opacity:0.3950178;stroke:none"
       d="m 1585.131,342.94368 0,-17.85714 17.8572,0 17.8571,0 0,17.85714 0,17.85714 -17.8571,0 -17.8572,0 0,-17.85714 z"
       id="path5290"
       transform="translate(-1722.5,-30.137817)" />
    <path
       style="fill:#ff0000;fill-opacity:0.3950178;stroke:none"
       d="m 1623.7025,342.94368 0,-17.85714 17.8571,0 17.8572,0 0,17.85714 0,17.85714 -17.8572,0 -17.8571,0 0,-17.85714 z"
       id="path5292"
       transform="translate(-1722.5,-30.137817)" />
    <path
       style="fill:#ff0000;fill-opacity:0.3950178;stroke:none"
       d="m 361.7856,94.790753 0,-17.14285 16.4286,0 16.4286,0 0,17.14285 0,17.142857 -16.4286,0 -16.4286,0 0,-17.142857 z"
       id="path5294" />
    <path
       style="fill:#ff0000;fill-opacity:0.3950178;stroke:none"
       d="m 389.6428,111.93361 0,-17.142847 17.1429,0 17.1428,0 0,17.142847 0,17.14286 -17.1428,0 -17.1429,0 0,-17.14286 z"
       id="path5296" />
    <path
       style="fill:#ff0000;fill-opacity:0.3950178;stroke:none"
       d="m 1505.355,381.54107 0,-18.18275 18.1827,0 18.1828,0 0,18.18275 0,18.18274 -18.1828,0 -18.1827,0 0,-18.18274 z"
       id="path5298"
       transform="translate(-1722.5,-30.137817)" />
    <path
       style="fill:#ff0000;fill-opacity:0.3950178;stroke:none"
       d="m 1623.0377,381.54107 0,-18.18275 18.4353,0 18.4353,0 0,18.18275 0,18.18274 -18.4353,0 -18.4353,0 0,-18.18274 z"
       id="path5300"
       transform="translate(-1722.5,-30.137817)" />
    <path
       style="fill:#ff0000;fill-opacity:0.3950178;stroke:none"
       d="m 1543.2357,301.48648 0,-18.43528 18.1827,0 18.1828,0 0,18.43528 0,18.43528 -18.1828,0 -18.1827,0 0,-18.43528 z"
       id="path5302"
       transform="translate(-1722.5,-30.137817)" />
    <path
       style="fill:#ff0000;fill-opacity:0.3950178;stroke:none"
       d="m 1585.157,263.35322 0,-18.18274 18.1828,0 18.1827,0 0,18.18274 0,18.18275 -18.1827,0 -18.1828,0 0,-18.18275 z"
       id="path5304"
       transform="translate(-1722.5,-30.137817)" />
  </g>
</svg>
