<?xml version="1.0" encoding="UTF-8" standalone="no"?>
<!-- Created with Inkscape (http://www.inkscape.org/) -->

<svg
   xmlns:dc="http://purl.org/dc/elements/1.1/"
   xmlns:cc="http://creativecommons.org/ns#"
   xmlns:rdf="http://www.w3.org/1999/02/22-rdf-syntax-ns#"
   xmlns:svg="http://www.w3.org/2000/svg"
   xmlns="http://www.w3.org/2000/svg"
   xmlns:sodipodi="http://sodipodi.sourceforge.net/DTD/sodipodi-0.dtd"
   xmlns:inkscape="http://www.inkscape.org/namespaces/inkscape"
   width="4605.6724"
   height="1224.3572"
   id="svg2"
   version="1.1"
   inkscape:version="0.47 r22583"
   sodipodi:docname="separable.pdf">
  <defs
     id="defs4">
    <inkscape:perspective
       sodipodi:type="inkscape:persp3d"
       inkscape:vp_x="4321.5 : -2022.9567 : 1"
       inkscape:vp_y="0 : 1000 : 0"
       inkscape:vp_z="5065.5945 : -2022.9567 : 1"
       inkscape:persp3d-origin="4693.5472 : -2198.3504 : 1"
       id="perspective10" />
  </defs>
  <sodipodi:namedview
     id="base"
     pagecolor="#ffffff"
     bordercolor="#666666"
     borderopacity="1.0"
     inkscape:pageopacity="0.0"
     inkscape:pageshadow="2"
     inkscape:zoom="0.24748737"
     inkscape:cx="2354.7489"
     inkscape:cy="237.42097"
     inkscape:document-units="px"
     inkscape:current-layer="layer1"
     showgrid="true"
     inkscape:window-width="1920"
     inkscape:window-height="1003"
     inkscape:window-x="0"
     inkscape:window-y="25"
     inkscape:window-maximized="1">
    <inkscape:grid
       type="xygrid"
       id="grid2816"
       empspacing="5"
       visible="true"
       enabled="true"
       snapvisiblegridlinesonly="true" />
  </sodipodi:namedview>
  <metadata
     id="metadata7">
    <rdf:RDF>
      <cc:Work
         rdf:about="">
        <dc:format>image/svg+xml</dc:format>
        <dc:type
           rdf:resource="http://purl.org/dc/dcmitype/StillImage" />
        <dc:title></dc:title>
      </cc:Work>
    </rdf:RDF>
  </metadata>
  <g
     inkscape:label="レイヤー 1"
     inkscape:groupmode="layer"
     id="layer1"
     transform="translate(4321.5,2549.1378)">
    <rect
       style="fill:none;stroke:#000000;stroke-width:3;stroke-miterlimit:4;stroke-opacity:1;stroke-dasharray:none"
       id="rect3310"
       width="240"
       height="720"
       x="-4320"
       y="-2147.6377" />
    <rect
       y="-2547.6377"
       x="-3920"
       height="720"
       width="240"
       id="rect4086"
       style="fill:none;stroke:#000000;stroke-width:3;stroke-miterlimit:4;stroke-opacity:1;stroke-dasharray:none" />
    <path
       style="fill:none;stroke:#000000;stroke-width:3;stroke-linecap:butt;stroke-linejoin:miter;stroke-miterlimit:4;stroke-opacity:1;stroke-dasharray:none"
       d="M -3682.8571,-2544.7807 -4080,-2147.6378"
       id="path4088" />
    <path
       style="fill:none;stroke:#000000;stroke-width:3;stroke-linecap:butt;stroke-linejoin:miter;stroke-miterlimit:4;stroke-opacity:1;stroke-dasharray:none"
       d="m -3920,-2547.6378 -400,400"
       id="path4090" />
    <path
       style="fill:none;stroke:#000000;stroke-width:3;stroke-linecap:butt;stroke-linejoin:miter;stroke-miterlimit:4;stroke-opacity:1;stroke-dasharray:none"
       d="m -3680,-1827.6378 -400,400"
       id="path4092" />
    <path
       style="fill:none;stroke:#000000;stroke-width:3;stroke-linecap:butt;stroke-linejoin:miter;stroke-miterlimit:4;stroke-opacity:1;stroke-dasharray:none"
       d="M -3918.3817,-1827.5827 -4320,-1427.6378"
       id="path4094" />
    <rect
       style="fill:none;stroke:#000000;stroke-width:3;stroke-linecap:square;stroke-linejoin:miter;stroke-miterlimit:4;stroke-opacity:1;stroke-dasharray:none;stroke-dashoffset:0"
       id="rect4096"
       width="240"
       height="240"
       x="-4141.9873"
       y="-2030.0189" />
    <rect
       y="-2150.0188"
       x="-4021.9875"
       height="240"
       width="240"
       id="rect4098"
       style="fill:none;stroke:#000000;stroke-width:3;stroke-linecap:square;stroke-linejoin:miter;stroke-miterlimit:4;stroke-opacity:1;stroke-dasharray:none;stroke-dashoffset:0" />
    <path
       id="path4100"
       d="m -3781.9875,-2150.0188 -120,120"
       style="fill:none;stroke:#000000;stroke-width:3;stroke-linecap:butt;stroke-linejoin:miter;stroke-miterlimit:4;stroke-opacity:1;stroke-dasharray:none"
       sodipodi:nodetypes="cc" />
    <path
       sodipodi:nodetypes="cc"
       style="fill:none;stroke:#000000;stroke-width:3;stroke-linecap:butt;stroke-linejoin:miter;stroke-miterlimit:4;stroke-opacity:1;stroke-dasharray:none"
       d="m -3781.9875,-1910.0188 -120,120"
       id="path4102" />
    <path
       id="path4104"
       d="m -4021.9875,-2150.0188 -120,120"
       style="fill:none;stroke:#000000;stroke-width:3;stroke-linecap:butt;stroke-linejoin:miter;stroke-miterlimit:4;stroke-opacity:1;stroke-dasharray:none"
       sodipodi:nodetypes="cc" />
    <path
       sodipodi:nodetypes="cc"
       style="fill:none;stroke:#000000;stroke-width:3;stroke-linecap:butt;stroke-linejoin:miter;stroke-miterlimit:4;stroke-opacity:1;stroke-dasharray:none"
       d="m -4021.9875,-1910.0188 -120,120"
       id="path4106" />
    <path
       style="fill:none;stroke:none"
       d="m -3880,-1980.4466 0,-67.1912 47.4772,-47.445 47.4772,-47.4449 0,114.6362 0,114.6362 -47.4772,0 -47.4772,0 0,-67.1913 z"
       id="path4108" />
    <path
       style="fill:#0000ff;fill-opacity:0.3950178;stroke:none"
       d="m -3934.1217,-1808.9805 16.7743,-16.7858 6.6129,0 6.6128,0 0,16.7858 0,16.7857 -23.3872,0 -23.3871,0 16.7743,-16.7857 z"
       id="path4156" />
    <path
       style="fill:#0000ff;fill-opacity:0.3950178;stroke:none"
       d="m -3899.836,-1810.4091 0,-15.3572 15.5295,0 15.5295,0 -15.3447,15.3572 c -8.4396,8.4464 -15.4278,15.3571 -15.5295,15.3571 -0.1016,0 -0.1848,-6.9107 -0.1848,-15.3571 z"
       id="path4158" />
    <path
       style="fill:#0000ff;fill-opacity:0.3950178;stroke:none"
       d="m -3899.836,-1868.6234 0,-39.2857 56.6047,0 56.6047,0 -39.2808,39.2857 -39.2809,39.2857 -17.3238,0 -17.3239,0 0,-39.2857 z"
       id="path4160" />
    <path
       style="fill:#0000ff;fill-opacity:0.3950178;stroke:none"
       d="m -4078.4074,-1821.6625 0,-29.4676 28.3962,-28.3895 28.3961,-28.3895 49.8181,0 49.8182,0 0,40.5412 0,40.5412 -17.3268,17.3159 -17.3268,17.316 -60.8875,0 -60.8875,0 0,-29.4677 z"
       id="path4162" />
    <path
       style="fill:#0000ff;fill-opacity:0.3950178;stroke:none"
       d="m -3918.4074,-1868.6234 0,-39.2857 7.1428,0 7.1429,0 0,39.2857 0,39.2857 -7.1429,0 -7.1428,0 0,-39.2857 z"
       id="path4164" />
    <path
       style="fill:#0000ff;fill-opacity:0.3950178;stroke:none"
       d="m -4109.836,-1819.6948 c 15.1212,-15.125 27.575,-27.5 27.6751,-27.5 0.1001,0 0.1821,12.375 0.1821,27.5 l 0,27.5 -27.6751,0 -27.6751,0 27.493,-27.5 z"
       id="path4166" />
    <path
       style="fill:#0000ff;fill-opacity:0.3950178;stroke:none"
       d="m -4139.836,-1911.3053 0,-116.6038 28.9286,0 28.9286,0 0,87.6819 0,87.6818 -28.9286,28.922 -28.9286,28.922 0,-116.6039 z"
       id="path4168" />
    <path
       style="fill:#0000ff;fill-opacity:0.3950178;stroke:none"
       d="m -4078.4074,-1942.0198 0,-85.8893 27.1428,0 27.1429,0 0,58.7535 0,58.7535 -27.1429,27.1358 -27.1428,27.1359 0,-85.8894 z"
       id="path4170" />
    <path
       style="fill:#0000ff;fill-opacity:0.3950178;stroke:none"
       d="m -4019.836,-1970.052 0,-57.8571 48.9286,0 48.9286,0 0,57.8571 0,57.8572 -48.9286,0 -48.9286,0 0,-57.8572 z"
       id="path4172" />
    <path
       style="fill:#0000ff;fill-opacity:0.3950178;stroke:none"
       d="m -3918.4074,-1970.052 0,-57.8571 7.1428,0 7.1429,0 0,57.8571 0,57.8572 -7.1429,0 -7.1428,0 0,-57.8572 z"
       id="path4174" />
    <path
       style="fill:#0000ff;fill-opacity:0.3950178;stroke:none"
       d="m -3899.836,-1970.9465 0,-58.7516 57.8572,-57.8539 57.8571,-57.8538 0,116.6055 0,116.6055 -57.8571,0 -57.8572,0 0,-58.7517 z"
       id="path4176" />
    <path
       style="fill:#0000ff;fill-opacity:0.3950178;stroke:none"
       d="m -3918.4074,-2090.052 0,-57.8571 65.8912,0 65.8912,0 -57.8538,57.8571 -57.8539,57.8572 -8.0373,0 -8.0374,0 0,-57.8572 z"
       id="path4178" />
    <path
       style="fill:#0000ff;fill-opacity:0.3950178;stroke:none"
       d="m -4078.4074,-2061.6626 0,-29.4678 27.1428,-27.1359 27.1429,-27.1358 0,56.6037 0,56.6036 -27.1429,0 -27.1428,0 0,-29.4678 z"
       id="path4182" />
    <path
       style="fill:#0000ff;fill-opacity:0.3950178;stroke:none"
       d="m -4109.9525,-2059.7695 c 15.5176,-15.5178 28.2341,-28.2143 28.2587,-28.2143 0.025,0 0.045,12.6965 0.045,28.2143 l 0,28.2143 -28.2587,0 -28.2588,0 28.2139,-28.2143 z"
       id="path4184" />
    <rect
       y="-2147.6377"
       x="-3480"
       height="720"
       width="160"
       id="rect4186"
       style="fill:none;stroke:#000000;stroke-width:3;stroke-miterlimit:4;stroke-opacity:1;stroke-dasharray:none" />
    <rect
       style="fill:none;stroke:#000000;stroke-width:3;stroke-miterlimit:4;stroke-opacity:1;stroke-dasharray:none"
       id="rect4188"
       width="160"
       height="720"
       x="-3080"
       y="-2547.6377" />
    <path
       id="path4190"
       d="m -2920,-2547.6378 -397.1429,397.1429"
       style="fill:none;stroke:#000000;stroke-width:3;stroke-linecap:butt;stroke-linejoin:miter;stroke-miterlimit:4;stroke-opacity:1;stroke-dasharray:none" />
    <path
       style="fill:none;stroke:#000000;stroke-width:3;stroke-linecap:butt;stroke-linejoin:miter;stroke-miterlimit:4;stroke-opacity:1;stroke-dasharray:none"
       d="m -3080,-2547.6378 -397.1429,397.1429"
       id="path4192" />
    <path
       id="path4194"
       d="M -3082.8571,-1824.7807 -3480,-1427.6378"
       style="fill:none;stroke:#000000;stroke-width:3;stroke-linecap:butt;stroke-linejoin:miter;stroke-miterlimit:4;stroke-opacity:1;stroke-dasharray:none" />
    <path
       style="fill:none;stroke:#000000;stroke-width:3;stroke-linecap:butt;stroke-linejoin:miter;stroke-miterlimit:4;stroke-opacity:1;stroke-dasharray:none"
       d="m -2920,-1827.6378 -397.1429,397.1429"
       id="path4196" />
    <rect
       style="fill:none;stroke:#000000;stroke-width:3;stroke-miterlimit:4;stroke-opacity:1;stroke-dasharray:none"
       id="rect4198"
       width="40"
       height="40"
       x="-3180.2922"
       y="-2027.3364" />
    <rect
       y="-2047.3364"
       x="-3160.2922"
       height="40"
       width="40"
       id="rect4200"
       style="fill:none;stroke:#000000;stroke-width:3;stroke-miterlimit:4;stroke-opacity:1;stroke-dasharray:none" />
    <path
       style="fill:none;stroke:#000000;stroke-width:3;stroke-linecap:butt;stroke-linejoin:miter;stroke-miterlimit:4;stroke-opacity:1;stroke-dasharray:none"
       d="m -3140.2923,-2027.3363 20,-20"
       id="path4202" />
    <path
       style="fill:none;stroke:#000000;stroke-width:3;stroke-linecap:butt;stroke-linejoin:miter;stroke-miterlimit:4;stroke-opacity:1;stroke-dasharray:none"
       d="m -3160.2923,-2047.3363 -20,20"
       id="path4206" />
    <path
       style="fill:none;stroke:#000000;stroke-width:3;stroke-linecap:butt;stroke-linejoin:miter;stroke-miterlimit:4;stroke-opacity:1;stroke-dasharray:none"
       d="m -3160,-2007.6378 -20.2923,20.3015"
       id="path4208" />
    <path
       style="fill:none;stroke:#000000;stroke-width:3;stroke-linecap:butt;stroke-linejoin:miter;stroke-miterlimit:4;stroke-opacity:1;stroke-dasharray:none"
       d="m -3120.2923,-2007.3363 -19.6309,20.4066"
       id="path4210" />
    <path
       style="fill:none;stroke:#000000;stroke-width:3;stroke-linecap:butt;stroke-linejoin:miter;stroke-miterlimit:4;stroke-opacity:1;stroke-dasharray:none"
       d="m -3780,-2147.6378 620,100"
       id="path4212" />
    <path
       style="fill:none;stroke:#000000;stroke-width:3;stroke-linecap:butt;stroke-linejoin:miter;stroke-miterlimit:4;stroke-opacity:1;stroke-dasharray:none"
       d="m -3900,-1787.6378 720,-200"
       id="path4214" />
    <path
       style="fill:#0000ff;fill-opacity:0.3950178;stroke:none"
       d="m -3167.7003,-1997.3442 7.8328,-7.8571 8.7622,0 8.7622,0 0,7.8571 0,7.8572 -16.595,0 -16.595,0 7.8328,-7.8572 z"
       id="path4216" />
    <path
       style="fill:#0000ff;fill-opacity:0.3950178;stroke:none"
       d="m -3158.7717,-2017.3442 0,-7.8571 8.2143,0 8.2143,0 0,7.8571 0,7.8572 -8.2143,0 -8.2143,0 0,-7.8572 z"
       id="path4218" />
    <path
       style="fill:#0000ff;fill-opacity:0.3950178;stroke:none"
       d="m -3158.7717,-2037.3442 0,-7.8571 16.9521,0 16.9521,0 -7.8328,7.8571 -7.8328,7.8572 -9.1193,0 -9.1193,0 0,-7.8572 z"
       id="path4220" />
    <path
       style="fill:#0000ff;fill-opacity:0.3950178;stroke:none"
       d="m -3138.7717,-2017.8915 0,-8.4045 8.2143,-8.191 8.2143,-8.191 0,16.5955 0,16.5955 -8.2143,0 -8.2143,0 0,-8.4045 z"
       id="path4222" />
    <path
       style="fill:#0000ff;fill-opacity:0.3950178;stroke:none"
       d="m -3138.7717,-1998.4156 0,-6.7857 6.9502,0 6.9501,0 -6.7575,6.7857 c -3.7166,3.7322 -6.8442,6.7857 -6.9501,6.7857 -0.106,0 -0.1927,-3.0535 -0.1927,-6.7857 z"
       id="path4224" />
    <path
       style="fill:#0000ff;fill-opacity:0.3950178;stroke:none"
       d="m -3178.7717,-2008.2487 0,-16.9526 8.2143,0 8.2143,0 0,8.7616 0,8.7617 -8.2143,8.191 -8.2143,8.191 0,-16.9527 z"
       id="path4226" />
    <path
       style="fill:#0000ff;fill-opacity:0.3950178;stroke:none"
       d="m -3172.4978,-2029.3002 c 2.0757,-0.1447 5.29,-0.1432 7.1429,0 1.8529,0.1466 0.1546,0.265 -3.774,0.2632 -3.9285,0 -5.4445,-0.1218 -3.3689,-0.2666 z"
       id="path4228" />
    <path
       style="fill:#0000ff;fill-opacity:0.3950178;stroke:none"
       d="m -3169.1289,-2035.9156 c 3.5194,-3.5357 6.4859,-6.4286 6.5923,-6.4286 0.1064,0 0.1935,2.8929 0.1935,6.4286 l 0,6.4286 -6.5923,0 -6.5922,0 6.3987,-6.4286 z"
       id="path4230" />
    <text
       xml:space="preserve"
       style="font-size:90.95014954px;font-style:normal;font-weight:normal;fill:#000000;fill-opacity:1;stroke:none;font-family:Bitstream Vera Sans"
       x="-3840"
       y="-1587.6378"
       id="text4232"><tspan
         sodipodi:role="line"
         id="tspan4234"
         x="-3840"
         y="-1587.6378">F</tspan></text>
    <text
       id="text4236"
       y="-2152.6377"
       x="-3660"
       style="font-size:90.95014954px;font-style:normal;font-weight:normal;fill:#000000;fill-opacity:1;stroke:none;font-family:Bitstream Vera Sans"
       xml:space="preserve"><tspan
         y="-2152.6377"
         x="-3660"
         id="tspan4238"
         sodipodi:role="line">F</tspan></text>
    <text
       xml:space="preserve"
       style="font-size:90.95014954px;font-style:normal;font-weight:normal;fill:#000000;fill-opacity:1;stroke:none;font-family:Bitstream Vera Sans"
       x="-4220"
       y="-1887.6378"
       id="text4240"><tspan
         sodipodi:role="line"
         id="tspan4242"
         x="-4220"
         y="-1887.6378">K</tspan></text>
    <text
       id="text4244"
       y="-1327.6378"
       x="-4240"
       style="font-size:90.95014954px;font-style:normal;font-weight:normal;fill:#000000;fill-opacity:1;stroke:none;font-family:Bitstream Vera Sans"
       xml:space="preserve"><tspan
         y="-1327.6378"
         x="-4240"
         id="tspan4246"
         sodipodi:role="line">M</tspan></text>
    <text
       xml:space="preserve"
       style="font-size:90.95014954px;font-style:normal;font-weight:normal;fill:#000000;fill-opacity:1;stroke:none;font-family:Bitstream Vera Sans"
       x="-3440"
       y="-1327.6378"
       id="text4248"><tspan
         sodipodi:role="line"
         id="tspan4250"
         x="-3440"
         y="-1327.6378">N</tspan></text>
    <text
       id="text4252"
       y="-1587.6378"
       x="-3040"
       style="font-size:90.95014954px;font-style:normal;font-weight:normal;fill:#000000;fill-opacity:1;stroke:none;font-family:Bitstream Vera Sans"
       xml:space="preserve"><tspan
         y="-1587.6378"
         x="-3040"
         id="tspan4254"
         sodipodi:role="line">F</tspan></text>
    <text
       xml:space="preserve"
       style="font-size:90.95014954px;font-style:normal;font-weight:normal;fill:#000000;fill-opacity:1;stroke:none;font-family:Bitstream Vera Sans"
       x="-2880"
       y="-2152.6377"
       id="text4256"><tspan
         sodipodi:role="line"
         id="tspan4258"
         x="-2880"
         y="-2152.6377">F</tspan></text>
    <path
       style="fill:#0000ff;fill-opacity:0.3950178;stroke:none"
       d="m -4020.3227,-2090.0615 0,-58.3929 49.2858,0 49.2857,0 0,58.3929 0,58.3928 -49.2857,0 -49.2858,0 0,-58.3928 z"
       id="path4264" />
    <rect
       y="-2147.6377"
       x="-2240"
       height="720"
       width="240"
       id="rect4266"
       style="fill:none;stroke:#000000;stroke-width:3;stroke-miterlimit:4;stroke-opacity:1;stroke-dasharray:none" />
    <rect
       style="fill:none;stroke:#000000;stroke-width:3;stroke-miterlimit:4;stroke-opacity:1;stroke-dasharray:none"
       id="rect4268"
       width="240"
       height="720"
       x="-1840"
       y="-2547.6377" />
    <path
       id="path4270"
       d="M -1602.8571,-2544.7806 -2000,-2147.6377"
       style="fill:none;stroke:#000000;stroke-width:3;stroke-linecap:butt;stroke-linejoin:miter;stroke-miterlimit:4;stroke-opacity:1;stroke-dasharray:none" />
    <path
       id="path4272"
       d="m -1840,-2547.6377 -400,400"
       style="fill:none;stroke:#000000;stroke-width:3;stroke-linecap:butt;stroke-linejoin:miter;stroke-miterlimit:4;stroke-opacity:1;stroke-dasharray:none" />
    <path
       id="path4274"
       d="m -1600,-1827.6377 -400,400"
       style="fill:none;stroke:#000000;stroke-width:3;stroke-linecap:butt;stroke-linejoin:miter;stroke-miterlimit:4;stroke-opacity:1;stroke-dasharray:none" />
    <path
       id="path4276"
       d="M -1838.3817,-1827.5826 -2240,-1427.6377"
       style="fill:none;stroke:#000000;stroke-width:3;stroke-linecap:butt;stroke-linejoin:miter;stroke-miterlimit:4;stroke-opacity:1;stroke-dasharray:none" />
    <rect
       y="-4357.21"
       x="-1061.9873"
       height="240"
       width="240"
       id="rect4278"
       style="fill:none;stroke:#000000;stroke-width:3;stroke-linecap:square;stroke-linejoin:miter;stroke-miterlimit:4;stroke-opacity:1;stroke-dasharray:none;stroke-dashoffset:0" />
    <rect
       style="fill:none;stroke:#000000;stroke-width:3;stroke-linecap:square;stroke-linejoin:miter;stroke-miterlimit:4;stroke-opacity:1;stroke-dasharray:none;stroke-dashoffset:0"
       id="rect4280"
       width="240"
       height="240"
       x="-941.98755"
       y="-4477.21" />
    <path
       sodipodi:nodetypes="cc"
       style="fill:none;stroke:#000000;stroke-width:3;stroke-linecap:butt;stroke-linejoin:miter;stroke-miterlimit:4;stroke-opacity:1;stroke-dasharray:none"
       d="m -701.9875,-4477.21 -120,120"
       id="path4282" />
    <path
       id="path4284"
       d="m -701.9875,-4237.21 -120,120"
       style="fill:none;stroke:#000000;stroke-width:3;stroke-linecap:butt;stroke-linejoin:miter;stroke-miterlimit:4;stroke-opacity:1;stroke-dasharray:none"
       sodipodi:nodetypes="cc" />
    <path
       sodipodi:nodetypes="cc"
       style="fill:none;stroke:#000000;stroke-width:3;stroke-linecap:butt;stroke-linejoin:miter;stroke-miterlimit:4;stroke-opacity:1;stroke-dasharray:none"
       d="m -941.9875,-4477.21 -120,120"
       id="path4286" />
    <path
       id="path4288"
       d="m -941.9875,-4237.21 -120,120"
       style="fill:none;stroke:#000000;stroke-width:3;stroke-linecap:butt;stroke-linejoin:miter;stroke-miterlimit:4;stroke-opacity:1;stroke-dasharray:none"
       sodipodi:nodetypes="cc" />
    <path
       id="path4290"
       d="m -800,-4307.6378 0,-67.1912 47.4772,-47.445 47.4772,-47.4449 0,114.6362 0,114.6362 -47.4772,0 -47.4772,0 0,-67.1913 z"
       style="fill:none;stroke:none" />
    <path
       id="path4292"
       d="m -2594.2857,-5599.2555 16.7743,-16.7858 6.6129,0 6.6128,0 0,16.7858 0,16.7857 -23.3872,0 -23.3871,0 16.7743,-16.7857 z"
       style="fill:#0000ff;fill-opacity:0.3950178;stroke:none" />
    <path
       id="path4294"
       d="m -2414.2857,-5543.8983 0,-15.3572 15.5295,0 15.5295,0 -15.3447,15.3572 c -8.4396,8.4464 -15.4278,15.3571 -15.5295,15.3571 -0.1016,0 -0.1848,-6.9107 -0.1848,-15.3571 z"
       style="fill:#0000ff;fill-opacity:0.3950178;stroke:none" />
    <path
       id="path4296"
       d="m -2594.2857,-5659.2555 0,-39.2857 56.6047,0 56.6047,0 -39.2808,39.2857 -39.2809,39.2857 -17.3238,0 -17.3239,0 0,-39.2857 z"
       style="fill:#0000ff;fill-opacity:0.3950178;stroke:none" />
    <path
       id="path4298"
       d="m -2691.078,-5593.0089 0,-29.4676 28.3962,-28.3895 28.3961,-28.3895 49.8181,0 49.8182,0 0,40.5412 0,40.5412 -17.3268,17.3159 -17.3268,17.316 -60.8875,0 -60.8875,0 0,-29.4677 z"
       style="fill:#0000ff;fill-opacity:0.3950178;stroke:none" />
    <path
       id="path4300"
       d="m -2448.5714,-5678.5412 0,-39.2857 7.1428,0 7.1429,0 0,39.2857 0,39.2857 -7.1429,0 -7.1428,0 0,-39.2857 z"
       style="fill:#0000ff;fill-opacity:0.3950178;stroke:none" />
    <path
       id="path4302"
       d="m -2434.2857,-5559.2555 c 15.1212,-15.125 27.575,-27.5 27.6751,-27.5 0.1001,0 0.1821,12.375 0.1821,27.5 l 0,27.5 -27.6751,0 -27.6751,0 27.493,-27.5 z"
       style="fill:#0000ff;fill-opacity:0.3950178;stroke:none" />
    <path
       id="path4304"
       d="m -2314.2857,-5679.2555 0,-116.6038 28.9286,0 28.9286,0 0,87.6819 0,87.6818 -28.9286,28.922 -28.9286,28.922 0,-116.6039 z"
       style="fill:#0000ff;fill-opacity:0.3950178;stroke:none" />
    <path
       id="path4306"
       d="m -2454.2857,-5699.2555 0,-85.8893 27.1428,0 27.1429,0 0,58.7535 0,58.7535 -27.1429,27.1358 -27.1428,27.1359 0,-85.8894 z"
       style="fill:#0000ff;fill-opacity:0.3950178;stroke:none" />
    <path
       id="path4308"
       d="m -2434.2857,-5777.1127 0,-57.8571 48.9286,0 48.9286,0 0,57.8571 0,57.8572 -48.9286,0 -48.9286,0 0,-57.8572 z"
       style="fill:#0000ff;fill-opacity:0.3950178;stroke:none" />
    <path
       id="path4310"
       d="m -2394.2857,-5599.2555 0,-57.8571 7.1428,0 7.1429,0 0,57.8571 0,57.8572 -7.1429,0 -7.1428,0 0,-57.8572 z"
       style="fill:#0000ff;fill-opacity:0.3950178;stroke:none" />
    <path
       id="path4312"
       d="m -2634.2857,-5620.5039 0,-58.7516 57.8572,-57.8539 57.8571,-57.8538 0,116.6055 0,116.6055 -57.8571,0 -57.8572,0 0,-58.7517 z"
       style="fill:#0000ff;fill-opacity:0.3950178;stroke:none" />
    <path
       id="path4314"
       d="m -2374.2857,-5579.2555 0,-57.8571 65.8912,0 65.8912,0 -57.8538,57.8571 -57.8539,57.8572 -8.0373,0 -8.0374,0 0,-57.8572 z"
       style="fill:#0000ff;fill-opacity:0.3950178;stroke:none" />
    <path
       id="path4316"
       d="m -2594.2857,-5799.2555 0,-29.4678 27.1428,-27.1359 27.1429,-27.1358 0,56.6037 0,56.6036 -27.1429,0 -27.1428,0 0,-29.4678 z"
       style="fill:#0000ff;fill-opacity:0.3950178;stroke:none" />
    <path
       id="path4318"
       d="m -2522.5894,-5727.4698 c 15.5176,-15.5178 28.2341,-28.2143 28.2587,-28.2143 0.025,0 0.045,12.6965 0.045,28.2143 l 0,28.2143 -28.2587,0 -28.2588,0 28.2139,-28.2143 z"
       style="fill:#0000ff;fill-opacity:0.3950178;stroke:none" />
    <rect
       style="fill:none;stroke:#000000;stroke-width:3;stroke-miterlimit:4;stroke-opacity:1;stroke-dasharray:none"
       id="rect4320"
       width="160"
       height="720"
       x="-362.85709"
       y="-2144.7805" />
    <rect
       y="-2544.7805"
       x="37.142883"
       height="720"
       width="160"
       id="rect4322"
       style="fill:none;stroke:#000000;stroke-width:3;stroke-miterlimit:4;stroke-opacity:1;stroke-dasharray:none" />
    <path
       style="fill:none;stroke:#000000;stroke-width:3;stroke-linecap:butt;stroke-linejoin:miter;stroke-miterlimit:4;stroke-opacity:1;stroke-dasharray:none"
       d="M 197.1429,-2544.7806 -200,-2147.6377"
       id="path4324" />
    <path
       id="path4326"
       d="M 37.1429,-2544.7806 -360,-2147.6377"
       style="fill:none;stroke:#000000;stroke-width:3;stroke-linecap:butt;stroke-linejoin:miter;stroke-miterlimit:4;stroke-opacity:1;stroke-dasharray:none" />
    <path
       style="fill:none;stroke:#000000;stroke-width:3;stroke-linecap:butt;stroke-linejoin:miter;stroke-miterlimit:4;stroke-opacity:1;stroke-dasharray:none"
       d="m 34.2858,-1821.9235 -397.1429,397.1429"
       id="path4328" />
    <path
       id="path4330"
       d="M 197.1429,-1824.7806 -200,-1427.6377"
       style="fill:none;stroke:#000000;stroke-width:3;stroke-linecap:butt;stroke-linejoin:miter;stroke-miterlimit:4;stroke-opacity:1;stroke-dasharray:none" />
    <rect
       y="-2024.4792"
       x="-63.149353"
       height="40"
       width="40"
       id="rect4332"
       style="fill:none;stroke:#000000;stroke-width:3;stroke-miterlimit:4;stroke-opacity:1;stroke-dasharray:none" />
    <rect
       style="fill:none;stroke:#000000;stroke-width:3;stroke-miterlimit:4;stroke-opacity:1;stroke-dasharray:none"
       id="rect4334"
       width="40"
       height="40"
       x="-43.149353"
       y="-2044.4792" />
    <path
       id="path4336"
       d="m -23.1494,-2024.4791 20,-20"
       style="fill:none;stroke:#000000;stroke-width:3;stroke-linecap:butt;stroke-linejoin:miter;stroke-miterlimit:4;stroke-opacity:1;stroke-dasharray:none" />
    <path
       id="path4338"
       d="m -43.1494,-2044.4791 -20,20"
       style="fill:none;stroke:#000000;stroke-width:3;stroke-linecap:butt;stroke-linejoin:miter;stroke-miterlimit:4;stroke-opacity:1;stroke-dasharray:none" />
    <path
       id="path4340"
       d="m -42.8571,-2004.7806 -20.2923,20.3015"
       style="fill:none;stroke:#000000;stroke-width:3;stroke-linecap:butt;stroke-linejoin:miter;stroke-miterlimit:4;stroke-opacity:1;stroke-dasharray:none" />
    <path
       id="path4342"
       d="m -3.1494,-2004.4791 -19.6309,20.4066"
       style="fill:none;stroke:#000000;stroke-width:3;stroke-linecap:butt;stroke-linejoin:miter;stroke-miterlimit:4;stroke-opacity:1;stroke-dasharray:none" />
    <path
       id="path4344"
       d="m -1021.9875,-4157.21 620,100"
       style="fill:none;stroke:#000000;stroke-width:3;stroke-linecap:butt;stroke-linejoin:miter;stroke-miterlimit:4;stroke-opacity:1;stroke-dasharray:none" />
    <path
       id="path4346"
       d="m -1181.9875,-3877.21 720,-200"
       style="fill:none;stroke:#000000;stroke-width:3;stroke-linecap:butt;stroke-linejoin:miter;stroke-miterlimit:4;stroke-opacity:1;stroke-dasharray:none" />
    <path
       id="path4348"
       d="m -50.5574,-1994.487 7.8328,-7.8571 8.7622,0 8.7622,0 0,7.8571 0,7.8572 -16.595,0 -16.595,0 7.8328,-7.8572 z"
       style="fill:#0000ff;fill-opacity:0.3950178;stroke:none" />
    <path
       id="path4350"
       d="m -41.6288,-2014.487 0,-7.8571 8.2143,0 8.2143,0 0,7.8571 0,7.8572 -8.2143,0 -8.2143,0 0,-7.8572 z"
       style="fill:#0000ff;fill-opacity:0.3950178;stroke:none" />
    <path
       id="path4352"
       d="m -41.6288,-2034.487 0,-7.8571 16.9521,0 16.9521,0 -7.8328,7.8571 -7.8328,7.8572 -9.1193,0 -9.1193,0 0,-7.8572 z"
       style="fill:#0000ff;fill-opacity:0.3950178;stroke:none" />
    <path
       id="path4354"
       d="m -21.6288,-2015.0343 0,-8.4045 8.2143,-8.191 8.2143,-8.191 0,16.5955 0,16.5955 -8.2143,0 -8.2143,0 0,-8.4045 z"
       style="fill:#0000ff;fill-opacity:0.3950178;stroke:none" />
    <path
       id="path4356"
       d="m -21.6288,-1995.5584 0,-6.7857 6.9502,0 6.9501,0 -6.7575,6.7857 c -3.7166,3.7322 -6.8442,6.7857 -6.9501,6.7857 -0.106,0 -0.1927,-3.0535 -0.1927,-6.7857 z"
       style="fill:#0000ff;fill-opacity:0.3950178;stroke:none" />
    <path
       id="path4358"
       d="m -61.6288,-2005.3915 0,-16.9526 8.2143,0 8.2143,0 0,8.7616 0,8.7617 -8.2143,8.191 -8.2143,8.191 0,-16.9527 z"
       style="fill:#0000ff;fill-opacity:0.3950178;stroke:none" />
    <path
       id="path4360"
       d="m -55.3549,-2026.443 c 2.0757,-0.1447 5.29,-0.1432 7.1429,0 1.8529,0.1466 0.1546,0.265 -3.774,0.2632 -3.9285,0 -5.4445,-0.1218 -3.3689,-0.2666 z"
       style="fill:#0000ff;fill-opacity:0.3950178;stroke:none" />
    <path
       id="path4362"
       d="m -51.986,-2033.0584 c 3.5194,-3.5357 6.4859,-6.4286 6.5923,-6.4286 0.1064,0 0.1935,2.8929 0.1935,6.4286 l 0,6.4286 -6.5923,0 -6.5922,0 6.3987,-6.4286 z"
       style="fill:#0000ff;fill-opacity:0.3950178;stroke:none" />
    <text
       id="text4364"
       y="-1587.6377"
       x="-1760"
       style="font-size:90.95014954px;font-style:normal;font-weight:normal;fill:#000000;fill-opacity:1;stroke:none;font-family:Bitstream Vera Sans"
       xml:space="preserve"><tspan
         y="-1587.6377"
         x="-1760"
         id="tspan4366"
         sodipodi:role="line">F</tspan></text>
    <text
       xml:space="preserve"
       style="font-size:90.95014954px;font-style:normal;font-weight:normal;fill:#000000;fill-opacity:1;stroke:none;font-family:Bitstream Vera Sans"
       x="-1560"
       y="-2152.6377"
       id="text4368"><tspan
         sodipodi:role="line"
         id="tspan4370"
         x="-1560"
         y="-2152.6377">F</tspan></text>
    <text
       id="text4372"
       y="-4214.8291"
       x="-1140"
       style="font-size:90.95014954px;font-style:normal;font-weight:normal;fill:#000000;fill-opacity:1;stroke:none;font-family:Bitstream Vera Sans"
       xml:space="preserve"><tspan
         y="-4214.8291"
         x="-1140"
         id="tspan4374"
         sodipodi:role="line">K</tspan></text>
    <text
       xml:space="preserve"
       style="font-size:90.95014954px;font-style:normal;font-weight:normal;fill:#000000;fill-opacity:1;stroke:none;font-family:Bitstream Vera Sans"
       x="-2160"
       y="-1327.6377"
       id="text4376"><tspan
         sodipodi:role="line"
         id="tspan4378"
         x="-2160"
         y="-1327.6377">M</tspan></text>
    <text
       id="text4380"
       y="-1324.7806"
       x="-322.85709"
       style="font-size:90.95014954px;font-style:normal;font-weight:normal;fill:#000000;fill-opacity:1;stroke:none;font-family:Bitstream Vera Sans"
       xml:space="preserve"><tspan
         y="-1324.7806"
         x="-322.85709"
         id="tspan4382"
         sodipodi:role="line">N</tspan></text>
    <text
       xml:space="preserve"
       style="font-size:90.95014954px;font-style:normal;font-weight:normal;fill:#000000;fill-opacity:1;stroke:none;font-family:Bitstream Vera Sans"
       x="77.142883"
       y="-1584.7806"
       id="text4384"><tspan
         sodipodi:role="line"
         id="tspan4386"
         x="77.142883"
         y="-1584.7806">F</tspan></text>
    <text
       id="text4388"
       y="-2149.7805"
       x="237.14288"
       style="font-size:90.95014954px;font-style:normal;font-weight:normal;fill:#000000;fill-opacity:1;stroke:none;font-family:Bitstream Vera Sans"
       xml:space="preserve"><tspan
         y="-2149.7805"
         x="237.14288"
         id="tspan4390"
         sodipodi:role="line">F</tspan></text>
    <path
       id="path4392"
       d="m -2494.2857,-5819.2555 0,-58.3929 49.2858,0 49.2857,0 0,58.3929 0,58.3928 -49.2857,0 -49.2858,0 0,-58.3928 z"
       style="fill:#0000ff;fill-opacity:0.3950178;stroke:none" />
    <rect
       style="fill:none;stroke:#000000;stroke-width:3;stroke-miterlimit:4;stroke-opacity:1;stroke-dasharray:none"
       id="rect4422"
       width="240"
       height="720"
       x="-1320"
       y="-2147.6377" />
    <rect
       y="-2547.6377"
       x="-920"
       height="720"
       width="240"
       id="rect4424"
       style="fill:none;stroke:#000000;stroke-width:3;stroke-miterlimit:4;stroke-opacity:1;stroke-dasharray:none" />
    <path
       style="fill:none;stroke:#000000;stroke-width:3;stroke-linecap:butt;stroke-linejoin:miter;stroke-miterlimit:4;stroke-opacity:1;stroke-dasharray:none"
       d="M -682.8571,-2544.7807 -1080,-2147.6378"
       id="path4426" />
    <path
       style="fill:none;stroke:#000000;stroke-width:3;stroke-linecap:butt;stroke-linejoin:miter;stroke-miterlimit:4;stroke-opacity:1;stroke-dasharray:none"
       d="m -920,-2547.6378 -400,400"
       id="path4428" />
    <path
       style="fill:none;stroke:#000000;stroke-width:3;stroke-linecap:butt;stroke-linejoin:miter;stroke-miterlimit:4;stroke-opacity:1;stroke-dasharray:none"
       d="m -680,-1827.6378 -400,400"
       id="path4430" />
    <path
       style="fill:none;stroke:#000000;stroke-width:3;stroke-linecap:butt;stroke-linejoin:miter;stroke-miterlimit:4;stroke-opacity:1;stroke-dasharray:none"
       d="M -918.3817,-1827.5827 -1320,-1427.6378"
       id="path4432" />
    <text
       xml:space="preserve"
       style="font-size:90.95014954px;font-style:normal;font-weight:normal;fill:#000000;fill-opacity:1;stroke:none;font-family:Bitstream Vera Sans"
       x="-840"
       y="-1587.6378"
       id="text4434"><tspan
         sodipodi:role="line"
         id="tspan4436"
         x="-840"
         y="-1587.6378">F</tspan></text>
    <text
       id="text4438"
       y="-2152.6377"
       x="-640"
       style="font-size:90.95014954px;font-style:normal;font-weight:normal;fill:#000000;fill-opacity:1;stroke:none;font-family:Bitstream Vera Sans"
       xml:space="preserve"><tspan
         y="-2152.6377"
         x="-640"
         id="tspan4440"
         sodipodi:role="line">F</tspan></text>
    <text
       id="text4442"
       y="-1327.6378"
       x="-1240"
       style="font-size:90.95014954px;font-style:normal;font-weight:normal;fill:#000000;fill-opacity:1;stroke:none;font-family:Bitstream Vera Sans"
       xml:space="preserve"><tspan
         y="-1327.6378"
         x="-1240"
         id="tspan4444"
         sodipodi:role="line">M</tspan></text>
    <rect
       style="fill:none;stroke:#000000;stroke-width:3;stroke-miterlimit:4;stroke-opacity:1;stroke-dasharray:none"
       id="rect4446"
       width="40"
       height="240"
       x="-1960"
       y="-2027.6376" />
    <path
       sodipodi:nodetypes="cc"
       style="fill:none;stroke:#000000;stroke-width:3;stroke-linecap:butt;stroke-linejoin:miter;stroke-miterlimit:4;stroke-opacity:1;stroke-dasharray:none"
       d="m -1800,-2147.6377 -120,120"
       id="path4454" />
    <rect
       y="-2147.6377"
       x="-1840"
       height="240"
       width="40"
       id="rect4456"
       style="fill:none;stroke:#000000;stroke-width:3;stroke-miterlimit:4;stroke-opacity:1;stroke-dasharray:none" />
    <path
       id="path4458"
       d="m -1840,-2147.6377 -120,120"
       style="fill:none;stroke:#000000;stroke-width:3;stroke-linecap:butt;stroke-linejoin:miter;stroke-miterlimit:4;stroke-opacity:1;stroke-dasharray:none"
       sodipodi:nodetypes="cc" />
    <path
       id="path4460"
       d="m -1800,-1907.6377 -120,120"
       style="fill:none;stroke:#000000;stroke-width:3;stroke-linecap:butt;stroke-linejoin:miter;stroke-miterlimit:4;stroke-opacity:1;stroke-dasharray:none"
       sodipodi:nodetypes="cc" />
    <path
       sodipodi:nodetypes="cc"
       style="fill:none;stroke:#000000;stroke-width:3;stroke-linecap:butt;stroke-linejoin:miter;stroke-miterlimit:4;stroke-opacity:1;stroke-dasharray:none"
       d="m -1840,-1907.6377 -120,120"
       id="path4462" />
    <path
       style="fill:none;stroke:#000000;stroke-width:1.51522887;stroke-linecap:square;stroke-linejoin:miter;stroke-miterlimit:4;stroke-opacity:1;stroke-dasharray:none;stroke-dashoffset:0"
       d="m -1838.3528,-2008.0318 0,-98.8713 18.1828,-18.1775 18.1827,-18.1775 0,117.0488 0,117.0488 -18.1827,0 -18.1828,0 0,-98.8713 z"
       id="path4464" />
    <path
       style="fill:#0000ff;fill-opacity:0.3950178;stroke:none"
       d="m -1837.2718,-2008.4034 0,-97.7434 17.1725,-17.1503 17.1726,-17.1503 0,114.8937 0,114.8937 -17.1726,0 -17.1725,0 0,-97.7434 z"
       id="path4486" />
    <path
       style="fill:#0000ff;fill-opacity:0.3950178;stroke:none"
       d="m -1838.282,-2129.358 0,-16.6675 16.9086,0 16.9085,0 -16.6445,16.6675 c -9.1545,9.1671 -16.7634,16.6675 -16.9086,16.6675 -0.1452,0 -0.264,-7.5004 -0.264,-16.6675 z"
       id="path4488" />
    <path
       style="fill:#0000ff;fill-opacity:0.3950178;stroke:none"
       d="m -1898.8877,-2085.9267 56.06,-56.0687 0.278,16.8951 0.278,16.895 -39.164,39.1737 -39.164,39.1736 -17.1741,0 -17.174,0 56.0601,-56.0687 z"
       id="path4490" />
    <path
       style="fill:#0000ff;fill-opacity:0.3950178;stroke:none"
       d="m -1918.084,-1929.3579 0,-96.9747 37.8807,-37.8706 37.8807,-37.8706 0,96.9746 0,96.9747 -37.8807,37.8706 -37.8807,37.8706 0,-96.9746 z"
       id="path4492" />
    <path
       style="fill:#0000ff;fill-opacity:0.3950178;stroke:none"
       d="m -1958.4902,-1908.9028 0,-116.9146 18.1828,0 18.1827,0 0,98.753 0,98.7529 -18.1827,18.1617 -18.1828,18.1617 0,-116.9147 z"
       id="path4494" />
    <path
       style="fill:#0000ff;fill-opacity:0.3950178;stroke:none"
       d="m -1918.0866,-1809.765 0,-17.4252 38.1333,-38.1307 38.1332,-38.1308 0,17.4252 0,17.4251 -38.1332,38.1307 -38.1333,38.1308 0,-17.4251 z"
       id="path4496" />
    <path
       style="fill:#0000ff;fill-opacity:0.3950178;stroke:none"
       d="m -1938.7947,-1806.4795 c 9.3029,-9.3061 16.9725,-16.9201 17.0435,-16.9201 0.071,0 0.1291,7.614 0.1291,16.9201 l 0,16.92 -17.0435,0 -17.0435,0 16.9144,-16.92 z"
       id="path4498" />
    <path
       style="fill:#0000ff;fill-opacity:0.3950178;stroke:none"
       d="m -1838.2846,-1889.0595 0,-16.6675 16.791,0 16.7909,0 -16.6618,16.6675 c -9.164,9.1671 -16.7199,16.6675 -16.7909,16.6675 -0.071,0 -0.1292,-7.5004 -0.1292,-16.6675 z"
       id="path4500" />
    <rect
       style="fill:none;stroke:#000000;stroke-width:3;stroke-linecap:square;stroke-linejoin:miter;stroke-miterlimit:4;stroke-opacity:1;stroke-dasharray:none;stroke-dashoffset:0"
       id="rect4504"
       width="240"
       height="40"
       x="-1080"
       y="-2027.6377" />
    <rect
       y="-2047.6377"
       x="-1060"
       height="40"
       width="240"
       id="rect4506"
       style="fill:none;stroke:#000000;stroke-width:3;stroke-linecap:square;stroke-linejoin:miter;stroke-miterlimit:4;stroke-opacity:1;stroke-dasharray:none;stroke-dashoffset:0" />
    <path
       style="fill:none;stroke:#000000;stroke-width:3;stroke-linecap:butt;stroke-linejoin:miter;stroke-miterlimit:4;stroke-opacity:1;stroke-dasharray:none"
       d="m -840,-2027.6377 20,-20"
       id="path4512" />
    <path
       id="path4514"
       d="m -840,-1987.6377 20,-20"
       style="fill:none;stroke:#000000;stroke-width:3;stroke-linecap:butt;stroke-linejoin:miter;stroke-miterlimit:4;stroke-opacity:1;stroke-dasharray:none" />
    <path
       id="path4516"
       d="m -1080,-2027.6377 20,-20"
       style="fill:none;stroke:#000000;stroke-width:3;stroke-linecap:butt;stroke-linejoin:miter;stroke-miterlimit:4;stroke-opacity:1;stroke-dasharray:none" />
    <path
       style="fill:none;stroke:#000000;stroke-width:3;stroke-linecap:butt;stroke-linejoin:miter;stroke-miterlimit:4;stroke-opacity:1;stroke-dasharray:none"
       d="m -1080,-1987.6377 20,-20"
       id="path4518" />
    <path
       style="fill:#0000ff;fill-opacity:0.3950178;stroke:none"
       d="m -1078.2202,-2008.895 0,-16.9527 8.2143,0 8.2143,0 0,8.7617 0,8.7617 -8.2143,8.1909 -8.2143,8.191 0,-16.9526 z"
       id="path4520" />
    <path
       style="fill:#0000ff;fill-opacity:0.3950178;stroke:none"
       d="m -1068.9345,-2036.2048 c 3.7167,-3.7321 6.8442,-6.7857 6.9502,-6.7857 0.106,0 0.1927,3.0536 0.1927,6.7857 l 0,6.7857 -6.9502,0 -6.9502,0 6.7575,-6.7857 z"
       id="path4522" />
    <path
       style="fill:#0000ff;fill-opacity:0.3950178;stroke:none"
       d="m -1067.5059,-1997.6334 8.191,-8.2143 68.76166,0 68.76165,0 0,8.2143 0,8.2143 -76.95264,0 -76.95267,0 8.191,-8.2143 z"
       id="path4524" />
    <path
       style="fill:#0000ff;fill-opacity:0.3950178;stroke:none"
       d="m -1058.2202,-2017.6334 0,-8.2143 68.21432,0 68.21429,0 0,8.2143 0,8.2143 -68.21429,0 -68.21432,0 0,-8.2143 z"
       id="path4526" />
    <path
       style="fill:#0000ff;fill-opacity:0.3950178;stroke:none"
       d="m -1058.2202,-2037.6334 0,-8.2143 68.21432,0 68.21429,0 0,8.2143 0,8.2143 -68.21429,0 -68.21432,0 0,-8.2143 z"
       id="path4528" />
    <path
       style="fill:#0000ff;fill-opacity:0.3950178;stroke:none"
       d="m -918.22017,-1997.6334 0,-8.2143 38.21429,0 38.21429,0 0,8.2143 0,8.2143 -38.21429,0 -38.21429,0 0,-8.2143 z"
       id="path4530" />
    <path
       style="fill:#0000ff;fill-opacity:0.3950178;stroke:none"
       d="m -918.22017,-2017.6334 0,-8.2143 38.21429,0 38.21429,0 0,8.2143 0,8.2143 -38.21429,0 -38.21429,0 0,-8.2143 z"
       id="path4532" />
    <path
       style="fill:#0000ff;fill-opacity:0.3950178;stroke:none"
       d="m -918.22017,-2037.6334 0,-8.2143 46.95264,0 46.95264,0 -8.19099,8.2143 -8.19099,8.2143 -38.76164,0 -38.76166,0 0,-8.2143 z"
       id="path4534" />
    <path
       style="fill:#0000ff;fill-opacity:0.3950178;stroke:none"
       d="m -838.22017,-2018.1807 0,-8.7617 8.21429,-8.191 8.21429,-8.1909 0,16.9526 0,16.9526 -8.21429,0 -8.21429,0 0,-8.7616 z"
       id="path4536" />
    <path
       style="fill:#0000ff;fill-opacity:0.3950178;stroke:none"
       d="m -838.22017,-1999.0619 0,-6.7858 6.95018,0 6.95018,0 -6.7575,6.7858 c -3.71662,3.7321 -6.8442,6.7857 -6.95018,6.7857 -0.10597,0 -0.19268,-3.0536 -0.19268,-6.7857 z"
       id="path4538" />
    <path
       style="fill:none;stroke:#000000;stroke-width:3;stroke-linecap:butt;stroke-linejoin:miter;stroke-miterlimit:4;stroke-opacity:1;stroke-dasharray:none"
       d="M -1797.1429,-2141.9234 -1060,-2047.6377"
       id="path4540"
       sodipodi:nodetypes="cc" />
    <path
       style="fill:none;stroke:#000000;stroke-width:3;stroke-linecap:butt;stroke-linejoin:miter;stroke-miterlimit:4;stroke-opacity:1;stroke-dasharray:none"
       d="m -1920,-1787.6377 840,-200"
       id="path4542" />
    <path
       style="fill:none;stroke:#000000;stroke-width:3;stroke-linecap:butt;stroke-linejoin:miter;stroke-miterlimit:4;stroke-opacity:1;stroke-dasharray:none"
       d="m -820,-2047.6377 776,2"
       id="path4544" />
    <path
       style="fill:none;stroke:#000000;stroke-width:3;stroke-linecap:butt;stroke-linejoin:miter;stroke-miterlimit:4;stroke-opacity:1;stroke-dasharray:none"
       d="m -840,-1987.6377 777,3"
       id="path4546" />
    <text
       id="text4548"
       y="-1884.7806"
       x="-2081.5"
       style="font-size:90.95014954px;font-style:normal;font-weight:normal;fill:#000000;fill-opacity:1;stroke:none;font-family:Bitstream Vera Sans"
       xml:space="preserve"><tspan
         y="-1884.7806"
         x="-2081.5"
         id="tspan4550"
         sodipodi:role="line">K</tspan></text>
  </g>
</svg>
